<svg fill="none" height="100" viewBox="0 0 100 100" width="100" xmlns="http://www.w3.org/2000/svg">
  <path d="M42.2517 36.738L43.871 36.1496V29.529L42.2517 28.9406L42.9823 27.3802L38.2997 22.6976L36.7392 23.427L36.1496 21.8065H29.5278L28.9406 23.4257L28.9382 23.4257L28.9406 23.4257L27.3802 22.6964L22.6976 27.379L23.4282 28.9394L21.8065 29.5278V36.1484L23.4257 36.7368L22.6952 38.2972L27.3777 42.9798L28.9382 42.2505L29.5278 43.871H36.1496L36.7368 42.2517L38.2972 42.981L42.9798 38.2985L42.2517 36.738ZM41.4194 34.431L40.4105 34.7975L39.8675 35.0476L39.3465 36.3114L40.033 37.7799L37.7799 40.0317L36.3077 39.3428L34.9875 39.8908L34.431 41.4194H31.2464L30.8786 40.4105L30.6188 39.8626L29.3697 39.3441L27.8975 40.033L25.6445 37.7812L26.3309 36.3126L25.7854 34.9875L24.2581 34.431V31.2452L25.2669 30.8786L25.8099 30.6286L26.3309 29.3648L25.6445 27.8963L27.8975 25.6445L29.3697 26.3334L30.6899 25.7854L31.2464 24.2581H34.431L34.7988 25.2669L35.0586 25.8148L36.3077 26.3334L37.7799 25.6445L40.033 27.8963L39.3465 29.3648L39.892 30.6899L41.4194 31.2464V34.431ZM32.8387 26.7097C29.4592 26.7097 26.7097 29.4592 26.7097 32.8387C26.7097 36.2183 29.4592 38.9677 32.8387 38.9677C36.2183 38.9677 38.9677 36.2183 38.9677 32.8387C38.9677 29.4592 36.2183 26.7097 32.8387 26.7097ZM32.8387 36.5161C30.8112 36.5161 29.1613 34.8662 29.1613 32.8387C29.1613 30.8112 30.8112 29.1613 32.8387 29.1613C34.8662 29.1613 36.5161 30.8112 36.5161 32.8387C36.5161 34.8662 34.8662 36.5161 32.8387 36.5161ZM20.5806 21.8065C20.5806 21.1298 21.1298 20.5806 21.8065 20.5806C22.4831 20.5806 23.0323 21.1298 23.0323 21.8065C23.0323 22.4831 22.4831 23.0323 21.8065 23.0323C21.1298 23.0323 20.5806 22.4831 20.5806 21.8065ZM23.0323 43.871C23.0323 44.5476 22.4831 45.0968 21.8065 45.0968C21.1298 45.0968 20.5806 44.5476 20.5806 43.871C20.5806 43.1943 21.1298 42.6452 21.8065 42.6452C22.4831 42.6452 23.0323 43.1943 23.0323 43.871ZM45.0968 21.8065C45.0968 22.4831 44.5476 23.0323 43.871 23.0323C43.1943 23.0323 42.6452 22.4831 42.6452 21.8065C42.6452 21.1298 43.1943 20.5806 43.871 20.5806C44.5476 20.5806 45.0968 21.1298 45.0968 21.8065ZM45.0968 43.871C45.0968 44.5476 44.5476 45.0968 43.871 45.0968C43.1943 45.0968 42.6452 44.5476 42.6452 43.871C42.6452 43.1943 43.1943 42.6452 43.871 42.6452C44.5476 42.6452 45.0968 43.1943 45.0968 43.871ZM75.7419 58.5806H58.5806V75.7419H75.7419V58.5806ZM73.2903 73.2903H61.0323V61.0323H73.2903V73.2903ZM84.3226 46.3226H53.6774V15.6774C53.6774 13.6499 52.0275 12 50 12H15.6774C13.6499 12 12 13.6499 12 15.6774V21.8065H15.6774C16.3541 21.8065 16.9032 22.3568 16.9032 23.0323C16.9032 23.7077 16.3541 24.2581 15.6774 24.2581H12V50C12 52.0275 13.6499 53.6774 15.6774 53.6774H46.3226V63.4839H50C50.6766 63.4839 51.2258 64.0343 51.2258 64.7097C51.2258 65.3851 50.6766 65.9355 50 65.9355H46.3226V84.3226C46.3226 86.3501 47.9725 88 50 88H84.3226C86.3501 88 88 86.3501 88 84.3226V50C88 47.9725 86.3501 46.3226 84.3226 46.3226ZM58.5806 56.129V53.6774H61.0323V56.129H63.4839V53.6774H65.9355V56.129H68.3871V53.6774H70.8387V56.129H73.2903V53.6774H75.7419V56.129H78.1936V53.6774H80.6452V58.5806H78.1936V61.0323H80.6452V63.4839H78.1936V65.9355H80.6452V68.3871H78.1936V70.8387H80.6452V73.2903H78.1936V75.7419H80.6452V80.6452H78.1936V78.1936H75.7419V80.6452H73.2903V78.1936H70.8387V80.6452H68.3871V78.1936H65.9355V80.6452H63.4839V78.1936H61.0323V80.6452H58.5806V78.1936H56.129V80.6452H53.6774V75.7419H56.129V73.2903H53.6774V70.8387H56.129V68.3871H53.6774V65.9355H56.129V63.4839H53.6774V61.0323H56.129V58.5806H53.6774V53.6774H56.129V56.129H58.5806ZM19.3548 19.3548H46.3226V46.3226H19.3548V19.3548ZM14.4516 50V26.7097H15.6774C16.1089 26.7097 16.5183 26.6214 16.9032 26.4841V48.7742H48.7742V16.9032H16.9032V19.5804C16.5183 19.4431 16.1089 19.3548 15.6774 19.3548H14.4516V15.6774C14.4516 15.002 15.0008 14.4516 15.6774 14.4516H50C50.6766 14.4516 51.2258 15.002 51.2258 15.6774V50C51.2258 50.6754 50.6766 51.2258 50 51.2258H15.6774C15.0008 51.2258 14.4516 50.6754 14.4516 50ZM50 61.0323H48.7742V53.6774H50C50.4315 53.6774 50.8409 53.5892 51.2258 53.4519V61.259C50.8409 61.1205 50.4315 61.0323 50 61.0323ZM85.5484 84.3226C85.5484 84.998 84.9992 85.5484 84.3226 85.5484H50C49.3234 85.5484 48.7742 84.998 48.7742 84.3226V68.3871H50C50.4315 68.3871 50.8409 68.2988 51.2258 68.1616V83.0968H83.0968V51.2258H53.4519C53.5892 50.8409 53.6774 50.4315 53.6774 50V48.7742H84.3226C84.9992 48.7742 85.5484 49.3246 85.5484 50V84.3226ZM70.8387 65.9355H63.4839V63.4839H70.8387V65.9355ZM70.8387 70.8387H63.4839V68.3871H70.8387V70.8387ZM28.9357 61.0323H33.307L35.7586 65.9355H43.871V63.4839H37.2737L34.8221 58.5806H28.9357C28.4283 57.1575 27.0799 56.129 25.4839 56.129C23.4564 56.129 21.8065 57.779 21.8065 59.8065C21.8065 61.8339 23.4564 63.4839 25.4839 63.4839C27.0799 63.4839 28.4283 62.4554 28.9357 61.0323ZM24.2581 59.8065C24.2581 59.131 24.8072 58.5806 25.4839 58.5806C26.1605 58.5806 26.7097 59.131 26.7097 59.8065C26.7097 60.4819 26.1605 61.0323 25.4839 61.0323C24.8072 61.0323 24.2581 60.4819 24.2581 59.8065ZM15.6774 65.9355C13.6499 65.9355 12 67.5854 12 69.6129C12 71.6404 13.6499 73.2903 15.6774 73.2903C17.2734 73.2903 18.6218 72.2619 19.1293 70.8387H43.871V68.3871H19.1293C18.6218 66.9639 17.2734 65.9355 15.6774 65.9355ZM15.6774 70.8387C15.0008 70.8387 14.4516 70.2883 14.4516 69.6129C14.4516 68.9375 15.0008 68.3871 15.6774 68.3871C16.3541 68.3871 16.9032 68.9375 16.9032 69.6129C16.9032 70.2883 16.3541 70.8387 15.6774 70.8387ZM28.9357 78.1936C28.4283 76.7704 27.0799 75.7419 25.4839 75.7419C23.4564 75.7419 21.8065 77.3919 21.8065 79.4194C21.8065 81.4468 23.4564 83.0968 25.4839 83.0968C27.0799 83.0968 28.4283 82.0683 28.9357 80.6452H34.8221L37.2737 75.7419H43.871V73.2903H35.7586L33.307 78.1936H28.9357ZM25.4839 80.6452C24.8072 80.6452 24.2581 80.0948 24.2581 79.4194C24.2581 78.7439 24.8072 78.1936 25.4839 78.1936C26.1605 78.1936 26.7097 78.7439 26.7097 79.4194C26.7097 80.0948 26.1605 80.6452 25.4839 80.6452ZM78.1936 28.9357V33.307L73.2903 35.7586V43.871H75.7419V37.2737L80.6452 34.8221V28.9357C82.0683 28.4283 83.0968 27.0799 83.0968 25.4839C83.0968 23.4564 81.4468 21.8065 79.4194 21.8065C77.3919 21.8065 75.7419 23.4564 75.7419 25.4839C75.7419 27.0799 76.7704 28.4283 78.1936 28.9357ZM79.4194 24.2581C80.096 24.2581 80.6452 24.8085 80.6452 25.4839C80.6452 26.1593 80.096 26.7097 79.4194 26.7097C78.7427 26.7097 78.1936 26.1593 78.1936 25.4839C78.1936 24.8085 78.7427 24.2581 79.4194 24.2581ZM58.5806 28.9357V34.8221L63.4839 37.2737V43.871H65.9355V35.7586L61.0323 33.307V28.9357C62.4554 28.4283 63.4839 27.0799 63.4839 25.4839C63.4839 23.4564 61.8339 21.8065 59.8065 21.8065C57.779 21.8065 56.129 23.4564 56.129 25.4839C56.129 27.0799 57.1575 28.4283 58.5806 28.9357ZM59.8065 24.2581C60.4831 24.2581 61.0323 24.8085 61.0323 25.4839C61.0323 26.1593 60.4831 26.7097 59.8065 26.7097C59.1298 26.7097 58.5806 26.1593 58.5806 25.4839C58.5806 24.8085 59.1298 24.2581 59.8065 24.2581ZM68.3871 19.1293V43.871H70.8387V19.1293C72.2619 18.6218 73.2903 17.2734 73.2903 15.6774C73.2903 13.6499 71.6404 12 69.6129 12C67.5854 12 65.9355 13.6499 65.9355 15.6774C65.9355 17.2734 66.9639 18.6218 68.3871 19.1293ZM69.6129 14.4516C70.2895 14.4516 70.8387 15.002 70.8387 15.6774C70.8387 16.3528 70.2895 16.9032 69.6129 16.9032C68.9363 16.9032 68.3871 16.3528 68.3871 15.6774C68.3871 15.002 68.9363 14.4516 69.6129 14.4516Z" fill="url(#paint0_linear_991_6161)"></path>
  <defs>
    <linearGradient gradientUnits="userSpaceOnUse" id="paint0_linear_991_6161" x1="50" x2="50" y1="12" y2="88">
      <stop stop-color="#FF7E00"></stop>
      <stop offset="1" stop-color="#107EFF"></stop>
    </linearGradient>
  </defs>
</svg>
