<svg fill="none" height="100" viewBox="0 0 100 100" width="100" xmlns="http://www.w3.org/2000/svg">
  <path d="M49.7705 22.5898C54.2358 22.5899 57.8691 26.2232 57.8691 30.6885C57.8691 33.4618 56.4429 36.0086 54.1299 37.4922V42.3291C54.6989 42.0631 55.3281 41.9014 56 41.9014C57.2281 41.9014 58.3346 42.4039 59.1279 43.2041C59.9191 42.4017 61.0163 41.9014 62.2295 41.9014C64.5693 41.9014 66.4701 43.759 66.5713 46.0742C67.1447 45.8045 67.78 45.6397 68.459 45.6396C70.8633 45.6396 72.8196 47.5385 72.8193 49.8721V73.3057C72.8192 75.9449 71.3777 78.327 69.082 79.585V86.7539C69.082 87.4419 68.5239 87.9999 67.8359 87.9999C67.1479 88 66.5898 87.442 66.5898 86.7539V78.7998C66.5898 78.2924 66.8969 77.8355 67.3672 77.6445C69.1655 76.9151 70.327 75.212 70.3271 73.3057V49.8721C70.3271 48.9122 69.4895 48.131 68.459 48.1309C67.4283 48.1309 66.5898 48.9121 66.5898 49.8721V56.373C66.5898 57.0611 66.0318 57.6191 65.3438 57.6191C64.6558 57.619 64.0977 57.061 64.0977 56.373V46.2627C64.0977 45.232 63.26 44.3937 62.2295 44.3936C61.1988 44.3936 60.3604 45.232 60.3604 46.2627V55.6064C60.3604 56.2945 59.8023 56.8525 59.1143 56.8525C58.4263 56.8524 57.8682 56.2944 57.8682 55.6064V46.1562C57.8681 45.1843 57.0305 44.3937 56 44.3936C54.9694 44.3936 54.1309 45.1842 54.1309 46.1562V55.6064C54.1309 56.2945 53.5728 56.8525 52.8848 56.8525C52.1968 56.8525 51.6387 56.2944 51.6387 55.6064C51.6387 55.5796 51.6377 50.623 51.6377 50.623V32.5576C51.6377 31.5269 50.7992 30.6885 49.7686 30.6885C48.7381 30.6887 47.9004 31.5271 47.9004 32.5576V60.5898C47.9004 61.1137 47.5722 61.5823 47.0801 61.7617C46.589 61.9401 46.0369 61.7931 45.6992 61.3906C45.6992 61.3906 41.7764 56.7097 39.3164 53.7871C38.5536 52.881 37.1831 52.7626 36.2578 53.5234C35.371 54.2545 35.1987 55.4339 35.793 56.3203L47.6523 73.9795C48.47 75.1977 49.5876 76.1873 50.9746 76.9199C51.3835 77.1358 51.6387 77.5599 51.6387 78.0215V86.7539C51.6387 87.4418 51.0814 87.9998 50.3936 88C49.7055 88 49.1475 87.442 49.1475 86.7539V78.7461C47.6943 77.8641 46.4978 76.7304 45.584 75.3691L33.7246 57.709C32.4118 55.754 32.7925 53.1506 34.6094 51.6533C36.6467 49.9742 39.5859 50.2359 41.2236 52.1826C42.4763 53.671 44.1076 55.615 45.4082 57.165V37.4902C43.097 36.0063 41.6719 33.4604 41.6719 30.6885C41.6719 26.2232 45.3052 22.5898 49.7705 22.5898ZM29.2129 74.2949C31.2739 74.2949 32.9512 75.9722 32.9512 78.0332C32.9509 80.094 31.2738 81.7705 29.2129 81.7705C27.1521 81.7704 25.4758 80.094 25.4756 78.0332C25.4756 75.9722 27.152 74.295 29.2129 74.2949ZM29.2129 76.7871C28.5262 76.7872 27.9668 77.3465 27.9668 78.0332C27.967 78.7197 28.5263 79.2782 29.2129 79.2783C29.8996 79.2783 30.4588 78.7198 30.459 78.0332C30.459 77.3464 29.8997 76.7871 29.2129 76.7871ZM80.2949 66.8193C80.9829 66.8193 81.5409 67.3774 81.541 68.0654C81.541 68.7535 80.983 69.3115 80.2949 69.3115C79.6069 69.3114 79.0488 68.7534 79.0488 68.0654C79.0489 67.3775 79.607 66.8194 80.2949 66.8193ZM27.6025 61.6855C28.0891 61.1991 28.8778 61.199 29.3643 61.6855C29.8504 62.1721 29.8506 62.9608 29.3643 63.4473L28.4834 64.3281L29.3643 65.209C29.8504 65.6955 29.8506 66.4843 29.3643 66.9707C29.1211 67.2139 28.8019 67.3358 28.4834 67.3359C28.1649 67.3359 27.8458 67.2137 27.6025 66.9707L26.7217 66.0898L25.8408 66.9707C25.5976 67.2139 25.2785 67.3358 24.96 67.3359C24.6415 67.3359 24.3223 67.2138 24.0791 66.9707C23.5926 66.4842 23.5926 65.6955 24.0791 65.209L24.96 64.3281L24.0791 63.4473C23.5926 62.9607 23.5926 62.1721 24.0791 61.6855C24.5656 61.1991 25.3543 61.199 25.8408 61.6855L26.7217 62.5664L27.6025 61.6855ZM37.9346 46.8848C38.6225 46.8848 39.1805 47.443 39.1807 48.1309C39.1807 48.8189 38.6226 49.3769 37.9346 49.377H19.2461C18.558 49.377 18 48.8189 18 48.1309C18.0002 47.4429 18.5581 46.8848 19.2461 46.8848H37.9346ZM80.2949 46.8848C80.9829 46.8848 81.5409 47.4429 81.541 48.1309C81.541 48.8189 80.983 49.377 80.2949 49.377H75.3115C74.6235 49.377 74.0654 48.8189 74.0654 48.1309C74.0656 47.4429 74.6236 46.8848 75.3115 46.8848H80.2949ZM39.5762 43.3379C39.968 42.7704 40.743 42.6285 41.3086 43.0166C41.782 43.342 42.2781 43.6436 42.7842 43.9111C43.3916 44.2335 43.6232 44.9866 43.3018 45.5947C43.0778 46.0168 42.6459 46.2578 42.1992 46.2578C42.0028 46.2578 41.8034 46.211 41.6172 46.1123C41.0275 45.7997 40.4482 45.4492 39.8975 45.0703C39.3306 44.6804 39.1869 43.9048 39.5762 43.3379ZM32.9512 41.9014C33.639 41.9016 34.1962 42.4596 34.1963 43.1475C34.1963 43.8354 33.6391 44.3934 32.9512 44.3936H19.2461C18.558 44.3936 18 43.8355 18 43.1475C18 42.4594 18.5581 41.9014 19.2461 41.9014H32.9512ZM80.2949 41.9014C80.9829 41.9014 81.541 42.4594 81.541 43.1475C81.541 43.8355 80.983 44.3936 80.2949 44.3936H67.8359C67.1479 44.3935 66.5898 43.8355 66.5898 43.1475C66.5899 42.4595 67.148 41.9014 67.8359 41.9014H80.2949ZM34.5771 36.4512C35.1976 36.1582 35.9417 36.425 36.2354 37.0479C36.7141 38.0644 37.3091 39.0286 38.0039 39.9131C38.4289 40.4538 38.3352 41.2376 37.7939 41.6621C37.5661 41.8413 37.2946 41.9276 37.0254 41.9277C36.656 41.9277 36.2907 41.7654 36.0449 41.4521C35.2338 40.4205 34.5389 39.2952 33.9805 38.1094C33.6877 37.4865 33.955 36.7442 34.5771 36.4512ZM57.4795 37.0068C57.9168 36.4758 58.7023 36.3989 59.2334 36.835C59.7649 37.2717 59.8419 38.0566 59.4053 38.5889C58.8189 39.3029 58.1537 39.9517 57.4287 40.5166C57.2013 40.6941 56.9306 40.7793 56.6631 40.7793C56.2928 40.7793 55.9248 40.615 55.6797 40.2998C55.2566 39.7573 55.3542 38.9744 55.8965 38.5518C56.4774 38.0992 57.0098 37.5793 57.4795 37.0068ZM40.0771 36.4648C40.6266 36.0494 41.4077 36.1575 41.8232 36.7051C42.2692 37.2927 42.7815 37.8328 43.3467 38.3096C43.8719 38.7538 43.9373 39.5394 43.4941 40.0654C43.2471 40.357 42.8952 40.5068 42.541 40.5068C42.2573 40.5067 41.9723 40.4104 41.7383 40.2139C41.0337 39.6183 40.3938 38.9441 39.8369 38.2109C39.4214 37.6621 39.529 36.8807 40.0771 36.4648ZM63.5146 36.585C63.7861 35.9534 64.5174 35.6613 65.1504 35.9336C65.7823 36.2055 66.0746 36.9371 65.8027 37.5693C65.538 38.1857 65.2347 38.792 64.9023 39.3691C64.6718 39.7693 64.2526 39.9932 63.8213 39.9932C63.6102 39.9931 63.397 39.9395 63.2012 39.8271C62.605 39.4833 62.4003 38.7221 62.7432 38.126C63.0279 37.632 63.287 37.1129 63.5146 36.585ZM30.459 36.918C31.147 36.918 31.7051 37.476 31.7051 38.1641C31.705 38.8521 31.147 39.4102 30.459 39.4102H19.2461C18.5581 39.4102 18.0001 38.8521 18 38.1641C18 37.476 18.558 36.918 19.2461 36.918H30.459ZM80.2949 36.918C80.983 36.918 81.541 37.476 81.541 38.1641C81.5409 38.8521 80.9829 39.4102 80.2949 39.4102H69.082C68.394 39.4102 67.836 38.8521 67.8359 38.1641C67.8359 37.476 68.394 36.918 69.082 36.918H80.2949ZM60.7383 28.0293C61.419 27.9492 62.0443 28.4261 62.1309 29.1094C62.1966 29.6295 62.2295 30.1612 62.2295 30.6885C62.2295 31.8559 62.0677 33.0128 61.749 34.126C61.592 34.6727 61.0936 35.0292 60.5518 35.0293C60.4382 35.0293 60.3225 35.0131 60.208 34.9805C59.5471 34.7908 59.1641 34.1007 59.3535 33.4395C59.6083 32.5496 59.7373 31.6235 59.7373 30.6885C59.7373 30.2652 59.7112 29.8389 59.6582 29.4219C59.572 28.7395 60.0556 28.1159 60.7383 28.0293ZM37.4854 28.6064C37.5991 27.9282 38.2354 27.4685 38.9209 27.5859C39.5991 27.7004 40.0563 28.3429 39.9414 29.0215C39.8495 29.5691 39.8031 30.1296 39.8037 30.6875C39.8037 31.4853 39.8981 32.279 40.084 33.0479C40.2463 33.7163 39.8351 34.3901 39.166 34.5518C39.0677 34.576 38.9691 34.5879 38.8721 34.5879C38.3105 34.5879 37.8004 34.2054 37.6621 33.6348C37.4291 32.6742 37.3115 31.683 37.3115 30.6885C37.3109 29.9927 37.3698 29.2917 37.4854 28.6064ZM29.2129 31.9346C29.9009 31.9346 30.459 32.4926 30.459 33.1807C30.4588 33.8686 29.9008 34.4258 29.2129 34.4258H19.2461C18.5582 34.4258 18.0002 33.8686 18 33.1807C18 32.4926 18.558 31.9346 19.2461 31.9346H29.2129ZM80.2949 31.9346C80.983 31.9346 81.541 32.4926 81.541 33.1807C81.5408 33.8686 80.9829 34.4258 80.2949 34.4258H70.3281C69.6402 34.4258 69.082 33.8686 69.082 33.1807C69.082 32.4926 69.6401 31.9346 70.3281 31.9346H80.2949ZM33.7412 28.0352C34.4267 28.0941 34.9345 28.6983 34.875 29.3838C34.838 29.8132 34.8187 30.2478 34.8193 30.6865C34.8193 31.3783 34.8672 32.073 34.9609 32.7539C35.0547 33.4356 34.5781 34.0643 33.8965 34.1582C33.8386 34.166 33.7813 34.1699 33.7246 34.1699C33.112 34.1699 32.578 33.7178 32.4922 33.0938C32.3835 32.301 32.3281 31.4915 32.3281 30.6885C32.3275 30.1775 32.3487 29.6709 32.3926 29.1699C32.4514 28.4844 33.0544 27.9679 33.7412 28.0352ZM65.7002 27.4922C66.3817 27.4156 67.004 27.8971 67.0859 28.5801C67.17 29.2771 67.2129 29.9864 67.2129 30.6885C67.2129 31.2967 67.1811 31.9081 67.1191 32.5049C67.0522 33.1455 66.5118 33.6219 65.8818 33.6221C65.8385 33.6221 65.7949 33.6193 65.751 33.6152C65.0669 33.5437 64.5703 32.9316 64.6416 32.2471C64.6949 31.7354 64.7217 31.2111 64.7217 30.6885C64.7217 30.0855 64.6852 29.4763 64.6133 28.8779C64.5312 28.1951 65.0174 27.5743 65.7002 27.4922ZM27.9668 26.9512C28.6547 26.9512 29.2127 27.5084 29.2129 28.1963C29.2129 28.8843 28.6548 29.4424 27.9668 29.4424H19.2461C18.558 29.4424 18 28.8843 18 28.1963C18.0002 27.5084 18.5582 26.9512 19.2461 26.9512H27.9668ZM80.2949 26.9512C80.9828 26.9512 81.5408 27.5084 81.541 28.1963C81.541 28.8843 80.983 29.4424 80.2949 29.4424H71.5742C70.8862 29.4424 70.3281 28.8843 70.3281 28.1963C70.3284 27.5084 70.8863 26.9512 71.5742 26.9512H80.2949ZM55.374 20.8945C55.7793 20.3401 56.5594 20.2179 57.1152 20.623C58.4925 21.6291 59.6296 22.8822 60.4971 24.3477C60.8481 24.9395 60.652 25.7043 60.0596 26.0547C59.8607 26.1726 59.6424 26.2285 59.4268 26.2285C59.0008 26.2282 58.5859 26.01 58.3535 25.6172C57.6589 24.4448 56.7468 23.4412 55.6445 22.6357C55.0895 22.2292 54.9683 21.4498 55.374 20.8945ZM42.8418 20.333C43.4123 19.9494 44.1859 20.1016 44.5693 20.6738C44.9524 21.245 44.8003 22.0195 44.2285 22.4023C43.0952 23.162 42.1436 24.1273 41.4014 25.2715C41.1628 25.6396 40.7634 25.8398 40.3555 25.8398C40.1232 25.8398 39.888 25.776 39.6787 25.6396C39.1012 25.2656 38.9368 24.4932 39.3115 23.916C40.2387 22.4865 41.4263 21.2813 42.8418 20.333ZM35.5098 20.6426C35.9069 20.081 36.6829 19.945 37.2461 20.3428C37.8083 20.7393 37.9414 21.5172 37.5449 22.0791C36.8966 22.9987 36.3528 23.9911 35.9277 25.0293C35.7306 25.5118 35.2643 25.8037 34.7734 25.8037C34.6167 25.8037 34.457 25.7731 34.3027 25.71C33.6668 25.4499 33.3612 24.7229 33.6221 24.0859C34.1179 22.8747 34.7527 21.7158 35.5098 20.6426ZM61.9336 19.9229C62.4816 19.5075 63.2625 19.614 63.6787 20.1621C64.4726 21.2086 65.1483 22.3454 65.6855 23.54C65.9677 24.1678 65.6882 24.9052 65.0605 25.1875C64.8946 25.2616 64.7208 25.2978 64.5498 25.2979C64.0748 25.2979 63.6205 25.0241 63.4131 24.5625C62.953 23.5393 62.3742 22.5653 61.6934 21.668C61.2781 21.1192 61.3854 20.3387 61.9336 19.9229ZM29.2129 21.9668C29.9009 21.9668 30.4589 22.5249 30.459 23.2129C30.459 23.9009 29.9009 24.459 29.2129 24.459H19.2461C18.558 24.459 18 23.9009 18 23.2129C18.0001 22.5249 18.5581 21.9668 19.2461 21.9668H29.2129ZM80.2949 21.9668C80.9829 21.9668 81.5409 22.5249 81.541 23.2129C81.541 23.9009 80.983 24.459 80.2949 24.459H70.3281C69.6401 24.459 69.082 23.9009 69.082 23.2129C69.0822 22.5249 69.6402 21.9668 70.3281 21.9668H80.2949ZM47.5049 18.4346C49.1537 18.1315 50.8968 18.1668 52.5332 18.5371C53.204 18.6891 53.6245 19.3565 53.4727 20.0273C53.3419 20.605 52.8284 20.9979 52.2598 20.998C52.1685 20.998 52.0756 20.9883 51.9824 20.9668C50.674 20.67 49.276 20.6428 47.9551 20.8848C47.278 21.0099 46.6288 20.5619 46.5049 19.8848C46.3805 19.2084 46.8279 18.5586 47.5049 18.4346ZM32.9512 16.9834C33.6391 16.9836 34.1963 17.5416 34.1963 18.2295C34.1963 18.9174 33.6391 19.4754 32.9512 19.4756H19.2461C18.558 19.4756 18 18.9175 18 18.2295C18 17.5415 18.558 16.9834 19.2461 16.9834H32.9512ZM80.2949 16.9834C80.983 16.9834 81.541 17.5415 81.541 18.2295C81.541 18.9175 80.983 19.4756 80.2949 19.4756H66.5898C65.9019 19.4754 65.3447 18.9174 65.3447 18.2295C65.3447 17.5416 65.9019 16.9836 66.5898 16.9834H80.2949ZM42.4873 14.835C43.1127 14.5472 43.8525 14.8209 44.1396 15.4463C44.4271 16.071 44.1545 16.8108 43.5293 17.0986C42.5098 17.5683 41.5398 18.1553 40.6475 18.8428C40.4211 19.0174 40.1533 19.1016 39.8877 19.1016C39.515 19.1015 39.1455 18.9351 38.9004 18.6162C38.4799 18.0715 38.582 17.2893 39.127 16.8691C40.1673 16.0674 41.2975 15.3825 42.4873 14.835ZM54.8789 15.2627C55.1448 14.6284 55.8736 14.3288 56.5098 14.5947C57.718 15.1015 58.8716 15.7478 59.9375 16.5137C60.4962 16.9153 60.6231 17.6936 60.2217 18.252C59.9785 18.5908 59.5964 18.7705 59.209 18.7705C58.9572 18.7705 58.7035 18.6951 58.4834 18.5371C57.5696 17.8809 56.5818 17.3271 55.5469 16.8936C54.9128 16.627 54.6133 15.8971 54.8789 15.2627ZM49.7705 13.2461C50.3053 13.2249 50.8893 13.2719 51.4385 13.3242C52.1234 13.3899 52.6256 13.9987 52.5605 14.6836C52.4953 15.3678 51.8932 15.8645 51.2012 15.8057C50.7303 15.7602 50.2343 15.727 49.7715 15.7373C49.1218 15.7373 48.4702 15.7794 47.834 15.8613C47.7798 15.8685 47.7254 15.8721 47.6719 15.8721C47.0552 15.8723 46.5198 15.414 46.4385 14.7861C46.3503 14.1037 46.8322 13.4788 47.5146 13.3906C48.2567 13.2944 49.0157 13.2461 49.7705 13.2461ZM37.9346 12C38.6226 12.0001 39.1807 12.5581 39.1807 13.2461C39.1806 13.934 38.6225 14.4921 37.9346 14.4922H19.2461C18.5581 14.4922 18.0001 13.9341 18 13.2461C18 12.558 18.558 12 19.2461 12H37.9346ZM80.2949 12C80.983 12 81.541 12.558 81.541 13.2461C81.5409 13.9341 80.9829 14.4922 80.2949 14.4922H61.6064C60.9185 14.4921 60.3605 13.934 60.3604 13.2461C60.3604 12.5581 60.9184 12.0001 61.6064 12H80.2949Z" fill="url(#paint0_linear_991_6170)"></path>
  <defs>
    <linearGradient gradientUnits="userSpaceOnUse" id="paint0_linear_991_6170" x1="50" x2="50" y1="12" y2="88">
      <stop stop-color="#228B22"></stop>
      <stop offset="1" stop-color="#107EFF"></stop>
    </linearGradient>
  </defs>
</svg>
