<svg fill="none" height="100" viewBox="0 0 100 100" width="100" xmlns="http://www.w3.org/2000/svg">
  <path d="M65.3333 14.6667C65.3333 13.9303 65.9303 13.3333 66.6667 13.3333C67.403 13.3333 68 13.9303 68 14.6667C68 15.403 67.403 16 66.6667 16C65.9303 16 65.3333 15.403 65.3333 14.6667ZM86.6667 22.6667C85.9303 22.6667 85.3333 23.2637 85.3333 24C85.3333 24.7363 85.9303 25.3333 86.6667 25.3333C87.403 25.3333 88 24.7363 88 24C88 23.2637 87.403 22.6667 86.6667 22.6667ZM74.6667 16C74.6667 13.7943 76.461 12 78.6667 12C80.8723 12 82.6667 13.7943 82.6667 16C82.6667 18.2057 80.8723 20 78.6667 20C76.461 20 74.6667 18.2057 74.6667 16ZM77.3333 16C77.3333 16.735 77.931 17.3333 78.6667 17.3333C79.4023 17.3333 80 16.735 80 16C80 15.265 79.4023 14.6667 78.6667 14.6667C77.931 14.6667 77.3333 15.265 77.3333 16ZM84 30.6667V70.6667C84 71.187 83.698 71.6597 83.2253 71.8777L48.5587 87.8777C48.3817 87.959 48.19 88 48 88C47.81 88 47.6183 87.959 47.4413 87.8777L12.7747 71.8777C12.302 71.6597 12 71.187 12 70.6667V30.6667C12 30.131 12.3203 29.647 12.8137 29.4387L47.4803 14.772C47.8137 14.6313 48.186 14.6313 48.5193 14.772L83.186 29.4387C83.6797 29.647 84 30.131 84 30.6667ZM16.755 30.6667L31.3963 36.861L47.4413 29.4557C47.8097 29.2863 48.2357 29.293 48.5963 29.474L63.9357 37.1437L79.245 30.6667L48 17.448L16.755 30.6667ZM61.0183 58.6667L47.9767 52.146L33.8483 58.667L47.9767 65.1877L61.0183 58.6667ZM46.6667 32.7503L32 39.5193V56.5823L46.6667 49.813V32.7503ZM14.6667 69.8137L46.6667 84.5823V67.52L30.108 59.8777C29.6353 59.6597 29.3333 59.187 29.3333 58.6667V38.8837L14.6667 32.6783V69.8137ZM81.3333 69.8137V32.6783L65.3333 39.4477V58.6667C65.3333 59.172 65.0483 59.6333 64.5963 59.8593L49.3333 67.491V84.5827L81.3333 69.8137Z" fill="url(#paint0_linear_874_6054)"></path>
  <defs>
    <linearGradient gradientUnits="userSpaceOnUse" id="paint0_linear_874_6054" x1="64" x2="64" y1="87.9256" y2="16.5">
      <stop stop-color="#107EFF"></stop>
      <stop offset="1" stop-color="#1CBBB4"></stop>
    </linearGradient>
  </defs>
</svg>
