<svg fill="none" height="100" viewBox="0 0 100 100" width="100" xmlns="http://www.w3.org/2000/svg">
  <path d="M33.7095 77.711C25.1668 67.6387 20.4615 54.834 20.4615 41.6571V29.1464H26.2302C31.9668 29.1464 37.5409 27.6032 42.4566 24.7067C42.8615 25.4354 43.3698 26.0992 43.9618 26.6797C38.6351 29.8885 32.5477 31.5958 26.2302 31.5958H22.9231V41.6571C22.9231 52.8255 26.3938 63.5677 32.9612 72.7238L34.9649 71.3007C28.6978 62.5634 25.3846 52.3123 25.3846 41.6571V34.0453H26.2302C33.3538 34.0453 40.2105 32.022 46.128 28.2205C46.1871 28.2511 46.2486 28.278 46.3089 28.3074V34.0453H38.9243C37.5668 34.0453 36.4628 35.1439 36.4628 36.4948V38.9443C36.4628 40.2535 37.5028 41.3166 38.8025 41.3815L36.4677 65.7722L38.9182 66.0037L41.1914 42.2572L48.7692 46.9712V49.9669H51.2308V46.9712L58.8098 42.2572L61.0831 66.0037L63.5335 65.7722L61.1988 41.3815C62.4985 41.3166 63.5385 40.2535 63.5385 38.9443V36.4948C63.5385 35.1439 62.4345 34.0453 61.0769 34.0453H53.6923V28.3074C53.7526 28.278 53.8142 28.2498 53.8745 28.2205C59.7908 32.0208 66.6449 34.0453 73.7698 34.0453H74.6154V41.6571C74.6154 52.3344 71.2898 62.6026 64.9994 71.3509L67.0006 72.7765C73.5926 63.6105 77.0769 52.85 77.0769 41.6571V31.5958H73.7698C67.4511 31.5958 61.3625 29.8885 56.0369 26.6797C56.6289 26.0992 57.1385 25.4354 57.5434 24.7067C62.4591 27.6032 68.0332 29.1464 73.7698 29.1464H79.5385V41.6571C79.5385 54.834 74.8332 67.6375 66.2905 77.711L68.1711 79.2909C77.0892 68.7765 82 55.4121 82 41.6571V26.6969H73.7698C68.3286 26.6969 63.0462 25.1941 58.4197 22.3735C58.5465 21.793 58.6154 21.1904 58.6154 20.5732C58.6154 15.8457 54.7508 12 50 12C45.2492 12 41.3846 15.8457 41.3846 20.5732C41.3846 21.1904 41.4535 21.793 41.5791 22.3735C36.9526 25.1941 31.6702 26.6969 26.2302 26.6969H18V41.6571C18 55.4109 22.9108 68.7765 31.8289 79.2909L33.7095 77.711ZM44.4455 41.3938H55.5545L50 44.8487L44.4455 41.3938ZM61.0782 38.9443H38.9231V36.4948H61.0769L61.0782 38.9443ZM51.2308 34.0453H48.7692V29.0484C49.1729 29.1059 49.5815 29.1464 50 29.1464C50.4185 29.1464 50.8271 29.1059 51.2308 29.0484V34.0453ZM50 14.4495C53.3932 14.4495 56.1538 17.1966 56.1538 20.5732C56.1538 23.9498 53.3932 26.6969 50 26.6969C46.6068 26.6969 43.8462 23.9498 43.8462 20.5732C43.8462 17.1966 46.6068 14.4495 50 14.4495ZM59.8462 73.237C61.8818 73.237 63.5385 71.5885 63.5385 69.5628V68.338H61.0769V69.5628C61.0769 70.2376 60.5243 70.7875 59.8462 70.7875H58.3889C57.9975 69.6938 57.1052 68.8475 55.9828 68.5107C56.0898 68.0539 56.1538 67.586 56.1538 67.1133C56.1538 65.1206 55.1778 63.3644 53.6923 62.2462V56.0906C53.6923 55.4158 54.2449 54.8659 54.9231 54.8659C55.6012 54.8659 56.1538 55.4158 56.1538 56.0906C56.1538 56.7655 55.6012 57.3154 54.9231 57.3154V59.7648C56.9588 59.7648 58.6154 58.1163 58.6154 56.0906C58.6154 54.0649 56.9588 52.4164 54.9231 52.4164C52.8874 52.4164 51.2308 54.0649 51.2308 56.0906V61.1133C50.8332 61.0325 50.4209 60.9896 50 60.9896C49.5791 60.9896 49.1668 61.0325 48.7692 61.1133V56.0906C48.7692 54.0649 47.1126 52.4164 45.0769 52.4164C43.0412 52.4164 41.3846 54.0649 41.3846 56.0906C41.3846 58.1163 43.0412 59.7648 45.0769 59.7648V57.3154C44.3988 57.3154 43.8462 56.7655 43.8462 56.0906C43.8462 55.4158 44.3988 54.8659 45.0769 54.8659C45.7551 54.8659 46.3077 55.4158 46.3077 56.0906V62.2462C44.8222 63.3656 43.8462 65.1219 43.8462 67.1133C43.8462 67.586 43.9102 68.0539 44.0185 68.5107C42.896 68.8487 42.0037 69.6938 41.6123 70.7875H40.1538C39.4757 70.7875 38.9231 70.2376 38.9231 69.5628V68.338H36.4615V69.5628C36.4615 71.5885 38.1182 73.237 40.1538 73.237H41.3846V75.6865H36.4615V78.1359H41.5028C41.6185 78.981 41.8228 79.8004 42.1083 80.5854H40.1538C38.1182 80.5854 36.4615 82.2339 36.4615 84.2596V85.4844H38.9231V84.2596C38.9231 83.5848 39.4757 83.0349 40.1538 83.0349H43.3317C44.7803 85.2541 44.7803 85.2541 43.3317 83.0349C44.7803 85.2541 46.9575 86.9908 49.6111 87.8714L50 88L50.3889 87.8714C53.0425 86.9908 55.2185 85.2541 56.6683 83.0349H59.8462C60.5243 83.0349 61.0769 83.5848 61.0769 84.2596V85.4844H63.5385V84.2596C63.5385 82.2339 61.8818 80.5854 59.8462 80.5854H57.8917C58.1772 79.8004 58.3815 78.981 58.4972 78.1359H63.5385V75.6865H58.6154V73.237H59.8462ZM54.9231 70.7875C55.3194 70.7875 55.6566 70.9871 55.8818 71.2786C55.1225 73.8518 52.7274 75.6865 50 75.6865C47.2726 75.6865 44.8775 73.8518 44.1182 71.2786C44.3434 70.9871 44.6806 70.7875 45.0769 70.7875H54.9231ZM50 63.4391C52.0357 63.4391 53.6923 65.0876 53.6923 67.1133C53.6923 67.5358 53.5938 67.9437 53.4535 68.338H46.5465C46.4062 67.9437 46.3077 67.5358 46.3077 67.1133C46.3077 65.0876 47.9643 63.4391 50 63.4391ZM50 85.4084C46.3028 84.0049 43.8462 80.4813 43.8462 76.5132V75.5113C45.4314 77.128 47.6234 78.1359 50 78.1359C52.3766 78.1359 54.5686 77.128 56.1538 75.5113V76.5132C56.1538 80.4813 53.6972 84.0049 50 85.4084ZM50 24.2474C52.0357 24.2474 53.6923 22.5989 53.6923 20.5732C53.6923 18.5475 52.0357 16.899 50 16.899C47.9643 16.899 46.3077 18.5475 46.3077 20.5732C46.3077 22.5989 47.9643 24.2474 50 24.2474ZM50 19.3484C50.6782 19.3484 51.2308 19.8983 51.2308 20.5732C51.2308 21.248 50.6782 21.7979 50 21.7979C49.3218 21.7979 48.7692 21.248 48.7692 20.5732C48.7692 19.8983 49.3218 19.3484 50 19.3484Z" fill="url(#paint0_linear_991_6170)"></path>
  <defs>
    <linearGradient gradientUnits="userSpaceOnUse" id="paint0_linear_991_6170" x1="50" x2="50" y1="12" y2="88">
      <stop stop-color="#228B22"></stop>
      <stop offset="1" stop-color="#107EFF"></stop>
    </linearGradient>
  </defs>
</svg>
