<svg fill="none" height="100" viewBox="0 0 100 100" width="100" xmlns="http://www.w3.org/2000/svg">
  <path d="M83.0968 24.2581H69.6129C68.6718 24.2581 67.8124 24.6139 67.1613 25.1975C66.5102 24.6139 65.6508 24.2581 64.7097 24.2581H57.9806C53.7346 16.678 45.7894 12 37.0647 12H35.9677C22.7519 12 12 22.7519 12 35.9677C12 43.61 15.69 50.8562 21.8705 55.3513L23.9694 56.8777C24.9177 57.5674 25.4839 58.6792 25.4839 59.8517V65.9355C23.4562 65.9355 21.8065 67.5853 21.8065 69.6129C21.8065 70.554 22.1622 71.4133 22.7459 72.0645C22.1622 72.7157 21.8065 73.575 21.8065 74.5161C21.8065 76.5438 23.4562 78.1936 25.4839 78.1936H25.5536C26.1656 83.7017 30.8474 88 36.5161 88C42.1849 88 46.8667 83.7017 47.4787 78.1936H47.5484C49.576 78.1936 51.2258 76.5438 51.2258 74.5161C51.2258 73.575 50.87 72.7157 50.2864 72.0645C50.87 71.4133 51.2258 70.554 51.2258 69.6129C51.2258 67.5853 49.576 65.9355 47.5484 65.9355V59.8517C47.5484 58.6792 48.1146 57.5674 49.0629 56.8777L51.1618 55.3513C52.7927 54.1651 54.2634 52.778 55.5446 51.2258H58.5806V74.8056L64.2909 86.2261C64.8379 87.3201 65.9379 88 67.1613 88C68.3846 88 69.4847 87.3201 70.0317 86.2261L75.7419 74.8056V51.2258H84.3226C86.3502 51.2258 88 49.576 88 47.5484V29.1613H83.0968V24.2581ZM69.6129 26.7097H80.6452V43.871H68.3871V27.9355C68.3871 27.2596 68.937 26.7097 69.6129 26.7097ZM65.9355 27.9355V43.871H53.6774V26.7097H64.7097C65.3856 26.7097 65.9355 27.2596 65.9355 27.9355ZM36.5161 85.5484C32.201 85.5484 28.6212 82.3463 28.0245 78.1936H45.0079C44.4111 82.3463 40.8313 85.5484 36.5161 85.5484ZM47.5484 75.7419H25.4839C24.808 75.7419 24.2581 75.192 24.2581 74.5161C24.2581 73.8402 24.808 73.2903 25.4839 73.2903H47.5484C48.2243 73.2903 48.7742 73.8402 48.7742 74.5161C48.7742 75.192 48.2243 75.7419 47.5484 75.7419ZM48.7742 69.6129C48.7742 70.2888 48.2243 70.8387 47.5484 70.8387H25.4839C24.808 70.8387 24.2581 70.2888 24.2581 69.6129C24.2581 68.937 24.808 68.3871 25.4839 68.3871H47.5484C48.2243 68.3871 48.7742 68.937 48.7742 69.6129ZM49.7198 53.3685L47.621 54.895C46.0403 56.0445 45.0968 57.8974 45.0968 59.8517V65.9355H42.6452V54.9032H40.1935V65.9355H37.7419V52.4516H35.2903V65.9355H32.8387V54.9032H30.3871V65.9355H27.9355V59.8517C27.9355 57.8974 26.9919 56.0443 25.4114 54.895L23.3125 53.3685C17.764 49.3332 14.4516 42.8283 14.4516 35.9677C14.4516 24.1036 24.1036 14.4516 35.9676 14.4516H37.0645C44.4258 14.4516 51.1682 18.1621 55.1177 24.2581H51.2258V29.1613H51.1025C50.6973 27.1732 49.3264 25.5323 47.503 24.7508C47.1394 21.7159 44.5507 19.3548 41.4194 19.3548C39.4165 19.3548 37.6353 20.3206 36.5161 21.8107C35.397 20.3206 33.6157 19.3548 31.6129 19.3548C28.4816 19.3548 25.8928 21.7159 25.5292 24.7508C23.3425 25.688 21.8065 27.8613 21.8065 30.3871V30.3885C20.2774 31.5374 19.3548 33.352 19.3548 35.2903C19.3548 37.2286 20.2774 39.0433 21.8065 40.1922V40.1935C21.8065 43.1899 23.9683 45.6891 26.8139 46.2179C27.3125 48.8933 29.5787 50.9862 32.34 51.2059C32.5087 51.2194 32.6766 51.226 32.8435 51.226C34.186 51.226 35.4645 50.7957 36.5183 50C37.5706 50.7888 38.8585 51.2258 40.1935 51.2258C43.2165 51.2258 45.7353 49.0258 46.2333 46.1428C46.2636 46.133 46.2925 46.1205 46.3226 46.1097V47.5484C46.3226 49.576 47.9724 51.2258 50 51.2258H52.2305C51.4501 52.0013 50.6124 52.7193 49.7198 53.3685ZM46.3226 42.6452C46.3226 43.321 45.7727 43.871 45.0968 43.871H43.871V45.0968C43.871 47.1244 42.2213 48.7742 40.1935 48.7742C39.2851 48.7742 38.4132 48.4357 37.7419 47.8349V34.0645C37.7419 32.7128 38.8418 31.6129 40.1935 31.6129V29.1613C39.3007 29.1613 38.4638 29.4023 37.7419 29.8209V25.4839C37.7419 23.4562 39.3917 21.8065 41.4194 21.8065C43.0198 21.8065 44.3841 22.8346 44.8882 24.2648C43.8933 24.2987 42.9187 24.5711 42.0572 25.0637L43.2745 27.1919C43.8261 26.8764 44.4561 26.7097 45.0968 26.7097C46.6948 26.7097 48.0573 27.7346 48.5634 29.1613H46.3226V42.6452ZM28.3576 40.9152C27.6091 41.7171 27.1035 42.6758 26.8657 43.7118C25.3582 43.2526 24.2581 41.8493 24.2581 40.1935C24.2581 40.04 24.2685 39.884 24.2901 39.7172L24.3957 38.8991L23.6778 38.4932C22.5235 37.8405 21.8065 36.6131 21.8065 35.2903C21.8065 34.0933 22.395 32.976 23.362 32.2905L23.9394 32.3608C25.8095 32.5886 27.4027 33.8908 27.9985 35.678L30.3243 34.9025C29.4362 32.2384 27.0698 30.2935 24.287 29.9342C24.5109 28.1195 26.0612 26.7097 27.9355 26.7097C28.5761 26.7097 29.2062 26.8764 29.7578 27.1919L30.975 25.0637C30.1137 24.571 29.1389 24.2987 28.144 24.2648C28.6481 22.8346 30.0125 21.8065 31.6129 21.8065C33.6405 21.8065 35.2903 23.4562 35.2903 25.4839V47.8369C34.5421 48.5097 33.5601 48.8444 32.5346 48.7621C30.7404 48.6191 29.2941 47.1564 29.1703 45.3599C29.0991 44.3254 29.4469 43.341 30.1499 42.5882C30.8534 41.8344 31.8083 41.4194 32.8387 41.4194V38.9677C31.1463 38.9677 29.5129 39.6776 28.3576 40.9152ZM62.2581 51.2258C62.2581 52.466 62.7217 53.5993 63.4837 54.4636L63.4839 73.2903H61.0323V51.2258H62.2581ZM61.7898 75.7419H72.5326L70.081 80.6452H64.2414L61.7898 75.7419ZM68.3871 73.2903H65.9355L65.9353 55.9738C66.3273 56.0751 66.7381 56.129 67.1613 56.129C67.5845 56.129 67.9951 56.0751 68.3871 55.9738V73.2903ZM67.1613 85.5484C66.8725 85.5484 66.6127 85.388 66.4837 85.1296L65.4672 83.0968H68.8552L67.8389 85.1296C67.7098 85.388 67.4501 85.5484 67.1613 85.5484ZM73.2903 73.2903H70.8387V54.4638C71.6007 53.5994 72.0645 52.466 72.0645 51.2258H73.2903V73.2903ZM85.5484 31.6129V47.5484C85.5484 48.2243 84.9985 48.7742 84.3226 48.7742H69.6129V51.2258C69.6129 52.5776 68.5131 53.6774 67.1613 53.6774C65.8095 53.6774 64.7097 52.5776 64.7097 51.2258V48.7742H50C49.3241 48.7742 48.7742 48.2243 48.7742 47.5484V31.6129H51.2258V46.3226H65.9355H68.3871H83.0968V31.6129H85.5484ZM63.4839 31.6129H56.129V29.1613H63.4839V31.6129ZM63.4839 36.5161H56.129V34.0645H63.4839V36.5161ZM63.4839 41.4194H56.129V38.9677H63.4839V41.4194ZM78.1936 29.1613H70.8387V36.5161H78.1936V29.1613ZM75.7419 34.0645H73.2903V31.6129H75.7419V34.0645ZM78.1936 41.4194H70.8387V38.9677H78.1936V41.4194Z" fill="url(#paint0_linear_991_6179)"></path>
  <defs>
    <linearGradient gradientUnits="userSpaceOnUse" id="paint0_linear_991_6179" x1="50" x2="50" y1="88" y2="12">
      <stop stop-color="#1CBBB4"></stop>
      <stop offset="1" stop-color="#107EFF"></stop>
    </linearGradient>
  </defs>
</svg>
