<svg fill="none" height="60" viewBox="0 0 60 60" width="60" xmlns="http://www.w3.org/2000/svg">
  <path d="M12.9355 39.7349C13.8644 40.3849 14.4194 41.451 14.4194 42.5847V42.7494C13.558 43.0566 12.9355 43.8727 12.9355 44.8387C12.9355 45.8158 13.5728 46.6394 14.4505 46.9376C14.7621 50.332 17.6223 53 21.0968 53C24.5713 53 27.4314 50.332 27.743 46.9376C28.6207 46.6394 29.2581 45.8158 29.2581 44.8387C29.2581 43.8727 28.6356 43.0566 27.7742 42.7494V42.5847C27.7742 41.451 28.3292 40.3849 29.2581 39.7349C32.9744 37.133 35.1935 32.8713 35.1935 28.3344C35.1935 28.1452 35.1728 27.9612 35.1654 27.7742H47.8065C50.6703 27.7742 53 25.4445 53 22.5806C53 19.7168 50.6703 17.3871 47.8065 17.3871C47.365 17.3871 46.9317 17.442 46.5103 17.5511C45.3833 14.7985 42.6619 12.9355 39.6452 12.9355C39.3157 12.9355 38.9915 12.9615 38.6717 13.003C36.9697 9.33858 33.3409 7 29.2581 7C24.592 7 20.5715 10.0635 19.2916 14.5225C12.382 15.3305 7 21.2118 7 28.3344C7 32.8713 9.21913 37.133 12.9355 39.7349ZM21.0968 51.5161C18.4859 51.5161 16.3246 49.5767 15.9626 47.0645H26.231C25.8689 49.5767 23.7076 51.5161 21.0968 51.5161ZM27.0323 45.5806H15.1613C14.7525 45.5806 14.4194 45.2483 14.4194 44.8387C14.4194 44.4292 14.7525 44.0968 15.1613 44.0968H27.0323C27.4411 44.0968 27.7742 44.4292 27.7742 44.8387C27.7742 45.2483 27.4411 45.5806 27.0323 45.5806ZM14.9817 31.1945C14.9484 31.1166 14.9157 31.038 14.8838 30.9571C14.6419 30.3346 14.1315 29.8553 13.4838 29.6431C13.1558 29.5355 12.9355 29.2306 12.9355 28.8856V28.1466C12.9355 27.8016 13.1558 27.4975 13.4838 27.3891C14.1315 27.1769 14.6419 26.6976 14.8838 26.0744C14.915 25.995 14.9476 25.9156 14.981 25.8385C15.2451 25.2301 15.2221 24.5349 14.9165 23.9302C14.7606 23.6223 14.82 23.2506 15.0641 23.0065L15.5864 22.4842C15.8313 22.2394 16.2007 22.18 16.5101 22.3365C17.1148 22.6422 17.8107 22.6652 18.4176 22.4011C18.4963 22.367 18.5757 22.3343 18.6551 22.3039C19.2775 22.0613 19.7568 21.5508 19.9698 20.9039C20.0774 20.5752 20.3823 20.3548 20.7273 20.3548H21.4663C21.8113 20.3548 22.1155 20.5752 22.2238 20.9039C22.4367 21.5508 22.9153 22.0613 23.5377 22.3032C23.6171 22.3343 23.6965 22.367 23.7744 22.4004C24.3821 22.6645 25.078 22.6415 25.6827 22.3358C25.9906 22.18 26.3623 22.2394 26.6064 22.4835L27.1287 23.0058C27.3728 23.2499 27.4322 23.6216 27.2764 23.9295C26.9707 24.5342 26.9477 25.2294 27.2118 25.837C27.2452 25.9149 27.2778 25.9943 27.3097 26.0752C27.5516 26.6976 28.0621 27.3891 28.7098 27.3891C29.0377 27.4967 29.2581 27.8016 29.2581 28.1466V28.8856C29.2581 29.2306 29.0377 29.5348 28.709 29.6431C28.0621 29.8553 27.5516 30.3346 27.309 30.9586C27.2778 31.038 27.2459 31.1166 27.2125 31.1938C26.9484 31.8022 26.9714 32.4981 27.2771 33.102C27.4329 33.4099 27.3735 33.7809 27.1287 34.025L26.6064 34.5481C26.3623 34.7907 25.9921 34.85 25.6827 34.695C25.0787 34.39 24.3835 34.3663 23.7752 34.6297C23.6965 34.6646 23.6164 34.6972 23.537 34.7284C22.9145 34.9702 22.436 35.4814 22.223 36.1284C22.1162 36.4571 21.8113 36.6774 21.4663 36.6774H20.7273C20.3823 36.6774 20.0781 36.4563 19.9698 36.1291C19.7576 35.4814 19.2783 34.971 18.6573 34.7298C18.5772 34.6979 18.497 34.6653 18.4184 34.6312C18.1379 34.5095 17.8389 34.4486 17.5385 34.4486C17.1875 34.4486 16.8358 34.531 16.5094 34.6957C16.2 34.8508 15.829 34.7914 15.5864 34.5488L15.0634 34.0257C14.8193 33.7816 14.7599 33.4107 14.9157 33.1028C15.2221 32.4981 15.2459 31.8029 14.9817 31.1945ZM21.8387 42.6129V38.1301C22.6675 37.9936 23.3649 37.4097 23.6335 36.5914C23.6772 36.4571 23.7596 36.3502 23.8583 36.2612L22.7031 42.6129H21.8387ZM18.3353 36.2612C18.4332 36.351 18.5163 36.4578 18.5601 36.5928C18.8287 37.4112 19.5261 37.9944 20.3548 38.1309V42.6129H19.4905L18.3353 36.2612ZM29.2581 8.48387C32.6576 8.48387 35.6906 10.3751 37.199 13.3628C35.3998 13.9875 33.8818 15.2785 32.9974 17.0562L34.3262 17.7173C35.3375 15.6829 37.3756 14.4194 39.6452 14.4194C42.2664 14.4194 44.6087 16.1777 45.3403 18.6959L45.5747 19.5009L46.3456 19.1707C46.8093 18.9719 47.3005 18.871 47.8065 18.871C49.852 18.871 51.5161 20.5351 51.5161 22.5806C51.5161 24.6262 49.852 26.2903 47.8065 26.2903H35.0259C34.163 20.4706 29.6988 15.8135 23.9681 14.6857C24.9593 12.7285 26.9692 11.4516 29.2581 11.4516V9.96774C26.2191 9.96774 23.5719 11.7684 22.4293 14.478C22.0487 14.4461 21.6666 14.4194 21.2785 14.4194H20.9157C20.9024 14.4194 20.8898 14.4216 20.8764 14.4216C22.1169 10.8833 25.4356 8.48387 29.2581 8.48387ZM20.915 15.9032H21.2778C28.1325 15.9032 33.7097 21.4804 33.7097 28.3344C33.7097 32.3868 31.7272 36.1944 28.4078 38.5189C27.082 39.4463 26.2903 40.9665 26.2903 42.5847V42.6129H24.2114L25.3837 36.1662C26.179 36.4081 27.0523 36.2004 27.6555 35.5979L28.1778 35.0748C28.8767 34.3767 29.0466 33.315 28.6007 32.4328C28.4946 32.2236 28.485 31.9869 28.5725 31.7844C28.6141 31.6886 28.6541 31.5915 28.692 31.4943C28.7721 31.2873 28.9479 31.1263 29.1727 31.0521C30.1113 30.7442 30.7419 29.8731 30.7419 28.8856V28.1466C30.7419 27.1591 30.1113 26.2881 29.172 25.9795C28.9479 25.906 28.7728 25.745 28.6927 25.5387C28.6549 25.4408 28.6155 25.3436 28.5733 25.2472C28.4857 25.0446 28.4961 24.8087 28.6015 24.5995C29.0474 23.718 28.8775 22.6556 28.1785 21.9574L27.6562 21.4351C26.9581 20.7362 25.8964 20.567 25.0142 21.0122C24.8057 21.1183 24.5698 21.1287 24.3657 21.0404C24.2708 20.9988 24.1736 20.9595 24.0764 20.9209C23.8694 20.8408 23.7076 20.665 23.6342 20.4402C23.3248 19.5016 22.4538 18.871 21.4663 18.871H20.7273C19.7398 18.871 18.8687 19.5016 18.5601 20.4409C18.4866 20.665 18.3256 20.8401 18.1179 20.9202C18.0207 20.958 17.9243 20.9974 17.8278 21.0396C17.626 21.1272 17.3893 21.1175 17.1801 21.0115C16.2979 20.5663 15.237 20.7355 14.5381 21.4344L14.0157 21.9567C13.3168 22.6548 13.1469 23.7173 13.5928 24.5987C13.6989 24.8079 13.7086 25.0439 13.621 25.2472C13.5795 25.3429 13.5394 25.4401 13.5016 25.5365C13.4215 25.7443 13.2456 25.9053 13.0208 25.9787C12.0823 26.2881 11.4516 27.1591 11.4516 28.1466V28.8856C11.4516 29.8731 12.0823 30.7442 13.0215 31.0528C13.2456 31.127 13.4207 31.2873 13.5008 31.4935C13.5387 31.5922 13.5787 31.6894 13.621 31.7858C13.7086 31.9876 13.6982 32.2243 13.5928 32.4335C13.1469 33.315 13.3168 34.3767 14.0157 35.0756L14.5388 35.5986C15.142 36.2018 16.0153 36.4096 16.8106 36.167L17.9821 42.6129H15.9032V42.5847C15.9032 40.9665 15.1116 39.4471 13.7865 38.5196C10.4663 36.1952 8.48387 32.3875 8.48387 28.3344C8.48387 21.4804 14.061 15.9032 20.915 15.9032ZM39.6452 17.3871V15.9032C42.1002 15.9032 44.0968 17.8998 44.0968 20.3548H42.6129C42.6129 18.7181 41.2819 17.3871 39.6452 17.3871ZM21.0968 33.7097C23.9606 33.7097 26.2903 31.3793 26.2903 28.5161C26.2903 25.6523 23.9606 23.3226 21.0968 23.3226C18.2329 23.3226 15.9032 25.6523 15.9032 28.5161C15.9032 31.3793 18.2329 33.7097 21.0968 33.7097ZM21.0968 24.8065C23.1423 24.8065 24.8065 26.4706 24.8065 28.5161C24.8065 30.5616 23.1423 32.2258 21.0968 32.2258C19.0513 32.2258 17.3871 30.5616 17.3871 28.5161C17.3871 26.4706 19.0513 24.8065 21.0968 24.8065ZM21.0968 30.7419C22.3239 30.7419 23.3226 29.7433 23.3226 28.5161C23.3226 27.289 22.3239 26.2903 21.0968 26.2903C19.8696 26.2903 18.871 27.289 18.871 28.5161C18.871 29.7433 19.8696 30.7419 21.0968 30.7419ZM21.0968 27.7742C21.5056 27.7742 21.8387 28.1073 21.8387 28.5161C21.8387 28.9249 21.5056 29.2581 21.0968 29.2581C20.688 29.2581 20.3548 28.9249 20.3548 28.5161C20.3548 28.1073 20.688 27.7742 21.0968 27.7742ZM44.0968 30.7419H42.6129V29.2581H44.0968V30.7419ZM42.6129 36.6774H40.3871V42.6129H46.3226V36.6774H44.0968V32.2258H42.6129V36.6774ZM44.8387 41.129H41.871V38.1613H44.8387V41.129ZM35.9355 44.0968H33.7097V50.0323H39.6452V44.0968H37.4194V32.2258H35.9355V44.0968ZM38.1613 48.5484H35.1935V45.5806H38.1613V48.5484ZM37.4194 30.7419H35.9355V29.2581H37.4194V30.7419ZM49.2903 44.0968H47.0645V50.0323H53V44.0968H50.7742V32.2258H49.2903V44.0968ZM51.5161 48.5484H48.5484V45.5806H51.5161V48.5484ZM50.7742 30.7419H49.2903V29.2581H50.7742V30.7419Z" fill="url(#paint0_linear_1010_2903)"></path>
  <defs>
    <linearGradient gradientUnits="userSpaceOnUse" id="paint0_linear_1010_2903" x1="30" x2="30" y1="53" y2="7">
      <stop stop-color="#0083C9" stop-opacity="0.8749"></stop>
      <stop offset="1" stop-color="#8FCDFF"></stop>
    </linearGradient>
  </defs>
</svg>
