<svg fill="none" height="60" viewBox="0 0 60 60" width="60" xmlns="http://www.w3.org/2000/svg">
  <path d="M36.4839 22.3333V15.5185H38.1936V22.3333H36.4839ZM43.3226 15.5185C44.2655 15.5185 45.0323 16.2826 45.0323 17.2222V20.6296C45.0323 21.5692 44.2655 22.3333 43.3226 22.3333H41.6129C40.67 22.3333 39.9032 21.5692 39.9032 20.6296V17.2222C39.9032 16.2826 40.67 15.5185 41.6129 15.5185H43.3226ZM43.3226 17.2222H41.6129V20.6296H43.3226V17.2222ZM48.4516 22.3333V15.5185H46.7419V22.3333H48.4516ZM50.1613 17.2222C50.1613 16.2826 50.9281 15.5185 51.871 15.5185H53.5806C54.5235 15.5185 55.2903 16.2826 55.2903 17.2222V20.6296C55.2903 21.5692 54.5235 22.3333 53.5806 22.3333H51.871C50.9281 22.3333 50.1613 21.5692 50.1613 20.6296V17.2222ZM51.871 20.6296H53.5806V17.2222H51.871V20.6296ZM15.1129 13.8148C13.699 13.8148 12.5484 12.6682 12.5484 11.2593C12.5484 9.8503 13.699 8.7037 15.1129 8.7037C16.5268 8.7037 17.6774 9.8503 17.6774 11.2593C17.6774 12.6682 16.5268 13.8148 15.1129 13.8148ZM15.1129 12.1111C15.5848 12.1111 15.9677 11.7295 15.9677 11.2593C15.9677 10.789 15.5848 10.4074 15.1129 10.4074C14.641 10.4074 14.2581 10.789 14.2581 11.2593C14.2581 11.7295 14.641 12.1111 15.1129 12.1111ZM4 30C4 32.898 4.54026 35.733 5.60539 38.4274L7.19624 37.8021C6.20976 35.3079 5.70968 32.6833 5.70968 30C5.70968 24.0975 8.08185 18.6082 12.3894 14.5414L11.214 13.3054C6.56195 17.6967 4 23.6256 4 30ZM18.6237 8.59978L19.2512 10.1851C21.7541 9.20204 24.3879 8.7037 27.0806 8.7037H57V7H27.0806C24.1725 7 21.3276 7.53837 18.6237 8.59978ZM48.4516 30C48.4516 35.9025 46.0794 41.3918 41.7719 45.4586L42.9473 46.6946C47.3916 42.5001 49.9288 36.9017 50.1459 30.8519H57V29.1481H48.4516V30ZM27.0806 53C29.9888 53 32.8337 52.4616 35.5376 51.4002L34.9101 49.8149C32.4071 50.798 29.7734 51.2963 27.0806 51.2963C21.1575 51.2963 15.6489 48.9324 11.5679 44.6399L10.3275 45.8112C14.7342 50.447 20.6839 53 27.0806 53ZM10.8387 41.9259C10.8387 43.3349 9.6881 44.4815 8.27419 44.4815C6.86029 44.4815 5.70968 43.3349 5.70968 41.9259C5.70968 40.517 6.86029 39.3704 8.27419 39.3704C9.6881 39.3704 10.8387 40.517 10.8387 41.9259ZM9.12903 41.9259C9.12903 41.4557 8.74606 41.0741 8.27419 41.0741C7.80232 41.0741 7.41935 41.4557 7.41935 41.9259C7.41935 42.3961 7.80232 42.7778 8.27419 42.7778C8.74606 42.7778 9.12903 42.3961 9.12903 41.9259ZM39.0484 46.1852C40.4623 46.1852 41.6129 47.3318 41.6129 48.7407C41.6129 50.1497 40.4623 51.2963 39.0484 51.2963C37.6345 51.2963 36.4839 50.1497 36.4839 48.7407C36.4839 47.3318 37.6345 46.1852 39.0484 46.1852ZM39.0484 47.8889C38.5765 47.8889 38.1936 48.2705 38.1936 48.7407C38.1936 49.211 38.5765 49.5926 39.0484 49.5926C39.5203 49.5926 39.9032 49.211 39.9032 48.7407C39.9032 48.2705 39.5203 47.8889 39.0484 47.8889ZM51.871 12.1111H50.1613V13.8148H51.871V12.1111ZM55.2903 12.1111H53.5806V13.8148H55.2903V12.1111ZM50.1613 25.7407H51.871V24.037H50.1613V25.7407ZM53.5806 25.7407H55.2903V24.037H53.5806V25.7407ZM9.12903 30C9.12903 20.1364 17.1825 12.1111 27.0806 12.1111H48.4516V13.8148H29.4075C31.9301 16.2221 36.1701 21.3954 36.4642 29.1481H43.3226V24.037H48.4516V25.7407H45.0323V30C45.0323 39.8636 36.9788 47.8889 27.0806 47.8889C17.1825 47.8889 9.12903 39.8636 9.12903 30ZM34.734 30.8519H19.4273C19.5384 33.4287 20.124 35.7057 20.9506 37.6667H33.2107C34.0365 35.7057 34.6229 33.4287 34.734 30.8519ZM35.0922 37.6667H41.3795C42.4891 35.6197 43.1499 33.3052 43.279 30.8519H36.4634C36.3668 33.4057 35.8436 35.6793 35.0922 37.6667ZM32.4054 39.3704H21.7559C23.6228 42.8774 26.0591 45.1161 27.0806 45.9543C28.1022 45.1161 30.5385 42.8774 32.4054 39.3704ZM17.6971 29.1481C17.7937 26.5943 18.3177 24.3207 19.0691 22.3333H12.7818C11.6722 24.3803 11.0114 26.6948 10.8823 29.1481H17.6971ZM10.8823 30.8519C11.0114 33.3052 11.6722 35.6197 12.7818 37.6667H19.0691C18.3177 35.6793 17.7945 33.4057 17.6971 30.8519H10.8823ZM24.5272 45.9654C23.1056 44.5709 21.2293 42.3629 19.7983 39.3704H13.8623C16.3387 42.8297 20.1411 45.2703 24.5272 45.9654ZM40.299 39.3704H34.363C32.932 42.3629 31.0556 44.5701 29.634 45.9654C34.0202 45.2703 37.8226 42.8297 40.299 39.3704ZM34.734 29.1481C34.6229 26.5713 34.0373 24.2943 33.2115 22.3333H20.9506C20.1248 24.2943 19.5384 26.5713 19.4273 29.1481H34.734ZM27.0806 14.0457C26.0591 14.8839 23.6228 17.1234 21.7559 20.6296H32.4054C30.5385 17.1226 28.1022 14.8839 27.0806 14.0457ZM13.8623 20.6296H19.7983C21.2293 17.6371 23.1056 15.4299 24.5272 14.0346C20.1411 14.7297 16.3387 17.1703 13.8623 20.6296ZM26.2258 27.4444H27.9355V25.7407H26.2258V27.4444ZM29.6452 25.7407V27.4444H31.3548V25.7407H29.6452ZM22.8065 27.4444H24.5161V25.7407H22.8065V27.4444ZM27.9355 32.5556H26.2258V34.2593H27.9355V32.5556ZM31.3548 32.5556H29.6452V34.2593H31.3548V32.5556ZM24.5161 34.2593V32.5556H22.8065V34.2593H24.5161Z" fill="url(#paint0_linear_1010_7)"></path>
  <defs>
    <linearGradient gradientUnits="userSpaceOnUse" id="paint0_linear_1010_7" x1="30.5" x2="30.5" y1="53" y2="7">
      <stop stop-color="#0083C9" stop-opacity="0.8749"></stop>
      <stop offset="1" stop-color="#8FCDFF"></stop>
    </linearGradient>
  </defs>
</svg>