<svg fill="none" height="60" viewBox="0 0 60 60" width="60" xmlns="http://www.w3.org/2000/svg">
  <path d="M44.0968 29.6491V25.5484C44.0968 23.7574 42.8199 22.2586 41.129 21.9136V13.3703L34.7588 7H9.96774V18.9459C8.27687 19.2909 7 20.7896 7 22.5806V40.3871C7 42.4326 8.66416 44.0968 10.7097 44.0968H29.6491C30.9719 49.208 35.6098 53 41.129 53C47.6744 53 53 47.6744 53 41.129C53 35.6098 49.208 30.9719 44.0968 29.6491ZM35.1935 9.53297L38.5961 12.9355H35.1935V9.53297ZM33.7097 8.48387V14.4194H39.6452V21.8387H22.2097L21.0968 20.3548C20.4001 19.4259 19.2902 18.871 18.129 18.871H11.4516V8.48387H33.7097ZM10.7097 20.3548H18.129C18.8257 20.3548 19.492 20.688 19.9097 21.2452L21.4677 23.3226H40.3871C41.3531 23.3226 42.1692 23.9451 42.4764 24.8065H8.48387V22.5806C8.48387 21.3535 9.48252 20.3548 10.7097 20.3548ZM10.7097 42.6129C9.48252 42.6129 8.48387 41.6143 8.48387 40.3871V26.2903H42.6129V29.3612C42.1255 29.2996 41.6328 29.2581 41.129 29.2581C34.5837 29.2581 29.2581 34.5837 29.2581 41.129C29.2581 41.6328 29.2996 42.1255 29.3612 42.6129H10.7097ZM41.129 51.5161C35.4013 51.5161 30.7419 46.8568 30.7419 41.129C30.7419 35.4013 35.4013 30.7419 41.129 30.7419C46.8568 30.7419 51.5161 35.4013 51.5161 41.129C51.5161 46.8568 46.8568 51.5161 41.129 51.5161ZM11.4516 23.3226H9.96774V21.8387H11.4516V23.3226ZM14.4194 23.3226H12.9355V21.8387H14.4194V23.3226ZM17.3871 23.3226H15.9032V21.8387H17.3871V23.3226ZM43.3548 35.9355C43.3548 34.7083 42.3562 33.7097 41.129 33.7097C39.9019 33.7097 38.9032 34.7083 38.9032 35.9355C38.9032 36.1966 38.9566 36.4445 39.0397 36.6774H34.4516V38.1613H35.9867L36.581 46.4814C36.6633 47.6403 37.639 48.5484 38.8008 48.5484H43.4565C44.6184 48.5484 45.594 47.6403 45.6771 46.4814L46.2714 38.1613H47.8065V36.6774H43.2183C43.3014 36.4445 43.3548 36.1966 43.3548 35.9355ZM40.3871 35.9355C40.3871 35.5259 40.7202 35.1935 41.129 35.1935C41.5378 35.1935 41.871 35.5259 41.871 35.9355C41.871 36.345 41.5378 36.6774 41.129 36.6774C40.7202 36.6774 40.3871 36.345 40.3871 35.9355ZM44.1969 46.3753C44.1695 46.7618 43.8445 47.0645 43.4572 47.0645H43.3548V39.6452H41.871V47.0645H40.3871V39.6452H38.9032V47.0645H38.8008C38.4135 47.0645 38.0886 46.7618 38.0604 46.3753L37.4743 38.1613H44.7838L44.1969 46.3753ZM18.871 36.6774H11.4516C10.6333 36.6774 9.96774 37.3429 9.96774 38.1613V39.6452C9.96774 40.4635 10.6333 41.129 11.4516 41.129H18.871C19.6893 41.129 20.3548 40.4635 20.3548 39.6452V38.1613C20.3548 37.3429 19.6893 36.6774 18.871 36.6774ZM11.4516 39.6452V38.1613H18.871L18.8717 39.6452H11.4516ZM14.4194 11.4516H12.9355V9.96774H14.4194V11.4516ZM32.2258 11.4516H15.9032V9.96774H32.2258V11.4516ZM32.2258 14.4194H12.9355V12.9355H32.2258V14.4194ZM38.1613 17.3871H12.9355V15.9032H38.1613V17.3871ZM23.3226 18.871H38.1613V20.3548H23.3226V18.871ZM11.4516 32.2258H9.96774V27.7742H14.4194V29.2581H11.4516V32.2258ZM11.4516 35.1935H9.96774V33.7097H11.4516V35.1935Z" fill="url(#paint0_linear_172_709)"></path>
  <defs>
    <linearGradient gradientUnits="userSpaceOnUse" id="paint0_linear_172_709" x1="30" x2="30" y1="53" y2="7">
      <stop stop-color="#0083C9" stop-opacity="0.8749"></stop>
      <stop offset="1" stop-color="#8FCDFF"></stop>
    </linearGradient>
  </defs>
</svg>
