<svg fill="none" height="60" viewBox="0 0 60 60" width="60" xmlns="http://www.w3.org/2000/svg">
  <path d="M49.2903 14.3987H44.0307C43.2309 11.9074 41.8546 9.62099 39.9523 7.71765C38.996 6.76078 37.3266 6.76078 36.3703 7.71765C34.4679 9.62099 33.0916 11.9074 32.2918 14.3987H10.7097C8.66416 14.3987 7 16.0637 7 18.1103V41.865C7 43.9116 8.66416 45.5767 10.7097 45.5767H22.5806V48.546H21.8387C19.7932 48.546 18.129 50.2111 18.129 52.2577V53H41.871V52.2577C41.871 50.2111 40.2068 48.546 38.1613 48.546H37.4194V45.5767H49.2903C51.3358 45.5767 53 43.9116 53 41.865V18.1103C53 16.0637 51.3358 14.3987 49.2903 14.3987ZM37.4194 8.76731C37.8163 8.37165 38.5063 8.37165 38.9032 8.76731C39.4782 9.34262 39.9865 9.96469 40.4554 10.6098C39.8025 11.1287 38.9989 11.4293 38.1613 11.4293C37.3244 11.4293 36.5209 11.1287 35.868 10.6098C36.3369 9.96469 36.8444 9.34262 37.4194 8.76731ZM32.9677 19.52C32.9677 16.783 33.7008 14.1648 35.0474 11.8636C35.9414 12.5369 37.0335 12.914 38.1613 12.914C39.289 12.914 40.3812 12.5369 41.2752 11.8636C42.6218 14.1648 43.3548 16.7838 43.3548 19.52V20.4962C43.3548 21.9578 43.1352 23.3965 42.7242 24.7906H33.5984C33.1874 23.3972 32.9677 21.9586 32.9677 20.4969V19.52ZM40.2602 51.5153H19.7398C20.0462 50.6513 20.8712 50.0307 21.8387 50.0307H38.1613C39.1288 50.0307 39.9538 50.6513 40.2602 51.5153ZM35.9355 48.546H24.0645V45.5767H35.9355V48.546ZM51.5161 41.865C51.5161 43.0928 50.5175 44.092 49.2903 44.092H10.7097C9.48252 44.092 8.48387 43.0928 8.48387 41.865V18.1103C8.48387 16.8825 9.48252 15.8833 10.7097 15.8833H31.8927C31.7844 16.3725 31.7013 16.8677 31.6375 17.368H11.4516C10.6333 17.368 9.96774 18.0339 9.96774 18.8527V41.1227C9.96774 41.9415 10.6333 42.6073 11.4516 42.6073H36.3065C36.7716 42.6073 37.2161 42.3846 37.4935 42.0127L39.2742 39.638H48.5484C49.3667 39.638 50.0323 38.9721 50.0323 38.1533V18.8527C50.0323 18.0339 49.3667 17.368 48.5484 17.368H44.6851C44.6213 16.8677 44.5382 16.3725 44.4299 15.8833H49.2903C50.5175 15.8833 51.5161 16.8825 51.5161 18.1103V41.865ZM48.5484 41.1227H50.0323V42.6073H48.5484V41.1227ZM42.6129 41.1227H47.0645V42.6073H42.6129V41.1227ZM39.6452 41.1227H41.129V42.6073H39.6452V41.1227ZM38.1613 21.822C40.2068 21.822 41.871 20.1569 41.871 18.1103C41.871 16.0637 40.2068 14.3987 38.1613 14.3987C36.1158 14.3987 34.4516 16.0637 34.4516 18.1103C34.4516 20.1569 36.1158 21.822 38.1613 21.822ZM38.1613 15.8833C39.3885 15.8833 40.3871 16.8825 40.3871 18.1103C40.3871 19.3381 39.3885 20.3373 38.1613 20.3373C36.9341 20.3373 35.9355 19.3381 35.9355 18.1103C35.9355 16.8825 36.9341 15.8833 38.1613 15.8833ZM37.4194 18.1103C37.4194 17.7006 37.7517 17.368 38.1613 17.368C38.5708 17.368 38.9032 17.7006 38.9032 18.1103C38.9032 18.5201 38.5708 18.8527 38.1613 18.8527C37.7517 18.8527 37.4194 18.5201 37.4194 18.1103ZM29.2581 30.73H12.9355V29.2453H29.2581V30.73ZM12.9355 24.7913H27.7742V23.3067H12.9355V24.7913ZM12.9355 27.7607H27.7742V26.276H12.9355V27.7607ZM27.7742 20.3373H15.9032V21.822H27.7742V20.3373ZM14.4194 21.822H12.9355V20.3373H14.4194V21.822ZM37.4194 29.2453H35.9355V27.7607H37.4194V29.2453ZM40.3871 29.2453H38.9032V27.7607H40.3871V29.2453ZM12.9355 33.6993H29.2581V32.2147H12.9355V33.6993ZM12.9355 36.6687H29.2581V35.184H12.9355V36.6687ZM12.9355 39.638H21.8387V38.1533H12.9355V39.638ZM23.3226 39.638H29.2581V38.1533H23.3226V39.638Z" fill="url(#paint0_linear_1010_6839)"></path>
  <defs>
    <linearGradient gradientUnits="userSpaceOnUse" id="paint0_linear_1010_6839" x1="30" x2="30" y1="53" y2="7">
      <stop stop-color="#0083C9" stop-opacity="0.8749"></stop>
      <stop offset="1" stop-color="#8FCDFF"></stop>
    </linearGradient>
  </defs>
</svg>
