<svg fill="none" height="46" viewBox="0 0 46 46" width="46" xmlns="http://www.w3.org/2000/svg">
  <path d="M41.5484 13.4135C41.5484 13.3942 41.5484 13.3749 41.5484 13.3548C41.5484 8.855 37.8869 5.19355 33.3871 5.19355C32.8848 5.19355 32.3885 5.25587 31.8988 5.34639C30.5225 2.20355 27.3863 0 23.7419 0C18.8325 0 14.8387 3.99384 14.8387 8.90323C14.8387 9.40255 14.8855 9.89816 14.9671 10.3871H3.70968C1.66416 10.3871 0 12.0513 0 14.0968V34.871C0 36.9165 1.66416 38.5806 3.70968 38.5806H13.3548V41.5484H12.6129C10.5674 41.5484 8.90323 43.2125 8.90323 45.2581V46H32.6452V45.2581C32.6452 43.2125 30.981 41.5484 28.9355 41.5484H28.1935V38.5806H37.8387C39.8842 38.5806 41.5484 36.9165 41.5484 34.871V23.6826C44.0613 23.3205 46 21.1593 46 18.5484C46 15.9464 44.0762 13.7852 41.5484 13.4135ZM31.0344 44.5161H10.514C10.8204 43.6525 11.6454 43.0323 12.6129 43.0323H28.9355C29.903 43.0323 30.728 43.6525 31.0344 44.5161ZM26.7097 41.5484H14.8387V38.5806H26.7097V41.5484ZM37.8387 37.0968H3.70968C2.48252 37.0968 1.48387 36.0981 1.48387 34.871V14.0968C1.48387 12.8696 2.48252 11.871 3.70968 11.871H11.3932C10.8686 12.2946 10.4086 12.7939 10.0325 13.3548H4.45161C3.63326 13.3548 2.96774 14.0204 2.96774 14.8387V34.129C2.96774 34.9474 3.63326 35.6129 4.45161 35.6129H24.8548C25.3193 35.6129 25.7637 35.3911 26.0419 35.0194L27.8226 32.6452H37.0968C37.9151 32.6452 38.5806 31.9796 38.5806 31.1613V23.7419H40.0645V34.871C40.0645 36.0981 39.0659 37.0968 37.8387 37.0968ZM9.29274 14.8387C9.04494 15.5361 8.90323 16.2833 8.90323 17.0645C8.90323 20.746 11.8992 23.7419 15.5806 23.7419H37.0968V31.1613H27.0806L24.8548 34.129H4.45161V14.8387H9.29274ZM40.8065 22.2581H15.5806C12.7168 22.2581 10.3871 19.9284 10.3871 17.0645C10.3871 14.2006 12.7168 11.871 15.5806 11.871C16.2543 11.871 16.9102 11.9978 17.5282 12.2479L18.0854 10.8723C17.5757 10.6661 17.0452 10.5325 16.5044 10.4576C16.3945 9.94787 16.3226 9.43 16.3226 8.90323C16.3226 4.81219 19.6509 1.48387 23.7419 1.48387C27.833 1.48387 31.1613 4.81219 31.1613 8.90323H32.6452C32.6452 8.16352 32.5443 7.44903 32.3736 6.76126C32.7082 6.71006 33.0458 6.67742 33.3871 6.67742C37.0686 6.67742 40.0645 9.67336 40.0645 13.3548C40.0645 13.5811 40.0526 13.8037 40.0304 14.0241L39.9859 14.8387H40.8065C42.852 14.8387 44.5161 16.5029 44.5161 18.5484C44.5161 20.5939 42.852 22.2581 40.8065 22.2581ZM37.0968 34.129H38.5806V35.6129H37.0968V34.129ZM31.1613 34.129H35.6129V35.6129H31.1613V34.129ZM28.1935 34.129H29.6774V35.6129H28.1935V34.129ZM28.9355 13.3548H30.4194V19.2903H28.9355V13.3548ZM13.3548 32.6452H11.871V26.7097H13.3548V32.6452ZM16.3226 32.6452H14.8387V26.7097H16.3226V32.6452ZM19.2903 32.6452H17.8065V26.7097H19.2903V32.6452ZM20.0323 13.3548H18.5484C17.73 13.3548 17.0645 14.0204 17.0645 14.8387V17.8065C17.0645 18.6248 17.73 19.2903 18.5484 19.2903H20.0323C20.8506 19.2903 21.5161 18.6248 21.5161 17.8065V14.8387C21.5161 14.0204 20.8506 13.3548 20.0323 13.3548ZM18.5484 17.8065V14.8387H20.0323L20.033 17.8065H18.5484ZM25.9677 13.3548H24.4839C23.6655 13.3548 23 14.0204 23 14.8387V17.8065C23 18.6248 23.6655 19.2903 24.4839 19.2903H25.9677C26.7861 19.2903 27.4516 18.6248 27.4516 17.8065V14.8387C27.4516 14.0204 26.7861 13.3548 25.9677 13.3548ZM24.4839 17.8065V14.8387H25.9677L25.9685 17.8065H24.4839ZM7.41935 32.6452H8.90323C9.72158 32.6452 10.3871 31.9796 10.3871 31.1613V28.1935C10.3871 27.3752 9.72158 26.7097 8.90323 26.7097H7.41935C6.601 26.7097 5.93548 27.3752 5.93548 28.1935V31.1613C5.93548 31.9796 6.601 32.6452 7.41935 32.6452ZM7.41935 28.1935H8.90323L8.90397 31.1613H7.41935V28.1935ZM34.871 13.3548H33.3871C32.5687 13.3548 31.9032 14.0204 31.9032 14.8387V17.8065C31.9032 18.6248 32.5687 19.2903 33.3871 19.2903H34.871C35.6893 19.2903 36.3548 18.6248 36.3548 17.8065V14.8387C36.3548 14.0204 35.6893 13.3548 34.871 13.3548ZM33.3871 17.8065V14.8387H34.871L34.8717 17.8065H33.3871ZM35.6129 29.6774H34.129V28.1935H35.6129V29.6774ZM32.6452 29.6774H31.1613V28.1935H32.6452V29.6774ZM29.6774 29.6774H28.1935V28.1935H29.6774V29.6774ZM29.6774 8.90323H28.1935C28.1935 6.44816 26.197 4.45161 23.7419 4.45161V2.96774C27.0146 2.96774 29.6774 5.63055 29.6774 8.90323ZM22.0466 3.21406L22.4695 4.63635C22.0162 4.77139 21.5888 4.9769 21.1986 5.24994L20.3491 4.03242C20.8699 3.66887 21.4412 3.39361 22.0466 3.21406ZM7.41935 17.8065H5.93548V16.3226H7.41935V17.8065ZM7.41935 20.7742H5.93548V19.2903H7.41935V20.7742ZM7.41935 23.7419H5.93548V22.2581H7.41935V23.7419Z" fill="url(#paint0_linear_1010_8485)"></path>
  <defs>
    <linearGradient gradientUnits="userSpaceOnUse" id="paint0_linear_1010_8485" x1="23" x2="23" y1="46" y2="0">
      <stop stop-color="#0083C9" stop-opacity="0.8749"></stop>
      <stop offset="1" stop-color="#8FCDFF"></stop>
    </linearGradient>
  </defs>
</svg>
