<svg fill="none" height="60" viewBox="0 0 60 60" width="60" xmlns="http://www.w3.org/2000/svg">
  <path d="M30 35.9355C33.2727 35.9355 35.9355 33.2727 35.9355 30C35.9355 26.7273 33.2727 24.0645 30 24.0645C26.7273 24.0645 24.0645 26.7273 24.0645 30C24.0645 33.2727 26.7273 35.9355 30 35.9355ZM30 25.5484C32.4551 25.5484 34.4516 27.5449 34.4516 30C34.4516 32.4551 32.4551 34.4516 30 34.4516C27.5449 34.4516 25.5484 32.4551 25.5484 30C25.5484 27.5449 27.5449 25.5484 30 25.5484ZM30 32.9677C31.6367 32.9677 32.9677 31.6367 32.9677 30C32.9677 28.3633 31.6367 27.0323 30 27.0323C28.3633 27.0323 27.0323 28.3633 27.0323 30C27.0323 31.6367 28.3633 32.9677 30 32.9677ZM30 28.5161C30.8184 28.5161 31.4839 29.1816 31.4839 30C31.4839 30.8184 30.8184 31.4839 30 31.4839C29.1816 31.4839 28.5161 30.8184 28.5161 30C28.5161 29.1816 29.1816 28.5161 30 28.5161ZM21.855 26.4216C21.8038 26.5381 21.7549 26.6546 21.7096 26.7711L20.3548 27.2489V32.7511L21.7096 33.2289C21.7556 33.3454 21.8038 33.4619 21.855 33.5784L21.2348 34.876L25.124 38.7652L26.4216 38.145C26.5374 38.1962 26.6539 38.2451 26.7711 38.2904L27.2489 39.6452H32.7511L33.2511 38.2904C33.3454 38.2444 33.4619 38.1962 33.2289 38.2904L33.2289 38.2904C33.3454 38.2444 33.4619 38.1962 33.5784 38.145L34.876 38.7652L38.7652 34.876L38.145 33.5784C38.1962 33.4626 38.2451 33.3461 38.2904 33.2289L39.6452 32.7511V27.2489L38.2904 26.7704C38.2444 26.6539 38.1962 26.5374 38.145 26.4209L38.7652 25.124L34.876 21.2333L33.5784 21.8535C33.4634 21.8024 33.3461 21.7541 33.2289 21.7081L32.7511 20.3548H27.2489L26.7711 21.7096C26.6539 21.7556 26.5374 21.8038 26.4216 21.855L25.124 21.2348L21.2348 25.1255L21.855 26.4216ZM22.988 27.5946C23.0844 27.3127 23.2031 27.0271 23.3419 26.7444L23.5006 26.4216L23.0265 25.4319L25.4319 23.0265L26.4224 23.4999L26.7459 23.3411C27.0241 23.2039 27.3105 23.0852 27.5961 22.9872L27.9359 22.8707L28.2995 21.8387H31.7005L32.0648 22.8715L32.4046 22.988C32.6903 23.0859 32.9766 23.2046 33.2549 23.3419L33.5784 23.5006L34.5688 23.0273L36.9742 25.4326L36.5001 26.4224L36.6589 26.7451C36.7976 27.0278 36.9163 27.3135 37.0128 27.5954L37.1285 27.9352L38.1613 28.2995V31.7005L37.1278 32.0648L37.012 32.4054C36.9156 32.6888 36.7961 32.9744 36.6581 33.2549L36.4994 33.5784L36.9734 34.5688L34.5681 36.9742L33.5776 36.5001L33.2541 36.6589C32.9737 36.7969 32.688 36.9163 32.4046 37.0128L32.0641 37.1285L31.7005 38.1613H28.2995L27.9352 37.1278L27.5946 37.012C27.3112 36.9156 27.0256 36.7961 26.7451 36.6581L26.4216 36.4994L25.4312 36.9734L23.0258 34.5681L23.4999 33.5776L23.3411 33.2541C23.2031 32.9737 23.0837 32.688 22.9872 32.4046L22.8715 32.0641L21.8387 31.7005V28.2995L22.8722 27.9352L22.988 27.5946ZM50.7742 7H41.871C40.6438 7 39.6452 7.99865 39.6452 9.22581V24.0645C39.6452 25.2917 40.6438 26.2903 41.871 26.2903H50.7742C52.0014 26.2903 53 25.2917 53 24.0645V9.22581C53 7.99865 52.0014 7 50.7742 7ZM51.5161 24.0645C51.5161 24.4733 51.1837 24.8065 50.7742 24.8065H41.871C41.4614 24.8065 41.129 24.4733 41.129 24.0645V9.22581C41.129 8.817 41.4614 8.48387 41.871 8.48387H50.7742C51.1837 8.48387 51.5161 8.817 51.5161 9.22581V24.0645ZM46.3226 18.871C45.0954 18.871 44.0968 19.8696 44.0968 21.0968C44.0968 22.3239 45.0954 23.3226 46.3226 23.3226C47.5497 23.3226 48.5484 22.3239 48.5484 21.0968C48.5484 19.8696 47.5497 18.871 46.3226 18.871ZM46.3226 21.8387C45.913 21.8387 45.5806 21.5056 45.5806 21.0968C45.5806 20.688 45.913 20.3548 46.3226 20.3548C47.0645 20.3548 47.0645 20.688 47.0645 21.0968C47.0645 21.5056 46.7321 21.8387 46.3226 21.8387ZM46.3226 9.96774C45.0954 9.96774 44.0968 10.9664 44.0968 12.1935V15.1613C44.0968 16.3885 45.0954 17.3871 46.3226 17.3871C47.5497 17.3871 48.5484 16.3885 48.5484 15.1613V12.1935C48.5484 10.9664 47.5497 9.96774 46.3226 9.96774ZM47.0645 15.1613C47.0645 15.5701 46.7321 15.9032 46.3226 15.9032C45.913 15.9032 45.5806 15.5701 45.5806 15.1613V12.1935C45.5806 11.7847 45.913 11.4516 46.3226 11.4516C46.7321 11.4516 47.0645 11.7847 47.0645 12.1935V15.1613ZM7 35.9355V50.7742C7 52.0014 7.99865 53 9.22581 53H18.129C19.3562 53 20.3548 52.0014 20.3548 50.7742V35.9355C20.3548 34.7083 19.3562 33.7097 18.129 33.7097H9.22581C7.99865 33.7097 7 34.7083 7 35.9355ZM18.871 35.9355V50.7742C18.871 51.1837 18.5386 51.5161 18.129 51.5161H9.22581C8.81626 51.5161 8.48387 51.1837 8.48387 50.7742V35.9355C8.48387 35.5259 8.81626 35.1935 9.22581 35.1935H18.129C18.5386 35.1935 18.871 35.5259 18.871 35.9355ZM13.6774 50.0323C14.9046 50.0323 15.9032 49.0336 15.9032 47.8065C15.9032 46.5793 14.9046 45.5806 13.6774 45.5806C12.4503 45.5806 11.4516 46.5793 11.4516 47.8065C11.4516 49.0336 12.4503 50.0323 13.6774 50.0323ZM13.6774 47.0645C14.087 47.0645 14.4194 47.3969 14.4194 47.8065C14.4194 48.216 14.087 48.5484 13.6774 48.5484C13.2679 48.5484 12.9355 48.216 12.9355 47.8065C12.9355 47.3969 13.2679 47.0645 13.6774 47.0645ZM13.6774 44.0968C14.9046 44.0968 15.9032 43.0981 15.9032 41.871V38.9032C15.9032 37.6761 14.9046 36.6774 13.6774 36.6774C12.4503 36.6774 11.4516 37.6761 11.4516 38.9032V41.871C11.4516 43.0981 12.4503 44.0968 13.6774 44.0968ZM12.9355 38.9032C12.9355 38.4937 13.2679 38.1613 13.6774 38.1613C14.087 38.1613 14.4194 38.4937 14.4194 38.9032V41.871C14.4194 42.2805 14.087 42.6129 13.6774 42.6129C13.2679 42.6129 12.9355 42.2805 12.9355 41.871V38.9032ZM50.7742 38.1613H40.3871C39.1599 38.1613 38.1613 39.1599 38.1613 40.3871V41.871C38.1613 42.443 38.3846 42.9601 38.74 43.3548C38.3839 43.7495 38.1613 44.2667 38.1613 44.8387V46.3226C38.1613 46.8946 38.3846 47.4117 38.74 47.8065C38.3839 48.2012 38.1613 48.7183 38.1613 49.2903V50.7742C38.1613 52.0014 39.1599 53 40.3871 53H50.7742C52.0014 53 53 52.0014 53 50.7742V49.2903C53 48.7183 52.7767 48.2012 52.4213 47.8065C52.7774 47.4117 53 46.8946 53 46.3226V44.8387C53 44.2667 52.7767 43.7495 52.4213 43.3548C52.7774 42.9601 53 42.443 53 41.871V40.3871C53 39.1599 52.0014 38.1613 50.7742 38.1613ZM39.6452 40.3871C39.6452 39.9776 39.9776 39.6452 40.3871 39.6452H50.7742C51.1837 39.6452 51.5161 39.9776 51.5161 40.3871V41.871C51.5161 42.2805 51.1837 42.6129 50.7742 42.6129H40.3871C39.9776 42.6129 39.6452 42.2805 39.6452 41.871V40.3871ZM51.5161 44.8387V46.3226C51.5161 46.7321 51.1837 47.0645 50.7742 47.0645H40.3871C39.9776 47.0645 39.6452 46.7321 39.6452 46.3226V44.8387C39.6452 44.4292 39.9776 44.0968 40.3871 44.0968H50.7742C51.1837 44.0968 51.5161 44.4292 51.5161 44.8387ZM51.5161 50.7742C51.5161 51.1837 51.1837 51.5161 50.7742 51.5161H40.3871C39.9776 51.5161 39.6452 51.1837 39.6452 50.7742V49.2903C39.6452 48.8808 39.9776 48.5484 40.3871 48.5484H50.7742C51.1837 48.5484 51.5161 48.8808 51.5161 49.2903V50.7742ZM19.6129 7H9.22581C7.99865 7 7 7.99865 7 9.22581V10.7097C7 11.2817 7.22332 11.7988 7.57871 12.1935C7.22332 12.5883 7 13.1054 7 13.6774V15.1613C7 15.7333 7.22332 16.2505 7.57871 16.6452C7.22332 17.0399 7 17.557 7 18.129V19.6129C7 20.8401 7.99865 21.8387 9.22581 21.8387H19.6129C20.8401 21.8387 21.8387 20.8401 21.8387 19.6129V18.129C21.8387 17.557 21.6154 17.0399 21.26 16.6452C21.6161 16.2505 21.8387 15.7333 21.8387 15.1613V13.6774C21.8387 13.1054 21.6154 12.5883 21.26 12.1935C21.6154 11.7988 21.8387 11.2817 21.8387 10.7097V9.22581C21.8387 7.99865 20.8401 7 19.6129 7ZM8.48387 9.22581C8.48387 8.817 8.81626 8.48387 9.22581 8.48387H19.6129C20.0225 8.48387 20.3548 8.817 20.3548 9.22581V10.7097C20.3548 11.1185 20.0225 11.4516 19.6129 11.4516H9.22581C8.81626 11.4516 8.48387 11.1185 8.48387 10.7097V9.22581ZM20.3548 13.6774V15.1613C20.3548 15.5701 20.0225 15.9032 19.6129 15.9032H9.22581C8.81626 15.9032 8.48387 15.5701 8.48387 15.1613V13.6774C8.48387 13.2686 8.81626 12.9355 9.22581 12.9355H19.6129C20.0225 12.9355 20.3548 13.2686 20.3548 13.6774ZM20.3548 19.6129C20.3548 20.0217 20.0225 20.3548 19.6129 20.3548H9.22581C8.81626 20.3548 8.48387 20.0217 8.48387 19.6129V18.129C8.48387 17.7202 8.81626 17.3871 9.22581 17.3871H19.6129C20.0225 17.3871 20.3548 17.7202 20.3548 18.129V19.6129ZM23.3226 13.6774H35.6283L33.9271 11.9762L34.9762 10.9271L38.4685 14.4194L34.9762 17.9116L33.9271 16.8625L35.6283 15.1613H23.3226V13.6774ZM36.6774 46.3226H24.3717L26.0729 48.0238L25.0238 49.0729L21.5315 45.5806L25.0238 42.0884L26.0729 43.1375L24.3717 44.8387H36.6774V46.3226ZM47.0645 30.7419H41.129V29.2581H45.5806V27.7742H47.0645V30.7419ZM41.129 32.2258H46.3226V36.6774H44.8387V33.7097H41.129V32.2258ZM13.6774 23.3226V26.2903H18.871V27.7742H12.1935V23.3226H13.6774ZM12.9355 32.2258V29.2581H18.871V30.7419H14.4194V32.2258H12.9355Z" fill="url(#paint0_linear_1010_5853)"></path>
  <defs>
    <linearGradient gradientUnits="userSpaceOnUse" id="paint0_linear_1010_5853" x1="30.5" x2="30.5" y1="53" y2="7">
      <stop stop-color="#0083C9" stop-opacity="0.8749"></stop>
      <stop offset="1" stop-color="#8FCDFF"></stop>
    </linearGradient>
  </defs>
</svg>
