<svg fill="none" height="111" viewBox="0 0 420 111" width="420" xmlns="http://www.w3.org/2000/svg">
  <path d="M294.388 6.03697L299.133 10.7322C302.444 14.0139 304.312 18.4784 304.312 23.1448V88.4964C304.312 93.0979 302.494 97.5119 299.263 100.779L294.727 105.366C291.445 108.684 286.98 110.545 282.314 110.545H203.36V0.988281H282.105C286.706 0.988281 291.12 2.7986 294.388 6.03697ZM226.367 87.3857H278.333L280.684 85.0345V26.1884L278.65 24.1545H226.367V87.3857Z" fill="#6FCBDC"/>
  <path d="M111.764 77.129H174.209C177.252 77.129 180.108 75.9606 182.272 73.7969C184.414 71.6548 185.604 68.7987 185.604 65.7334L185.583 35.9317C185.583 29.6497 180.469 24.5361 174.187 24.5361H103.477C97.1946 24.5361 92.0811 29.6497 92.0811 35.9317V98.6652C92.0811 104.947 97.1946 110.061 103.477 110.061H174.209C180.491 110.061 185.604 104.947 185.604 98.6652V90.2195H111.764V77.129ZM111.764 44.3775H165.871V57.3093H111.764V44.3775Z" fill="#FAAF4D"/>
  <path d="M78.9109 91.5687V110.494L27.7461 110.545C21.4785 110.545 15.3264 108.395 10.4363 104.472C3.88027 99.1923 0.0937648 91.3523 0.0937648 82.9427L0 0H20.952L21.0746 83.0653C21.0746 85.669 22.2286 88.1068 24.2337 89.7224C25.7555 90.9485 27.6812 91.6481 29.6574 91.6481L78.9109 91.5687Z" fill="#FAAF4D"/>
  <path d="M408.374 8.14983L408.612 8.38785C413.199 12.9749 415.774 19.1921 415.774 25.676V33.9053C415.774 40.3893 413.199 46.6064 408.612 51.1935L408.417 51.3882L412.838 55.8094C417.425 60.3965 420 66.6136 420 73.0976V86.1015C420 92.6288 417.389 98.8892 412.745 103.483C408.165 108.013 401.991 110.552 395.55 110.552H319.358V0.995132H391.086C397.57 0.98792 403.787 3.56274 408.374 8.14983ZM342.366 44.0244H390.256L392.608 41.6731V26.491L390.256 24.1398H342.366V44.0244ZM342.366 87.3854H394.331L396.683 85.0341V69.5347L394.649 67.5008H342.373V87.3854H342.366Z" fill="#6FCBDC"/>
</svg>
