<svg fill="none" height="102" viewBox="0 0 420 102" width="420" xmlns="http://www.w3.org/2000/svg">
  <path d="M193.756 7.60324C198.041 3.31746 203.853 0.90918 209.917 0.90918H281.216L270.847 22.0727H210.527L208.225 24.3748V78.2191L210.527 80.3819H256.019L258.321 78.2191V61.9517H225.355L225.766 40.7882H269.719C275.351 40.7882 279.916 45.3526 279.916 50.9852V78.6105C279.916 84.6278 277.541 90.4064 273.308 94.6855L273.096 94.9044C268.803 99.2433 262.952 101.685 256.848 101.685H210.063C203.919 101.685 198.028 99.2101 193.729 94.8182L193.583 94.6722C189.403 90.3997 187.062 84.661 187.062 78.6835V23.7645C187.055 17.7007 189.463 11.889 193.756 7.60324Z" fill="#298C43"/>
  <path d="M318.415 0.90918H337.914C343.838 0.90918 349.524 3.21794 353.77 7.35113L357.803 11.2786L361.837 7.35113C366.083 3.22458 371.769 0.90918 377.693 0.90918H397.264C403.335 0.90918 409.153 3.33738 413.426 7.65633C417.638 11.9156 420 17.6609 420 23.6451V101.691H398.837V24.3748L396.535 22.2121H374.94L368.604 28.5478V101.685H347.295V28.4085C346.24 27.3536 345.251 26.3187 344.342 25.3103C343.427 24.3019 342.398 23.2736 341.244 22.2121H319.072L316.77 24.3748V101.685H295.606V23.7114C295.606 17.6808 298.001 11.9023 302.267 7.6364L302.34 7.56344C306.606 3.30419 312.385 0.90918 318.415 0.90918Z" fill="#298C43"/>
  <path d="M102.805 70.9469H160.239C163.038 70.9469 165.665 69.8721 167.656 67.8818C169.626 65.9114 170.721 63.2842 170.721 60.4646L170.701 33.0516C170.701 27.2731 165.997 22.5693 160.219 22.5693H95.1756C89.3971 22.5693 84.6934 27.2731 84.6934 33.0516V90.757C84.6934 96.5355 89.3971 101.239 95.1756 101.239H160.239C166.017 101.239 170.721 96.5355 170.721 90.757V82.9882H102.805V70.9469ZM102.805 40.8204H152.576V52.7158H102.805V40.8204Z" fill="#FAAF4D"/>
  <path d="M72.5863 84.2295V101.638L25.5223 101.684C19.757 101.684 14.098 99.7074 9.59988 96.0984C3.56927 91.242 0.0862496 84.0305 0.0862496 76.2948L0 0H19.2727L19.3855 76.4076C19.3855 78.8026 20.447 81.045 22.2914 82.5311C23.6912 83.659 25.4626 84.3025 27.2804 84.3025L72.5863 84.2295Z" fill="#FAAF4D"/>
</svg>
