<svg fill="none" height="110" viewBox="0 0 420 110" width="420" xmlns="http://www.w3.org/2000/svg">
  <path d="M408.493 8.05976L408.729 8.29534C413.269 12.8353 415.817 18.9886 415.817 25.406V33.5509C415.817 39.9683 413.269 46.1215 408.493 50.6615L408.536 50.8543L412.912 55.2301C417.452 59.7701 420 65.9233 420 72.3407V85.2112C420 91.6714 417.416 97.8675 412.819 102.415C408.286 106.898 402.176 109.41 395.801 109.41H320.392V0.978516H391.383C397.8 0.978516 403.96 3.5269 408.493 8.05976ZM343.163 43.5731H390.562L392.889 41.246V26.2198L390.562 23.8926H343.163V43.5731ZM343.163 86.4818H394.595L396.922 84.1547V68.8144L394.909 66.8013H343.17V86.4818H343.163Z" fill="#6E6F6F"/>
  <path d="M277.483 86.6376L280.117 83.8464V69.1271L277.79 66.6501H228.128C221.554 66.6501 215.25 64.0018 210.653 59.3047L210.268 58.9121C205.792 54.3436 203.286 48.1975 203.286 41.7943V25.4261C203.286 18.9873 205.828 12.8054 210.361 8.2226C214.958 3.57552 221.218 0.962891 227.75 0.962891H304.908L293.444 23.7343H228.692L226.365 26.2113V41.2518L226.365 43.7288H278.511C284.999 43.7288 291.224 46.3058 295.807 50.8958L296.035 51.1242C300.625 55.7142 303.202 61.9317 303.202 68.4204V84.7959C303.202 91.3275 300.59 97.5878 295.942 102.185L295.785 102.342C291.203 106.875 285.021 109.416 278.582 109.416H201.273L212.738 86.6447H277.483V86.6376Z" fill="#6E6F6F"/>
  <path d="M110.616 76.3372H172.42C175.433 76.3372 178.259 75.1808 180.401 73.0392C182.521 70.9192 183.699 68.0923 183.699 65.0585L183.678 35.5628C183.678 29.3453 178.616 24.2842 172.399 24.2842H102.414C96.1968 24.2842 91.1357 29.3453 91.1357 35.5628V97.6523C91.1357 103.87 96.1968 108.931 102.414 108.931H172.42C178.638 108.931 183.699 103.87 183.699 97.6523V89.2933H110.616V76.3372ZM110.616 43.9218H164.168V56.7209H110.616V43.9218Z" fill="#FAAF4D"/>
  <path d="M78.1009 90.6286V109.36L27.4613 109.41C21.2581 109.41 15.169 107.282 10.3292 103.399C3.84044 98.1739 0.0928022 90.4145 0.0928022 82.0912L0 0H20.7369L20.8583 82.2125C20.8583 84.7895 22.0004 87.2022 23.9849 88.8012C25.4911 90.0147 27.397 90.7072 29.353 90.7072L78.1009 90.6286Z" fill="#FAAF4D"/>
</svg>
