<svg fill="none" height="112" viewBox="0 0 420 112" width="420" xmlns="http://www.w3.org/2000/svg">
  <path d="M112.743 77.8048H175.735C178.806 77.8048 181.687 76.6262 183.869 74.4435C186.03 72.2826 187.231 69.4015 187.231 66.3093L187.209 36.2465C187.209 29.9094 182.05 24.751 175.713 24.751H104.383C98.0461 24.751 92.8877 29.9094 92.8877 36.2465V99.5298C92.8877 105.867 98.0461 111.025 104.383 111.025H175.735C182.072 111.025 187.231 105.867 187.231 99.5298V91.01H112.743V77.8048ZM112.743 44.7662H167.325V57.8114H112.743V44.7662Z" fill="#FAAF4D"/>
  <path d="M79.6026 92.3713V111.463L27.9893 111.514C21.6668 111.514 15.4607 109.345 10.5278 105.387C3.91429 100.062 0.0945867 92.1531 0.0945867 83.6697L0 0H21.1357L21.2594 83.7934C21.2594 86.4199 22.4235 88.879 24.4461 90.5088C25.9813 91.7456 27.9239 92.4514 29.9174 92.4514L79.6026 92.3713Z" fill="#FAAF4D"/>
  <path d="M275.957 88.3045L278.642 85.4597V70.4574L276.27 67.9327H225.646C218.945 67.9327 212.521 65.2335 207.836 60.4461L207.443 60.0459C202.881 55.3895 200.327 49.1252 200.327 42.599V25.916C200.327 19.3534 202.917 13.0527 207.537 8.38176C212.223 3.64533 218.603 0.982422 225.261 0.982422H303.903L292.218 24.199H226.221L223.849 26.7236V42.0388L226.221 44.5634H276.998C283.611 44.5634 289.956 47.1899 294.626 51.8681L294.859 52.101C299.538 56.7792 302.164 63.1163 302.164 69.7298V86.4128C302.164 93.07 299.501 99.4508 294.765 104.136L294.605 104.296C289.934 108.916 283.633 111.506 277.07 111.506H198.275L209.96 88.2972H275.957V88.3045Z" fill="#038181"/>
  <path d="M321.568 10.3899L325.671 6.28646C329.054 2.89602 333.653 0.99707 338.44 0.99707H419.847L408.322 24.2063H342.325L339.8 26.7309V85.7799L342.325 88.3046H408.635L420 111.514H338.76C333.973 111.514 329.374 109.608 325.991 106.224L321.568 101.801C318.185 98.4177 316.278 93.8195 316.278 89.0321V23.1586C316.278 18.3713 318.185 13.773 321.568 10.3899Z" fill="#038181"/>
</svg>
