<svg fill="none" height="109" viewBox="0 0 420 109" width="420" xmlns="http://www.w3.org/2000/svg">
  <path d="M276.158 86.224L278.78 83.4462V68.7971L276.464 66.3319H227.032C220.489 66.3319 214.216 63.6962 209.641 59.0216L209.257 58.6309C204.803 54.0841 202.309 47.9673 202.309 41.5947V25.3045C202.309 18.8964 204.838 12.7441 209.349 8.18313C213.925 3.55822 220.155 0.958008 226.656 0.958008H303.446L292.037 23.6208H227.593L225.277 26.086V41.0406L225.277 43.5058H277.174C283.632 43.5058 289.827 46.0704 294.388 50.6385L294.615 50.8658C299.184 55.4339 301.748 61.6218 301.748 68.0796V84.3698C301.748 90.8702 299.148 97.1007 294.523 101.676L294.367 101.832C289.806 106.343 283.653 108.873 277.245 108.873H200.306L211.715 86.2098H276.158V86.224Z" fill="#F78E20"/>
  <path d="M419.843 0.96582L408.739 23.6286H341.525V43.5207H384.073V66.3397H341.525V86.2318H408.895L420 108.895H330.727C324.177 108.895 318.87 103.588 318.87 97.0375V12.83C318.87 6.27986 324.177 0.972932 330.727 0.972932H419.843V0.96582Z" fill="#F78E20"/>
  <path d="M110.089 75.9746H171.598C174.596 75.9746 177.409 74.8237 179.541 72.6924C181.651 70.5824 182.823 67.7691 182.823 64.7498L182.801 35.3947C182.801 29.2069 177.765 24.1699 171.577 24.1699H101.926C95.7381 24.1699 90.7012 29.2069 90.7012 35.3947V97.188C90.7012 103.376 95.7381 108.413 101.926 108.413H171.598C177.786 108.413 182.823 103.376 182.823 97.188V88.8618H110.089V75.9746ZM110.089 43.7068H163.385V56.4448H110.089V43.7068Z" fill="#FAAF4D"/>
  <path d="M77.7283 90.1964V108.838L27.3303 108.888C21.1567 108.888 15.0967 106.771 10.2799 102.906C3.82212 97.7056 0.0923596 89.9832 0.0923596 81.6996L0 0H20.638L20.7588 81.8204C20.7588 84.385 21.8955 86.7863 23.8705 88.3777C25.3695 89.5854 27.2664 90.2745 29.2129 90.2745L77.7283 90.1964Z" fill="#FAAF4D"/>
</svg>
