<svg fill="none" height="102" viewBox="0 0 420 102" width="420" xmlns="http://www.w3.org/2000/svg">
  <path d="M256.573 80.1097L259.008 77.5289V63.9188L256.857 61.6284H206.535C203.268 61.6284 200.139 60.3149 197.849 57.9784L191.426 51.4241C189.202 49.1536 187.955 46.0976 187.955 42.9227V19.2205C187.955 16.0193 189.215 12.9501 191.466 10.673L197.565 4.50816C199.849 2.198 202.957 0.904297 206.205 0.904297H281.919L271.318 21.9597H211.446L209.294 24.2501V38.144L211.446 40.4344H261.84C265.061 40.4344 268.157 41.7149 270.434 43.992L276.777 50.3351C279.054 52.6122 280.334 55.7078 280.334 58.9288V82.7697C280.334 86.0171 279.034 89.1259 276.731 91.4097L270.427 97.6471C268.15 99.8978 265.081 101.159 261.88 101.159H186.106L196.707 80.1031H256.573V80.1031Z" fill="#7DC35A"/>
  <path d="M314.439 0.448242H342.748C345.811 0.448242 348.748 1.64291 350.946 3.77485L358.12 10.7581L365.295 3.77485C367.486 1.64291 370.43 0.448242 373.493 0.448242H401.914C405.056 0.448242 408.066 1.70235 410.271 3.9333L416.6 10.3291C418.779 12.5271 420 15.5039 420 18.5995V100.709H398.944V23.794L396.654 21.6423H375.169L368.604 28.5478V100.709H347.665V27.8071C346.616 26.7576 345.632 25.728 344.728 24.7247C343.817 23.7214 342.794 22.6983 341.646 21.6423H319.587L317.297 23.794V100.709H296.241V18.6391C296.241 15.5237 297.482 12.5337 299.687 10.3291L306.122 3.8937C308.333 1.68915 311.323 0.448242 314.439 0.448242Z" fill="#7DC35A"/>
  <path d="M102.281 70.5855H159.428C162.213 70.5855 164.827 69.5163 166.807 67.5361C168.767 65.5758 169.856 62.962 169.856 60.1568L169.837 32.8838C169.837 27.1348 165.157 22.4551 159.408 22.4551H94.6904C88.9414 22.4551 84.2617 27.1348 84.2617 32.8838V90.2945C84.2617 96.0435 88.9414 100.723 94.6904 100.723H159.421C165.17 100.723 169.85 96.0435 169.85 90.2945V82.5653H102.281V70.5855ZM102.281 40.6129H151.798V52.4475H102.281V40.6129Z" fill="#FAAF4D"/>
  <path d="M72.2155 83.7993V101.119L25.3919 101.165C19.6561 101.165 14.026 99.1981 9.55085 95.6075C3.55104 90.776 0.0858091 83.6013 0.0858091 75.9052L0 0H19.1743L19.2865 76.0174C19.2865 78.4001 20.3426 80.6311 22.1775 82.1096C23.5702 83.2317 25.3325 83.8719 27.141 83.8719L72.2155 83.7993Z" fill="#FAAF4D"/>
</svg>
