<svg fill="none" height="100" viewBox="0 0 100 100" width="100" xmlns="http://www.w3.org/2000/svg">
                    <g clip-path="url(#clip0_673_8322)">
                      <path d="M53.9257 80.5004C53.514 80.5004 53.1023 80.5004 52.685 80.5004C52.3185 80.5004 52.1662 80.3601 52.1605 79.9953C52.1493 79.4341 52.1549 78.8728 52.1605 78.3116C52.1605 78.1713 52.1154 78.1151 51.9801 78.0815C50.0119 77.5876 48.3427 76.6054 46.9836 75.1069C46.9046 75.0171 46.8144 74.9329 46.7354 74.8375C46.4986 74.5456 46.5042 74.3436 46.7749 74.0798C47.1245 73.7318 47.4911 73.3951 47.852 73.0527C48.2186 72.7047 48.5852 72.3624 48.9461 72.02C49.3578 71.6271 49.5721 71.6215 50.0119 71.9863C50.559 72.4409 51.0778 72.918 51.6925 73.2828C52.6625 73.8609 53.6888 74.1415 54.828 73.917C55.7416 73.7374 56.2435 73.165 56.2604 72.2894C56.2661 71.9639 56.142 71.7001 55.9108 71.4812C55.4427 71.0322 54.8731 70.7628 54.2697 70.5496C53.0572 70.1286 51.8504 69.7021 50.7225 69.0735C49.7074 68.5122 48.7938 67.8331 48.1622 66.8453C46.5155 64.2524 47.4573 61.0084 50.2488 59.667C50.7733 59.4144 51.3203 59.218 51.8899 59.1058C52.1154 59.0609 52.1662 58.9711 52.1605 58.7578C52.1436 58.2807 52.1493 57.7981 52.1605 57.321C52.1605 56.9057 52.3523 56.7261 52.7696 56.7261C53.5253 56.7261 54.281 56.7261 55.0423 56.7261C55.4991 56.7261 55.7359 56.9674 55.7359 57.4108C55.7359 57.8542 55.7472 58.2919 55.7359 58.7297C55.7303 58.9149 55.7811 58.9879 55.9728 59.0272C57.5688 59.3415 58.9673 60.0599 60.1685 61.1487C60.7832 61.7099 60.7832 61.9906 60.2136 62.5855C59.6159 63.2141 59.0237 63.8483 58.426 64.4769C58.0763 64.8473 57.8338 64.8641 57.4391 64.5442C56.9823 64.1738 56.5367 63.7922 56.0179 63.5059C55.1833 63.0457 54.3148 62.9054 53.3843 63.1411C53.17 63.1972 52.9613 63.2814 52.7809 63.4105C52.2113 63.8202 52.138 64.606 52.6286 65.1055C52.9444 65.431 53.3448 65.6274 53.7621 65.7734C54.687 66.1101 55.6232 66.4188 56.548 66.7555C57.58 67.1372 58.5951 67.5637 59.4749 68.2428C60.6535 69.1464 61.2739 70.3251 61.3585 71.8067C61.5107 74.5905 59.864 76.5886 57.7154 77.5483C57.1571 77.8008 56.5762 77.9861 55.9728 78.0983C55.8036 78.132 55.7303 78.1881 55.7359 78.3733C55.7529 78.884 55.7416 79.3892 55.7359 79.8999C55.7359 80.3377 55.578 80.4892 55.1438 80.4892C54.7378 80.4892 54.3317 80.4892 53.9257 80.4892V80.5004Z" fill="url(#paint0_linear_673_8322)">
                      </path>
                      <path d="M46.9321 13.353C65.5648 13.353 80.9266 27.2719 83.0977 45.2318H87.536L81.3213 53.3586L74.4582 45.3721L78.9471 45.2879C76.8267 29.3654 63.1793 17.3042 46.5938 17.3042V13.3643L46.9321 13.353Z" fill="#A3DEFF">
                      </path>
                      <path d="M46.3012 45.7818C46.4253 47.2074 46.4422 48.6386 46.352 50.0641C46.3238 50.5187 46.7637 50.906 47.1979 50.906H56.1307C57.2191 50.906 57.2191 49.2222 56.1307 49.2222H47.1979L48.0438 50.0641C48.134 48.6386 48.1228 47.2074 47.993 45.7818C47.9536 45.3272 47.6321 44.9399 47.1471 44.9399C46.7185 44.9399 46.2617 45.3272 46.3012 45.7818Z" fill="white">
                      </path>
                      <path d="M62.0125 35.6119C62.5482 34.0292 63.2024 32.497 63.9525 31.0041C64.1273 30.6617 64.0934 30.2689 63.8228 29.9826C61.8433 27.9285 58.7698 25.9192 55.7978 26.1662C55.014 26.2335 53.7959 26.3794 53.4688 27.1932C53.3447 27.5019 53.2714 27.8387 53.1755 28.1586L51.9123 32.3286C51.5908 33.3838 51.275 34.4389 50.9536 35.4884H52.5834C51.7431 33.0583 50.9028 30.6281 50.0626 28.1979C49.9328 27.8162 49.6396 27.6142 49.2448 27.5805C47.7617 27.4458 46.1262 27.7825 44.8235 28.4785C43.7182 29.0678 42.8215 30.0051 42.3083 31.1444C42.032 31.7618 41.6147 32.7496 41.7895 33.4287C41.9023 33.8721 42.3704 34.366 42.6072 34.7532C42.9118 35.2471 43.1994 35.7578 43.4701 36.2686C43.9833 37.2283 45.4439 36.3752 44.9307 35.4211C44.4175 34.467 43.9156 33.6307 43.3347 32.7776L43.4193 33.4287C43.6844 31.5485 44.722 30.1342 46.5717 29.5617C47.4628 29.2867 48.2974 29.1744 49.2448 29.2586L48.4271 28.6413C49.2674 31.0714 50.1077 33.5016 50.9479 35.9318C51.213 36.7063 52.3296 36.7569 52.5777 35.9318C53.418 33.1593 54.2583 30.3867 55.0986 27.6142L54.5064 28.2035C57.3882 26.9912 60.6534 29.1464 62.6159 31.1781L62.4862 30.1566C61.6685 31.7786 60.9579 33.4511 60.3771 35.1685C60.0274 36.1956 61.6628 36.639 62.0069 35.6175L62.0125 35.6119Z" fill="white">
                      </path>
                      <path d="M36.0031 42.2853C37.5709 41.3761 39.1443 40.4725 40.712 39.5633L43.8194 37.7673C44.3889 37.4417 44.9642 37.0376 45.5789 36.7963C46.3064 36.5101 47.0338 36.5157 47.7952 36.5157H63.219L62.4013 35.8983C62.4351 36.033 62.4577 36.1677 62.4802 36.308C62.5141 36.5157 62.4689 36.1846 62.4859 36.3529C62.4971 36.4315 62.5028 36.5157 62.5084 36.5943C62.5253 36.7963 62.5366 36.9984 62.5366 37.2004C62.5366 38.0479 62.4126 38.9234 61.8542 39.6418C60.9181 40.8485 59.2827 40.8373 57.8954 40.8373H52.662C52.3011 40.8373 51.9345 41.0955 51.8443 41.4546C51.8274 41.5164 51.8104 41.5781 51.7879 41.6399C51.7146 41.8475 51.7879 41.6511 51.771 41.6904C51.7258 41.7858 51.6807 41.8756 51.6356 41.971C51.3367 42.521 51.0717 42.8521 50.519 43.2899C48.5903 44.8333 45.7142 44.7772 43.3682 44.4685C42.9114 44.4068 42.5279 44.9007 42.5223 45.3104C42.5223 45.8155 42.9171 46.0905 43.3682 46.1523C46.1766 46.5227 49.3404 46.3936 51.6412 44.5471C52.4533 43.8961 53.2316 42.9419 53.4853 41.9093L52.6676 42.5266H58.2901C59.9538 42.5266 61.7133 42.2797 62.9088 41.0057C63.766 40.0908 64.1439 38.8841 64.2228 37.6606C64.2679 36.9366 64.2115 36.1621 64.0367 35.4549C63.9465 35.0957 63.5856 34.8376 63.219 34.8376H51.1563C49.6787 34.8376 48.173 34.7478 46.7011 34.8488C44.5807 35.0003 42.6069 36.5213 40.8192 37.554C38.93 38.6428 37.0408 39.7372 35.1459 40.8261C34.2041 41.3705 35.0557 42.8241 35.9975 42.2797L36.0031 42.2853Z" fill="white">
                      </path>
                      <path d="M63.3503 39.0244C64.3203 39.0525 64.9576 40.0796 64.4726 40.9383C64.1511 41.5163 63.5815 41.5893 62.9894 41.5893H56.5604C55.472 41.5893 55.472 43.273 56.5604 43.273H61.2524C61.9348 43.273 62.6116 43.2843 63.2939 43.273C64.6643 43.2506 65.9332 42.3694 66.249 41C66.6776 39.1254 65.2564 37.3912 63.3503 37.3351C62.2619 37.307 62.2619 38.9907 63.3503 39.0188V39.0244Z" fill="white">
                      </path>
                      <path d="M63.3487 45.7202C62.2885 45.7202 61.2227 45.7202 60.1624 45.7202C59.1981 45.7202 57.6811 45.9727 57.433 44.6819C57.3033 43.9971 57.7544 43.3068 58.4537 43.1721C58.8146 43.1048 59.2207 43.1497 59.5816 43.1497C60.7941 43.1497 62.0065 43.1441 63.219 43.1497C63.845 43.1497 64.3977 43.4415 64.5894 44.0757C64.8432 44.9007 64.189 45.6977 63.3487 45.7202C62.2603 45.7482 62.2603 47.432 63.3487 47.4039C64.6853 47.3646 65.8977 46.5003 66.2361 45.187C66.5576 43.9466 66.0274 42.6109 64.939 41.9205C64.2792 41.5052 63.5517 41.4659 62.8017 41.4659H60.4613C59.8861 41.4659 59.3109 41.4547 58.7413 41.4659C57.5909 41.4884 56.5194 42.1001 56.0175 43.1553C55.4648 44.3227 55.7242 45.7875 56.7224 46.6462C57.3935 47.2243 58.183 47.3983 59.0402 47.3983C60.4783 47.3983 61.9163 47.3983 63.3544 47.3983C64.4428 47.3983 64.4428 45.7146 63.3544 45.7146L63.3487 45.7202Z" fill="white">
                      </path>
                      <path d="M63.3487 49.8452C62.2885 49.8452 61.2227 49.8452 60.1624 49.8452C59.1981 49.8452 57.6811 50.0977 57.433 48.8069C57.3033 48.1221 57.7544 47.4318 58.4537 47.2971C58.8146 47.2298 59.2207 47.2747 59.5816 47.2747C60.7941 47.2747 62.0065 47.2691 63.219 47.2747C63.845 47.2747 64.3977 47.5665 64.5894 48.2007C64.8432 49.0257 64.189 49.8227 63.3487 49.8452C62.2603 49.8732 62.2603 51.557 63.3487 51.5289C64.6853 51.4896 65.8977 50.6253 66.2361 49.312C66.5576 48.0716 66.0274 46.7359 64.939 46.0455C64.2792 45.6302 63.5517 45.5909 62.8017 45.5909H60.4613C59.8861 45.5909 59.3109 45.5797 58.7413 45.5909C57.5909 45.6134 56.5194 46.2251 56.0175 47.2803C55.4648 48.4477 55.7242 49.9125 56.7224 50.7712C57.3935 51.3493 58.183 51.5233 59.0402 51.5233C60.4783 51.5233 61.9163 51.5233 63.3544 51.5233C64.4428 51.5233 64.4428 49.8396 63.3544 49.8396L63.3487 49.8452Z" fill="white">
                      </path>
                      <path d="M63.3487 53.9704C62.2885 53.9704 61.2227 53.9704 60.1624 53.9704C59.1981 53.9704 57.6811 54.223 57.433 52.9321C57.3033 52.2474 57.7544 51.5571 58.4537 51.4224C58.8146 51.355 59.2207 51.3999 59.5816 51.3999C60.7941 51.3999 62.0065 51.3943 63.219 51.3999C63.845 51.3999 64.3977 51.6918 64.5894 52.326C64.8432 53.151 64.189 53.948 63.3487 53.9704C62.2603 53.9985 62.2603 55.6822 63.3487 55.6541C64.6853 55.6149 65.8977 54.7505 66.2361 53.4372C66.5576 52.1969 66.0274 50.8611 64.939 50.1708C64.2792 49.7555 63.5517 49.7162 62.8017 49.7162H60.4613C59.8861 49.7162 59.3109 49.7049 58.7413 49.7162C57.5909 49.7386 56.5194 50.3504 56.0175 51.4055C55.4648 52.5729 55.7242 54.0378 56.7224 54.8965C57.3935 55.4745 58.183 55.6485 59.0402 55.6485C60.4783 55.6485 61.9163 55.6485 63.3544 55.6485C64.4428 55.6485 64.4428 53.9648 63.3544 53.9648L63.3487 53.9704Z" fill="white">
                      </path>
                      <path d="M35.355 54.2511C36.59 55.0536 37.8194 55.8506 39.0545 56.6532C39.2349 56.771 39.4097 56.8833 39.5902 57.0012C39.9624 57.2425 40.5433 57.0853 40.7463 56.6981C40.9719 56.2772 40.8365 55.8057 40.4418 55.5475C39.2067 54.745 37.9773 53.948 36.7423 53.1454C36.5618 53.0275 36.387 52.9153 36.2065 52.7974C35.8343 52.5561 35.2535 52.7132 35.0505 53.1005C34.8249 53.5214 34.9602 53.9929 35.355 54.2511Z" fill="white">
                      </path>
                      <path d="M21.8319 38.1264H35.6936L34.8477 37.2845V56.5352L35.6936 55.6933H26.9074C25.819 55.6933 25.819 57.3771 26.9074 57.3771H35.6936C36.1504 57.3771 36.5396 56.9898 36.5396 56.5352V37.2845C36.5396 36.8299 36.1504 36.4426 35.6936 36.4426H21.8319C20.7435 36.4426 20.7435 38.1264 21.8319 38.1264Z" fill="white">
                      </path>
                      <path d="M36.4099 70.8076C25.8585 65.0044 18.3468 54.4024 16.8467 41.9596H12.166L18.7134 33.395L25.9431 41.8137L21.2117 41.8979C22.5708 52.1069 28.4245 60.8063 36.737 66.0539" fill="#A3DEFF">
                      </path>
                      <path d="M47.8641 49.4579C42.9973 51.8544 38.8467 55.9852 36.856 61.0532C34.9893 65.8126 34.4141 71.6159 36.2356 76.4594C38.7339 83.1102 45.4279 86.7527 52.3362 86.9379C58.6918 87.1063 65.2843 84.4459 68.4085 78.6932C71.9614 72.1491 70.9914 63.9044 67.5119 57.5455C67.0043 56.6194 66.4404 55.7326 65.8257 54.8683C65.211 54.004 63.7335 54.829 64.3651 55.7158C68.4367 61.4461 70.3034 69.0566 67.8559 75.8196C66.8746 78.5248 65.1264 80.9213 62.7014 82.5097C60.2765 84.098 57.3327 84.9904 54.4115 85.2036C48.2138 85.6582 41.5762 83.2056 38.5421 77.5146C36.0495 72.8394 36.5514 67.0249 38.2376 62.1645C38.3166 61.9288 38.4068 61.6987 38.497 61.4629C38.5196 61.4068 38.5421 61.3451 38.5647 61.289C38.4519 61.5808 38.5647 61.3002 38.6324 61.1318C38.7395 60.8905 38.8523 60.6491 38.9707 60.4134C39.7546 58.8363 40.7415 57.3602 41.9145 56.0413C43.5951 54.1611 45.5971 52.584 47.8077 51.3718C48.101 51.209 48.3999 51.0575 48.7044 50.9059C49.68 50.4233 48.8228 48.9752 47.8528 49.4523L47.8641 49.4579Z" fill="white">
                      </path>
                    </g>
                    <defs>
                      <linearGradient gradientUnits="userSpaceOnUse" id="paint0_linear_673_8322" x1="56.6933" x2="56.6933" y1="80.4772" y2="58.1338">
                        <stop stop-color="#107EFF">
                        </stop>
                        <stop offset="1" stop-color="#2A84CD">
                        </stop>
                      </linearGradient>
                      <clipPath id="clip0_673_8322">
                        <rect fill="white" height="73.5905" transform="translate(12.166 13.353)" width="75.3709">
                        </rect>
                      </clipPath>
                    </defs>
                  </svg>