<svg fill="none" height="100" viewBox="0 0 100 100" width="100" xmlns="http://www.w3.org/2000/svg">
                    <g clip-path="url(#clip0_673_8310)">
                      <path d="M34.3969 86.9433H17.8623C16.3567 86.9433 15.1348 85.7213 15.1348 84.2155V72.1696C15.1348 71.4331 15.4348 70.7239 15.964 70.211L24.043 62.3986C25.085 61.3893 26.7324 61.373 27.7907 62.3604L36.2462 70.2056C36.8027 70.7239 37.1191 71.444 37.1191 72.2023V84.2155C37.1191 85.7213 35.8971 86.9433 34.3915 86.9433H34.3969Z" fill="#A3DEFF">
                      </path>
                      <path d="M60.3462 86.9436H43.8116C42.3059 86.9436 41.084 85.7215 41.084 84.2158V60.7131C41.084 59.9765 41.384 59.2673 41.9132 58.7545L49.9923 50.9421C51.0342 49.9328 52.6817 49.9164 53.74 50.9039L62.1955 58.749C62.7519 59.2673 63.0683 59.9875 63.0683 60.7458V84.2158C63.0683 85.7215 61.8463 86.9436 60.3407 86.9436H60.3462Z" fill="#A3DEFF">
                      </path>
                      <path d="M86.2915 86.9434H69.7569C68.2513 86.9434 67.0293 85.7214 67.0293 84.2156V55.8029C67.0293 55.0664 67.3293 54.3572 67.8585 53.8443L75.9376 46.0319C76.9795 45.0226 78.627 45.0063 79.6853 45.9937L88.1408 53.8389C88.6972 54.3572 89.0136 55.0773 89.0136 55.8356V84.2156C89.0136 85.7214 87.7916 86.9434 86.286 86.9434H86.2915Z" fill="url(#paint0_linear_673_8310)">
                      </path>
                      <path d="M84.5188 36.0536C84.4861 38.7759 82.795 41.2855 80.2038 42.2075C77.6126 43.1295 74.6231 42.3166 72.872 40.1562C71.1209 37.9958 70.9736 34.9734 72.3865 32.6493C73.7994 30.3252 76.587 29.0868 79.2437 29.6323C82.304 30.2597 84.4806 32.9439 84.5188 36.0536C84.5297 37.1065 86.1663 37.1065 86.1553 36.0536C86.1117 32.6384 84.0115 29.5942 80.8093 28.383C77.6071 27.1719 73.8703 28.1812 71.721 30.7944C69.5717 33.4076 69.168 37.3084 70.9791 40.2871C72.7902 43.2659 76.2324 44.7171 79.5928 44.0733C83.4005 43.3422 86.1117 39.8834 86.1608 36.0536C86.1717 35.0006 84.5352 35.0006 84.5243 36.0536H84.5188Z" fill="white">
                      </path>
                      <path d="M12.385 65.3175C15.9363 61.9514 19.4931 58.5853 23.0444 55.2192C28.6468 49.9109 34.2493 44.6026 39.8517 39.2998C41.0955 38.1213 42.3284 36.9266 43.5885 35.7591C45.3069 34.1715 47.9745 33.9642 49.8292 35.4645C51.433 36.7629 52.5568 38.4432 54.6625 39.0215C56.8937 39.638 59.223 38.9561 60.8759 37.3739C61.4051 36.8666 61.9342 36.3483 62.4634 35.8355C64.8909 33.4841 67.3185 31.1273 69.7406 28.7759C74.4702 24.1878 79.2053 19.5996 83.9349 15.0115L84.2131 14.7441C84.9714 14.0076 83.8149 12.851 83.0566 13.5875C78.9434 17.5756 74.8302 21.5691 70.717 25.5571L62.6816 33.3477L60.2486 35.7045C59.4794 36.4519 58.732 37.1339 57.6574 37.4394C56.2608 37.8377 54.728 37.5649 53.5551 36.7029C52.8623 36.1955 52.2622 35.5136 51.6458 34.9244C49.6928 33.0586 47.0634 32.2129 44.4668 33.2822C42.7539 33.986 41.3792 35.6063 40.0536 36.8611C34.702 41.9294 29.3505 46.9976 23.999 52.0713C19.8095 56.0375 15.6253 60.0037 11.4358 63.9699L11.223 64.1718C10.4593 64.8974 11.6158 66.054 12.3795 65.3284L12.385 65.3175Z" fill="white">
                      </path>
                      <path d="M75.1353 15.0715H83.7818L82.9635 14.2532V22.4911C82.9635 23.544 84.6 23.544 84.6 22.4911V14.2532C84.6 13.8113 84.2236 13.4348 83.7818 13.4348H75.1353C74.0825 13.4348 74.0825 15.0715 75.1353 15.0715Z" fill="white">
                      </path>
                    </g>
                    <defs>
                      <linearGradient gradientUnits="userSpaceOnUse" id="paint0_linear_673_8310" x1="82.0712" x2="82.0712" y1="86.9026" y2="47.7318">
                        <stop stop-color="#107EFF">
                        </stop>
                        <stop offset="1" stop-color="#2A84CD">
                        </stop>
                      </linearGradient>
                      <clipPath id="clip0_673_8310">
                        <rect fill="white" height="73.5905" transform="translate(10.9785 13.353)" width="78.0415">
                        </rect>
                      </clipPath>
                    </defs>
                  </svg>