<svg fill="none" height="100" viewBox="0 0 100 100" width="100" xmlns="http://www.w3.org/2000/svg">
                    <g clip-path="url(#clip0_673_8327)">
                      <path d="M38.4154 79.5932C38.0246 79.5932 37.6276 79.5932 37.2368 79.5932C36.8902 79.5932 36.7452 79.4609 36.7389 79.1082C36.7326 78.5728 36.7389 78.0312 36.7389 77.4958C36.7389 77.3635 36.6948 77.3069 36.5687 77.2754C34.6969 76.803 33.1086 75.8645 31.8166 74.4285C31.7409 74.3403 31.6527 74.2584 31.5834 74.1703C31.3565 73.8868 31.3628 73.6979 31.6212 73.4459C31.9552 73.1121 32.3019 72.7909 32.6422 72.4634C32.9889 72.1359 33.3355 71.8021 33.6884 71.4745C34.0792 71.1029 34.2809 71.0966 34.7032 71.4431C35.22 71.8776 35.7179 72.3311 36.304 72.6838C37.2305 73.2381 38.2074 73.5089 39.2851 73.2885C40.1549 73.1121 40.6339 72.5642 40.6465 71.7328C40.6465 71.4179 40.5331 71.1722 40.3125 70.9581C39.8713 70.5298 39.323 70.2716 38.7494 70.07C37.5961 69.6669 36.4427 69.2575 35.3712 68.6592C34.4069 68.1238 33.5372 67.4751 32.9384 66.5303C31.3691 64.0487 32.2704 60.9499 34.9238 59.665C35.4217 59.4257 35.9448 59.2368 36.4868 59.1297C36.7011 59.0856 36.7515 59.0037 36.7389 58.8022C36.7263 58.3424 36.7326 57.8889 36.7389 57.4291C36.7389 57.0323 36.9217 56.856 37.3187 56.856C38.0372 56.856 38.762 56.856 39.4805 56.856C39.9154 56.856 40.1423 57.0827 40.1423 57.511C40.1423 57.933 40.1486 58.355 40.1423 58.777C40.1423 58.9533 40.1864 59.0226 40.3692 59.0604C41.8881 59.3627 43.218 60.0429 44.3587 61.0885C44.9449 61.6238 44.9449 61.8947 44.4029 62.4615C43.8356 63.0599 43.2684 63.6708 42.7012 64.2692C42.3671 64.6219 42.1339 64.6408 41.7621 64.3322C41.3272 63.9794 40.9049 63.6141 40.4133 63.337C39.6192 62.8961 38.7872 62.7639 37.9049 62.9906C37.6969 63.041 37.5015 63.1229 37.3313 63.2488C36.7893 63.6393 36.72 64.3888 37.1864 64.8675C37.4889 65.1761 37.8671 65.3651 38.2641 65.51C39.1465 65.8312 40.0352 66.1272 40.9175 66.4484C41.9007 66.8137 42.865 67.2168 43.7033 67.8719C44.8251 68.7347 45.4176 69.8622 45.4932 71.2793C45.6382 73.9372 44.0751 75.8519 42.0268 76.7715C41.4911 77.0108 40.9427 77.1935 40.3692 77.2943C40.2053 77.3258 40.1423 77.3761 40.1423 77.5588C40.1549 78.0438 40.1423 78.5288 40.1423 79.02C40.1423 79.442 39.991 79.5869 39.5814 79.5869C39.1969 79.5869 38.8125 79.5869 38.4217 79.5869L38.4154 79.5932Z" fill="url(#paint0_linear_673_8327)">
                      </path>
                      <path d="M62.8194 68.9238C62.7753 58.6574 56.2836 49.3295 46.6406 45.7709C37.004 42.2123 25.7854 45.2607 19.2496 53.1715C15.5815 57.6056 13.5835 63.1734 13.5583 68.9238L14.5037 67.9791H8.96374C8.27045 67.9791 7.75364 68.7916 8.1444 69.4025C10.7159 73.3894 13.2936 77.3763 15.8651 81.3632C16.2306 81.9363 16.6025 82.5032 16.968 83.0763C17.3651 83.6873 18.2033 83.681 18.6004 83.0763C21.2286 79.0831 23.8568 75.09 26.4849 71.0968C26.8694 70.5173 27.2476 69.9379 27.632 69.3584C28.0354 68.7475 27.4997 67.9413 26.8127 67.935C24.9786 67.9161 23.1383 67.8972 21.3042 67.872L22.2496 68.8168C22.2811 63.671 24.7265 58.7015 28.924 55.6657C33.1909 52.5858 38.7372 51.7229 43.7351 53.4046C48.7331 55.0862 52.4264 58.9661 53.9769 63.7843C55.5273 68.6026 54.6701 74.3531 51.5314 78.573C47.8507 83.5172 41.5292 85.9232 35.485 84.8084C34.2939 84.588 33.7833 86.4082 34.9808 86.6286C41.0881 87.7497 47.4222 85.8287 51.7016 81.2876C55.7038 77.0362 57.4181 71.0527 56.3214 65.3274C55.2248 59.6022 51.4873 54.891 46.3885 52.4535C41.2897 50.016 34.7476 50.0916 29.611 52.9763C23.9198 56.1759 20.3903 62.3042 20.3525 68.8105C20.3525 69.3269 20.7874 69.7489 21.2979 69.7552C23.132 69.7741 24.9723 69.793 26.8064 69.8182L25.987 68.3948C23.3589 72.388 20.7307 76.3811 18.1025 80.3743C17.718 80.9538 17.3399 81.5332 16.9554 82.1127H18.5878C16.0163 78.1258 13.4386 74.1389 10.8671 70.152C10.5016 69.5789 10.1297 69.012 9.76417 68.4389L8.94483 69.8623H14.4785C14.989 69.8623 15.4239 69.4277 15.4239 68.9175C15.468 59.5014 21.4177 50.7907 30.3169 47.5534C39.2162 44.316 49.5776 47.0684 55.7038 54.4249C59.082 58.4811 60.8845 63.6584 60.9097 68.9238C60.9097 70.1394 62.8068 70.1394 62.8005 68.9238H62.8194Z" fill="white">
                      </path>
                      <path d="M85.6352 13.3656H53.1453C51.8722 13.3656 50.5927 13.3341 49.3196 13.3656C46.786 13.4348 44.5549 15.0598 43.7166 17.4532C43.3889 18.398 43.3952 19.3679 43.3952 20.3442V38.408C43.3952 39.0819 43.3637 39.7748 43.4393 40.4424C43.7229 42.9554 45.6074 45.1284 48.1032 45.6701C49.3133 45.9346 50.6306 45.8212 51.8596 45.8212H57.7903L56.971 45.3551C58.1622 47.8304 59.3597 50.312 60.5508 52.7872C60.8597 53.4297 61.8555 53.373 62.1832 52.7872C63.5572 50.312 64.9374 47.8304 66.3114 45.3551L65.4921 45.8212C72.1854 45.8212 78.8788 45.922 85.5721 45.8212C88.5407 45.7771 91.1499 43.6798 91.5911 40.6943C91.755 39.6047 91.6667 38.4521 91.6667 37.3562V23.991C91.6667 22.4919 91.6793 20.9866 91.6667 19.4876C91.6415 16.118 89.0134 13.4285 85.6352 13.3593C84.4188 13.3341 84.4188 15.2236 85.6352 15.2488C88.0743 15.2992 89.7697 17.2328 89.776 19.6136C89.776 20.8984 89.776 22.1833 89.776 23.4745V36.3421C89.776 37.4695 89.7886 38.597 89.776 39.7244C89.7444 42.0737 87.9545 43.9002 85.591 43.9443C82.4082 43.9947 79.2191 43.9443 76.0363 43.9443H65.4984C65.1706 43.9443 64.8429 44.1206 64.679 44.4104C63.3051 46.8856 61.9248 49.3672 60.5508 51.8425H62.1832C60.992 49.3672 59.7945 46.8856 58.6033 44.4104C58.4647 44.1206 58.0991 43.9443 57.784 43.9443H50.0129C48.4183 43.9443 46.9309 43.5286 45.9919 42.1304C45.3679 41.1982 45.2797 40.1904 45.2797 39.1197C45.2797 33.2874 45.2797 27.4614 45.2797 21.6291C45.2797 20.911 45.2734 20.193 45.2797 19.475C45.3049 17.5666 46.515 15.8912 48.3868 15.3999C49.6474 15.0724 51.1789 15.2677 52.4646 15.2677H71.051C75.8283 15.2677 80.6183 15.381 85.3894 15.2677C85.4713 15.2677 85.5469 15.2677 85.6289 15.2677C86.8453 15.2677 86.8453 13.3782 85.6289 13.3782L85.6352 13.3656Z" fill="#A3DEFF">
                      </path>
                      <path d="M59.2204 35.3596L56.2078 30.1256H54.5691V35.3596H52.4199V22.2715H56.9452C57.9473 22.2715 58.8045 22.4478 59.4977 22.8006C60.1973 23.1533 60.7141 23.6256 61.0608 24.2114C61.4074 24.8034 61.5776 25.4585 61.5776 26.1891C61.5776 27.0457 61.3318 27.8204 60.8339 28.5132C60.336 29.2123 59.5734 29.6847 58.546 29.9366L61.7856 35.3596H59.2204ZM54.5691 28.4124H56.9452C57.7519 28.4124 58.357 28.2109 58.7666 27.8078C59.1763 27.4047 59.378 26.863 59.378 26.1891C59.378 25.5152 59.1763 24.9798 58.7729 24.5956C58.3696 24.2114 57.7645 24.0224 56.9452 24.0224H54.5691V28.4124Z" fill="white">
                      </path>
                      <path d="M66.941 34.6354C65.92 34.0622 65.107 33.2686 64.5082 32.242C63.9095 31.2216 63.6133 30.069 63.6133 28.7842C63.6133 27.4993 63.9095 26.353 64.5082 25.3389C65.107 24.3186 65.9137 23.525 66.941 22.9581C67.9621 22.385 69.0839 22.1016 70.3066 22.1016C71.5293 22.1016 72.6638 22.385 73.6911 22.9581C74.7121 23.5313 75.5189 24.3249 76.1113 25.3389C76.7038 26.353 77 27.5056 77 28.7842C77 30.0627 76.7038 31.2153 76.1113 32.242C75.5189 33.2623 74.7121 34.0622 73.6911 34.6354C72.6701 35.2085 71.5419 35.492 70.3066 35.492C69.0713 35.492 67.9684 35.2085 66.941 34.6354ZM72.6197 33.0356C73.3004 32.6388 73.8298 32.0719 74.2142 31.3413C74.5987 30.6044 74.7878 29.7541 74.7878 28.7905C74.7878 27.8268 74.5987 26.9765 74.2142 26.2459C73.8298 25.5153 73.3004 24.961 72.6197 24.5705C71.939 24.18 71.1701 23.9848 70.3003 23.9848C69.4306 23.9848 68.6617 24.18 67.981 24.5705C67.3003 24.961 66.7709 25.5216 66.3864 26.2459C66.002 26.9765 65.8129 27.8205 65.8129 28.7905C65.8129 29.7604 66.002 30.6044 66.3864 31.3413C66.7709 32.0782 67.3003 32.6388 67.981 33.0356C68.6617 33.4324 69.4306 33.6276 70.3003 33.6276C71.1701 33.6276 71.939 33.4324 72.6197 33.0356Z" fill="white">
                      </path>
                      <path d="M81.2547 22.2715V35.3596H79.1055V22.2715H81.2547Z" fill="white">
                      </path>
                    </g>
                    <defs>
                      <linearGradient gradientUnits="userSpaceOnUse" id="paint0_linear_673_8327" x1="41.0554" x2="41.0554" y1="79.5709" y2="58.2022">
                        <stop stop-color="#107EFF">
                        </stop>
                        <stop offset="1" stop-color="#2A84CD">
                        </stop>
                      </linearGradient>
                      <clipPath id="clip0_673_8327">
                        <rect fill="white" height="73.5905" transform="translate(8.01172 13.353)" width="83.6795">
                        </rect>
                      </clipPath>
                    </defs>
                  </svg>