<svg fill="none" height="100" viewBox="0 0 100 100" width="100" xmlns="http://www.w3.org/2000/svg">
                    <g clip-path="url(#clip0_673_8315)">
                      <path d="M69.9714 13.364H34.3886C33.505 13.364 32.6268 13.353 31.7487 13.364C28.6505 13.3972 25.8339 15.5148 25.1767 18.5944C24.8012 20.3582 25.0166 22.3597 25.0166 24.1455V86.1142C25.0166 86.562 25.3976 86.9435 25.845 86.9435H63.7473C65.6692 86.9435 67.4144 86.3574 68.8227 85.0139C69.5958 84.273 68.425 83.1064 67.6519 83.8417C66.5528 84.8922 65.2108 85.2903 63.7307 85.2903H25.8505L26.6789 86.1197V20.3305C26.6789 18.423 27.4962 16.6704 29.1862 15.6917C30.346 15.0172 31.5554 15.0227 32.8312 15.0227H59.5114C62.8305 15.0227 66.1552 15.0227 69.4743 15.0227H69.9714C71.0373 15.0227 71.0373 13.364 69.9714 13.364Z" fill="white">
                      </path>
                      <path d="M69.1426 23.4656V31.3223C69.1426 32.3893 70.7994 32.3893 70.7994 31.3223V23.4656C70.7994 22.3985 69.1426 22.3985 69.1426 23.4656Z" fill="white">
                      </path>
                      <path d="M79.4421 22.6251H33.0624L33.7804 23.8747C35.5753 20.7508 35.6029 16.9026 33.7804 13.7788L33.0624 15.0283C41.1256 15.0283 49.1943 15.0283 57.2574 15.0283H72.3786C73.1573 15.0283 73.9139 15.0173 74.6705 15.2274C75.9242 15.5757 77.0453 16.3995 77.7467 17.4998C78.8843 19.2801 78.6137 21.4364 78.6137 23.4545C78.6137 24.5215 80.2705 24.5215 80.2705 23.4545C80.2705 21.5912 80.4749 19.5952 79.768 17.8315C78.6303 14.9951 75.9297 13.3752 72.9309 13.3641C64.4093 13.3364 55.8823 13.3641 47.3607 13.3641H33.0624C32.4328 13.3641 32.0297 14.0663 32.3445 14.6136C33.8688 17.2288 33.8467 20.4135 32.3445 23.0343C32.0297 23.5761 32.4273 24.2838 33.0624 24.2838H79.4421C80.508 24.2838 80.508 22.6251 79.4421 22.6251Z" fill="white">
                      </path>
                      <path d="M25.8501 85.285C24.7953 85.285 23.7294 85.3237 22.6856 85.1357C21.2 84.8703 19.8083 84.2953 18.5656 83.4438C16.108 81.752 14.4457 78.9377 14.1806 75.9631C14.0923 74.9569 14.1364 73.934 14.1364 72.9277L13.308 73.7571H25.8556L25.0272 72.9277V86.1143C25.0272 87.1814 26.684 87.1814 26.684 86.1143V72.9277C26.684 72.4799 26.303 72.0984 25.8556 72.0984H13.3025C12.8552 72.0984 12.4741 72.4799 12.4741 72.9277C12.4741 73.8787 12.4354 74.8352 12.5017 75.7807C12.6287 77.4891 13.0982 79.1478 13.91 80.6572C15.4729 83.5655 18.2674 85.7549 21.4595 86.5677C22.9065 86.9381 24.3645 86.9437 25.8446 86.9437C26.9105 86.9437 26.9105 85.285 25.8446 85.285H25.8501Z" fill="white">
                      </path>
                      <path d="M44.6158 33.3457H63.6968C64.7626 33.3457 64.7626 31.687 63.6968 31.687H44.6158C43.5499 31.687 43.5499 33.3457 44.6158 33.3457Z" fill="white">
                      </path>
                      <path d="M44.6158 47.699H54.6395C55.7054 47.699 55.7054 46.0403 54.6395 46.0403H44.6158C43.5499 46.0403 43.5499 47.699 44.6158 47.699Z" fill="white">
                      </path>
                      <path d="M44.6158 60.5317H61.1784C62.2443 60.5317 62.2443 58.873 61.1784 58.873H44.6158C43.5499 58.873 43.5499 60.5317 44.6158 60.5317Z" fill="white">
                      </path>
                      <path d="M44.6158 75.001H63.6968C64.7626 75.001 64.7626 73.3423 63.6968 73.3423H44.6158C43.5499 73.3423 43.5499 75.001 44.6158 75.001Z" fill="white">
                      </path>
                      <path d="M32.2735 33.2351L34.6041 36.3092C34.952 36.7681 35.4491 36.8345 35.9074 36.4751C37.7686 35.0044 39.6298 33.5392 41.4909 32.0685C41.756 31.8584 42.0266 31.6483 42.2917 31.4382C42.6451 31.1618 42.5844 30.5536 42.2917 30.2661C41.9438 29.9177 41.4743 29.9896 41.1209 30.2661C39.2597 31.7368 37.3986 33.2019 35.5374 34.6727C35.2723 34.8828 35.0017 35.0929 34.7366 35.303L36.04 35.4688L33.7094 32.3947C33.4388 32.0409 32.997 31.8529 32.5773 32.0962C32.2293 32.3007 32.0084 32.8702 32.279 33.2296L32.2735 33.2351Z" fill="white">
                      </path>
                      <path d="M32.0196 46.7756C32.7983 47.7985 33.5715 48.8214 34.3502 49.8498C34.6981 50.3087 35.1952 50.375 35.6535 50.0156C37.5147 48.5449 39.3758 47.0797 41.237 45.609C41.5021 45.3989 41.7727 45.1888 42.0378 44.9787C42.3912 44.7023 42.3305 44.0941 42.0378 43.8066C41.6899 43.4583 41.2204 43.5301 40.867 43.8066C39.0058 45.2773 37.1447 46.7425 35.2835 48.2132C35.0184 48.4233 34.7478 48.6334 34.4827 48.8435L35.7861 49.0093C35.0074 47.9865 34.2342 46.9636 33.4555 45.9352C33.1849 45.5814 32.7431 45.3934 32.3233 45.6367C31.9754 45.8413 31.7545 46.4107 32.0251 46.7701L32.0196 46.7756Z" fill="#A3DEFF">
                      </path>
                      <path d="M31.7657 58.4197C32.5444 59.4425 33.3176 60.4654 34.0963 61.4938C34.4442 61.9527 34.9412 62.019 35.3996 61.6597C37.2608 60.189 39.1219 58.7238 40.9831 57.2531C41.2482 57.043 41.5188 56.8329 41.7839 56.6228C42.1373 56.3463 42.0766 55.7381 41.7839 55.4506C41.436 55.1023 40.9665 55.1742 40.6131 55.4506C38.7519 56.9213 36.8908 58.3865 35.0296 59.8572C34.7645 60.0673 34.4939 60.2774 34.2288 60.4875L35.5322 60.6534L33.2016 57.5793C32.931 57.2254 32.4892 57.0374 32.0694 57.2807C31.7215 57.4853 31.5006 58.0548 31.7712 58.4142L31.7657 58.4197Z" fill="white">
                      </path>
                      <path d="M31.5118 72.0762L33.8424 75.1503C34.1903 75.6092 34.6873 75.6755 35.1457 75.3162C37.0069 73.8455 38.868 72.3803 40.7292 70.9096C40.9943 70.6995 41.2649 70.4894 41.53 70.2793C41.8834 70.0028 41.8227 69.3946 41.53 69.1071C41.182 68.7588 40.7126 68.8307 40.3592 69.1071C38.498 70.5778 36.6369 72.043 34.7757 73.5137C34.5106 73.7238 34.24 73.9339 33.9749 74.144L35.2783 74.3099L32.9477 71.2358C32.6771 70.8819 32.2353 70.6939 31.8155 70.9372C31.4676 71.1418 31.2467 71.7113 31.5173 72.0707L31.5118 72.0762Z" fill="#A3DEFF">
                      </path>
                      <path d="M75.5658 43.9559C75.5382 45.88 74.3563 47.6603 72.5283 48.3183C70.7003 48.9762 68.5575 48.4123 67.3038 46.8697C66.0888 45.3769 65.9563 43.2151 66.9393 41.5674C67.9223 39.9198 69.8719 39.0186 71.7496 39.378C73.9531 39.8037 75.5326 41.7112 75.5603 43.9559C75.5768 45.023 77.2336 45.023 77.2171 43.9559C77.1784 41.3186 75.5658 38.9799 73.1026 38.0455C70.6395 37.1111 67.7401 37.8962 66.0888 39.9253C64.4375 41.9545 64.1448 44.9014 65.5089 47.1849C66.873 49.4683 69.5239 50.6183 72.1196 50.1484C75.0743 49.6176 77.1839 46.9195 77.2226 43.9615C77.2392 42.8944 75.5823 42.8944 75.5658 43.9615V43.9559Z" fill="url(#paint0_linear_673_8315)">
                      </path>
                      <path d="M62.6702 59.3983C62.7089 55.9261 64.8793 52.7027 68.1819 51.5306C71.4844 50.3585 75.1515 51.3647 77.4158 54.0186C78.6916 55.517 79.3488 57.4411 79.3709 59.3983C79.3819 60.4654 81.0387 60.4654 81.0277 59.3983C80.9835 55.1852 78.3492 51.409 74.3839 49.9604C70.5124 48.545 65.9507 49.7945 63.3329 52.9792C61.8363 54.7982 61.0355 57.0374 61.0079 59.3928C60.9968 60.4599 62.6536 60.4599 62.6647 59.3928L62.6702 59.3983Z" fill="url(#paint1_linear_673_8315)">
                      </path>
                      <path d="M82.2912 56.96C78.3259 61.6817 71.8257 63.5339 65.9937 61.4495C60.217 59.3872 56.2958 53.709 56.3124 47.5884C56.329 41.4678 60.3274 35.7951 66.1263 33.7936C71.9361 31.7866 78.4419 33.6443 82.3464 38.3937C86.7204 43.7126 86.6321 51.6577 82.2912 56.9545C81.623 57.7727 82.7883 58.9559 83.462 58.1266C87.7587 52.8796 88.5043 45.4321 85.1133 39.505C81.7224 33.578 74.7582 30.3878 68.0316 31.582C61.3049 32.7763 55.8651 38.3716 54.8599 45.1335C53.8548 51.8789 57.1629 58.7127 63.1827 61.9858C69.114 65.2092 76.5863 64.3688 81.6782 59.9567C82.3244 59.3983 82.9153 58.779 83.4676 58.1266C84.1524 57.3138 82.9816 56.1362 82.2967 56.9545L82.2912 56.96Z" fill="white">
                      </path>
                      <path d="M74.1126 63.3183C74.1568 69.0905 74.2065 74.8683 74.2507 80.6405C74.2618 82.2771 73.5493 83.8142 71.8428 84.2841C69.689 84.8813 67.7008 83.1949 67.6676 81.0276C67.6235 78.1414 67.6235 75.2498 67.5959 72.3637C67.5738 69.3449 67.5461 66.3316 67.5241 63.3128C67.513 62.2457 65.8562 62.2457 65.8672 63.3128C65.9169 69.2066 65.928 75.106 66.0108 80.9999C66.044 83.3553 67.6069 85.506 69.9872 85.9594C72.8921 86.5178 75.6701 84.4002 75.902 81.4478C75.9738 80.5465 75.902 79.6232 75.902 78.722C75.8854 76.8421 75.8744 74.9678 75.8578 73.088C75.8302 69.8314 75.8081 66.5693 75.7805 63.3128C75.7695 62.2457 74.1126 62.2457 74.1237 63.3128L74.1126 63.3183Z" fill="white">
                      </path>
                    </g>
                    <defs>
                      <linearGradient gradientUnits="userSpaceOnUse" id="paint0_linear_673_8315" x1="73.2507" x2="73.2507" y1="50.2398" y2="38.4005">
                        <stop stop-color="#107EFF">
                        </stop>
                        <stop offset="1" stop-color="#2A84CD">
                        </stop>
                      </linearGradient>
                      <linearGradient gradientUnits="userSpaceOnUse" id="paint1_linear_673_8315" x1="74.7057" x2="74.7057" y1="60.188" y2="50.0225">
                        <stop stop-color="#107EFF">
                        </stop>
                        <stop offset="1" stop-color="#2A84CD">
                        </stop>
                      </linearGradient>
                      <clipPath id="clip0_673_8315">
                        <rect fill="white" height="73.5905" transform="translate(12.4629 13.353)" width="74.7775">
                        </rect>
                      </clipPath>
                    </defs>
                  </svg>