<svg xmlns="http://www.w3.org/2000/svg" width="123" height="39" viewBox="0 0 123 39" fill="none"><rect x="0.5" y="0.5" width="122" height="38" rx="19" stroke="#2A9FFF"></rect><path d="M21.306 24.168C20.326 24.168 19.4953 23.9907 18.814 23.636C18.1327 23.272 17.61 22.726 17.246 21.998C16.8913 21.2607 16.714 20.3273 16.714 19.198C16.714 17.5273 17.12 16.2813 17.932 15.46C18.744 14.6387 19.8733 14.228 21.32 14.228C22.1413 14.228 22.8693 14.3633 23.504 14.634C24.1387 14.8953 24.6333 15.2967 24.988 15.838C25.352 16.37 25.534 17.042 25.534 17.854H24.19C24.19 17.294 24.0687 16.832 23.826 16.468C23.5927 16.104 23.2613 15.8333 22.832 15.656C22.4027 15.4693 21.8987 15.376 21.32 15.376C20.648 15.376 20.0693 15.5067 19.584 15.768C19.0987 16.0293 18.73 16.4353 18.478 16.986C18.226 17.5273 18.1 18.2273 18.1 19.086V19.38C18.1 20.2293 18.226 20.9247 18.478 21.466C18.73 21.998 19.094 22.39 19.57 22.642C20.0553 22.894 20.6387 23.02 21.32 23.02C21.9173 23.02 22.4307 22.9313 22.86 22.754C23.2987 22.5767 23.6347 22.306 23.868 21.942C24.1107 21.5687 24.232 21.102 24.232 20.542H25.534C25.534 21.3727 25.3473 22.054 24.974 22.586C24.61 23.118 24.1107 23.5147 23.476 23.776C22.8413 24.0373 22.118 24.168 21.306 24.168ZM27.1515 24V13.878H28.3835V17.56H28.4815C28.6682 17.308 28.8782 17.1027 29.1115 16.944C29.3449 16.7853 29.6015 16.6687 29.8815 16.594C30.1709 16.51 30.4835 16.468 30.8195 16.468C31.2862 16.468 31.6922 16.5473 32.0375 16.706C32.3922 16.8647 32.6675 17.1213 32.8635 17.476C33.0689 17.8307 33.1715 18.3113 33.1715 18.918V24H31.9395V19.086C31.9395 18.778 31.8975 18.526 31.8135 18.33C31.7389 18.134 31.6315 17.98 31.4915 17.868C31.3609 17.756 31.1975 17.6767 31.0015 17.63C30.8149 17.5833 30.6049 17.56 30.3715 17.56C30.0262 17.56 29.6995 17.644 29.3915 17.812C29.0835 17.9707 28.8362 18.2087 28.6495 18.526C28.4722 18.834 28.3835 19.2167 28.3835 19.674V24H27.1515ZM38.0642 24.168C37.3176 24.168 36.6876 24.0327 36.1742 23.762C35.6702 23.482 35.2829 23.0573 35.0122 22.488C34.7509 21.9187 34.6202 21.1953 34.6202 20.318C34.6202 19.4313 34.7509 18.708 35.0122 18.148C35.2829 17.5787 35.6702 17.1587 36.1742 16.888C36.6876 16.608 37.3176 16.468 38.0642 16.468C38.8109 16.468 39.4362 16.608 39.9402 16.888C40.4536 17.1587 40.8409 17.5787 41.1022 18.148C41.3636 18.708 41.4942 19.4313 41.4942 20.318C41.4942 21.1953 41.3636 21.9187 41.1022 22.488C40.8409 23.0573 40.4536 23.482 39.9402 23.762C39.4362 24.0327 38.8109 24.168 38.0642 24.168ZM38.0642 23.132C38.5402 23.132 38.9369 23.0387 39.2542 22.852C39.5716 22.6653 39.8096 22.376 39.9682 21.984C40.1362 21.5827 40.2202 21.0787 40.2202 20.472V20.164C40.2202 19.548 40.1362 19.044 39.9682 18.652C39.8096 18.26 39.5716 17.9707 39.2542 17.784C38.9369 17.5973 38.5402 17.504 38.0642 17.504C37.5882 17.504 37.1869 17.5973 36.8602 17.784C36.5429 17.9707 36.3049 18.26 36.1462 18.652C35.9876 19.044 35.9082 19.548 35.9082 20.164V20.472C35.9082 21.0787 35.9876 21.5827 36.1462 21.984C36.3049 22.376 36.5429 22.6653 36.8602 22.852C37.1869 23.0387 37.5882 23.132 38.0642 23.132ZM37.3922 26.576V25.246H38.7222V26.576H37.3922ZM43.0246 24V16.636H44.0186L44.1306 17.742H44.2286C44.4246 17.4433 44.6439 17.2007 44.8866 17.014C45.1386 16.8273 45.4139 16.692 45.7126 16.608C46.0206 16.5147 46.3473 16.468 46.6926 16.468C47.1593 16.468 47.5653 16.5473 47.9106 16.706C48.2653 16.8647 48.5406 17.1213 48.7366 17.476C48.9419 17.8307 49.0446 18.3113 49.0446 18.918V24H47.8126V19.086C47.8126 18.778 47.7706 18.526 47.6866 18.33C47.6119 18.134 47.5046 17.98 47.3646 17.868C47.2339 17.756 47.0706 17.6767 46.8746 17.63C46.6879 17.5833 46.4779 17.56 46.2446 17.56C45.8993 17.56 45.5726 17.644 45.2646 17.812C44.9566 17.98 44.7093 18.2227 44.5226 18.54C44.3453 18.8573 44.2566 19.2353 44.2566 19.674V24H43.0246ZM55.561 24.168C55.1784 24.168 54.8797 24.098 54.665 23.958C54.4504 23.8087 54.2964 23.6173 54.203 23.384C54.1097 23.1413 54.063 22.8847 54.063 22.614V17.672H53.111V16.636H54.091L54.315 14.578H55.295V16.636H56.681V17.672H55.295V22.432C55.295 22.6653 55.337 22.8427 55.421 22.964C55.505 23.076 55.6637 23.132 55.897 23.132H56.681V23.944C56.5877 23.9907 56.4757 24.028 56.345 24.056C56.2144 24.084 56.079 24.1073 55.939 24.126C55.8084 24.154 55.6824 24.168 55.561 24.168ZM60.9353 24.168C60.2073 24.168 59.5913 24.0327 59.0873 23.762C58.5926 23.482 58.2146 23.0573 57.9533 22.488C57.7013 21.9187 57.5753 21.1953 57.5753 20.318C57.5753 19.4313 57.7013 18.708 57.9533 18.148C58.2146 17.5787 58.5973 17.1587 59.1013 16.888C59.6053 16.608 60.2353 16.468 60.9913 16.468C61.682 16.468 62.2606 16.6033 62.7273 16.874C63.194 17.1353 63.544 17.532 63.7773 18.064C64.02 18.5867 64.1413 19.2447 64.1413 20.038V20.626H58.8493C58.868 21.214 58.952 21.6993 59.1013 22.082C59.26 22.4553 59.4933 22.7307 59.8013 22.908C60.1093 23.076 60.4966 23.16 60.9633 23.16C61.2806 23.16 61.556 23.1227 61.7893 23.048C62.032 22.964 62.2326 22.8473 62.3913 22.698C62.5593 22.5487 62.6853 22.3713 62.7693 22.166C62.8533 21.9607 62.9 21.7367 62.9093 21.494H64.1133C64.104 21.886 64.0293 22.25 63.8893 22.586C63.7493 22.9127 63.544 23.1927 63.2733 23.426C63.0026 23.6593 62.6713 23.8413 62.2793 23.972C61.8873 24.1027 61.4393 24.168 60.9353 24.168ZM58.8773 19.702H62.8673C62.8673 19.2913 62.8206 18.946 62.7273 18.666C62.634 18.386 62.4986 18.1573 62.3213 17.98C62.1533 17.8027 61.9526 17.6767 61.7193 17.602C61.4953 17.518 61.2386 17.476 60.9493 17.476C60.52 17.476 60.156 17.5553 59.8573 17.714C59.5586 17.8727 59.33 18.1153 59.1713 18.442C59.0126 18.7687 58.9146 19.1887 58.8773 19.702ZM60.4173 26.576V25.246H61.7473V26.576H60.4173ZM58.8913 15.726L60.3613 13.878H61.5373L63.0073 15.726H61.8733L60.6413 14.2H61.2573L60.0253 15.726H58.8913ZM65.6652 26.422V16.636H66.6452L66.7712 17.686H66.8692C67.1212 17.2753 67.4432 16.972 67.8352 16.776C68.2272 16.5707 68.6706 16.468 69.1652 16.468C69.7812 16.468 70.3039 16.6033 70.7332 16.874C71.1626 17.1447 71.4939 17.5693 71.7272 18.148C71.9606 18.7173 72.0772 19.4593 72.0772 20.374C72.0772 21.2327 71.9559 21.9467 71.7132 22.516C71.4799 23.076 71.1486 23.4913 70.7192 23.762C70.2899 24.0327 69.7906 24.168 69.2212 24.168C68.9039 24.168 68.6052 24.1307 68.3252 24.056C68.0452 23.9813 67.7932 23.8647 67.5692 23.706C67.3452 23.538 67.1492 23.328 66.9812 23.076H66.8972V26.422H65.6652ZM68.8292 23.09C69.2866 23.09 69.6599 23.0013 69.9492 22.824C70.2386 22.6373 70.4532 22.3527 70.5932 21.97C70.7332 21.578 70.8032 21.0787 70.8032 20.472V20.178C70.8032 19.534 70.7286 19.0207 70.5792 18.638C70.4299 18.246 70.2106 17.966 69.9212 17.798C69.6412 17.63 69.2912 17.546 68.8712 17.546C68.4139 17.546 68.0359 17.6487 67.7372 17.854C67.4479 18.05 67.2332 18.3487 67.0932 18.75C66.9626 19.1513 66.8972 19.6413 66.8972 20.22V20.43C66.8972 20.9433 66.9439 21.3727 67.0372 21.718C67.1399 22.054 67.2799 22.3247 67.4572 22.53C67.6439 22.7353 67.8539 22.88 68.0872 22.964C68.3206 23.048 68.5679 23.09 68.8292 23.09Z" fill="#2A9FFF"></path><line opacity="0.2" x1="83.5" y1="3.5" x2="83.5" y2="35.5" stroke="#2A9FFF"></line><path d="M107 22.9995V24.9995C107 25.551 106.552 25.9995 106 25.9995H94C93.4485 25.9995 93 25.551 93 24.9995V22.9995C93 22.7235 93.2235 22.4995 93.5 22.4995C93.7765 22.4995 94 22.7235 94 22.9995V24.9995H106V22.9995C106 22.7235 106.224 22.4995 106.5 22.4995C106.776 22.4995 107 22.7235 107 22.9995Z" fill="#2A9FFF"></path><path d="M96.1466 17.3531C95.9511 17.1576 95.9511 16.8416 96.1466 16.6461L99.6461 13.1466C99.8416 12.9506 100.161 12.9531 100.354 13.1466L103.854 16.6461C104.049 16.8416 104.049 17.1576 103.854 17.3531C103.756 17.4506 103.628 17.4996 103.5 17.4996C103.372 17.4996 103.244 17.4506 103.147 17.3531L100.5 14.7066V23.4996C100.5 23.7756 100.277 23.9996 100 23.9996C99.7236 23.9996 99.5001 23.7756 99.5001 23.4996V14.7066L96.8536 17.3531C96.6581 17.5486 96.3421 17.5486 96.1466 17.3531Z" fill="#2A9FFF"></path></svg>