<svg width="80" height="80" viewBox="0 0 80 80" fill="none" xmlns="http://www.w3.org/2000/svg">
<rect x="4" y="4" width="72" height="72" rx="12" fill="white"/>
<path d="M28.6573 56.7315H36.0033C36.3614 56.7315 36.6974 56.594 36.9519 56.3395C37.2039 56.0875 37.3439 55.7515 37.3439 55.3909L37.3413 51.885C37.3413 51.146 36.7398 50.5444 36.0008 50.5444H27.6824C26.9434 50.5444 26.3418 51.146 26.3418 51.885V59.265C26.3418 60.004 26.9434 60.6056 27.6824 60.6056H36.0033C36.7423 60.6056 37.3439 60.004 37.3439 59.265V58.2714H28.6573V56.7315ZM28.6573 52.8786H35.0225V54.3999H28.6573V52.8786Z" fill="#FAAF4D"/>
<path d="M24.7929 58.4301V60.6565L18.7738 60.6624C18.0365 60.6624 17.3128 60.4096 16.7375 59.948C15.9662 59.327 15.5208 58.4047 15.5208 57.4154L15.5098 47.658H17.9746L17.989 57.4298C17.989 57.7361 18.1247 58.0229 18.3606 58.2129C18.5397 58.3572 18.7662 58.4395 18.9987 58.4395L24.7929 58.4301Z" fill="#FAAF4D"/>
<path d="M47.6909 57.9558L48.004 57.624V55.8745L47.7274 55.5801H41.8238C41.0423 55.5801 40.2931 55.2653 39.7467 54.707L39.7009 54.6603C39.1689 54.1173 38.8711 53.3868 38.8711 52.6257V50.6802C38.8711 49.9148 39.1732 49.1801 39.7119 48.6354C40.2584 48.083 41.0025 47.7725 41.7788 47.7725H50.9499L49.5873 50.4799H41.8908L41.6142 50.7743V52.5604L41.8908 52.8548H47.8123C48.5835 52.8548 49.3234 53.1611 49.8681 53.7067L49.8953 53.7338C50.4408 54.2794 50.7471 55.0184 50.7471 55.7896V57.7352C50.7471 58.5115 50.4366 59.2556 49.8842 59.8021L49.8656 59.8207C49.3209 60.3595 48.5861 60.6616 47.8208 60.6616H38.6318L39.9945 57.9549H47.6909V57.9558Z" fill="#038181"/>
<path d="M53.0104 48.8695L53.4889 48.391C53.8835 47.9956 54.4197 47.7742 54.978 47.7742H64.4715L63.1275 50.4808H55.4311L55.1367 50.7752V57.6614L55.4311 57.9558H63.164L64.4893 60.6624H55.0153C54.457 60.6624 53.9208 60.4401 53.5263 60.0456L53.0104 59.5297C52.6159 59.1352 52.3936 58.5989 52.3936 58.0406V50.3586C52.3936 49.8003 52.6159 49.2641 53.0104 48.8695Z" fill="#038181"/>
<path d="M30.1057 33.7736V27.6366C30.1057 27.3218 30.2143 27.0164 30.4119 26.772C30.6724 26.4505 31.0644 26.2638 31.4785 26.2638H41.8213L40.6835 24.3726H31.4988C30.5808 24.3726 29.7111 24.7883 29.135 25.5036C28.7006 26.0432 28.4639 26.7143 28.4639 27.4067V33.7736H30.1057Z" fill="#038181"/>
<path d="M31.9209 22.9488L37.4343 19.7653C38.0341 19.4191 38.7341 19.2885 39.418 19.3945C40.3258 19.5354 41.12 20.0801 41.579 20.876L46.1718 28.8304L45.1027 30.7615L39.9313 21.8042C39.7243 21.4461 39.3671 21.2001 38.9581 21.1347C38.6467 21.0855 38.3285 21.1441 38.0562 21.3019L32.7414 24.3708L31.9209 22.9488Z" fill="#038181"/>
<path d="M43.0225 20.5298L48.5358 23.7132C49.1357 24.0594 49.599 24.6007 49.8484 25.2464C50.1802 26.1025 50.1055 27.0638 49.6465 27.8589L45.0537 35.8133L42.8469 35.8531L48.0183 26.8959C48.2253 26.5378 48.2592 26.1051 48.1116 25.7182C47.9988 25.4238 47.7883 25.1777 47.516 25.0199L42.2012 21.951L43.0225 20.5298Z" fill="#038181"/>
<path d="M50.6688 28.9348V35.3017C50.6688 35.9941 50.4321 36.6661 49.9977 37.2048C49.4216 37.9201 48.5528 38.3359 47.6339 38.3359H38.4483L37.3105 36.4446H47.6534C48.0674 36.4446 48.4586 36.258 48.7199 35.9364C48.9185 35.692 49.0262 35.3866 49.0262 35.0718V28.9348H50.6688Z" fill="#038181"/>
<path d="M46.3923 38.3375L47.2128 39.7595L41.6995 42.9429C41.0996 43.2891 40.3996 43.4198 39.7157 43.3137C38.8079 43.1729 38.0137 42.6282 37.5547 41.8323L32.9619 33.8779L34.031 31.9468L39.2024 40.9041C39.4094 41.2621 39.7666 41.5082 40.1756 41.5735C40.487 41.6227 40.8052 41.5642 41.0775 41.4064L46.3923 38.3375Z" fill="#038181"/>
<path d="M36.9321 40.7563L36.1116 42.1783L30.5983 38.9949C29.9984 38.6487 29.5351 38.1074 29.2857 37.4617C28.9539 36.6056 29.0286 35.6443 29.4876 34.8493L34.0804 26.8949L36.2872 26.855L31.1158 35.8123C30.9088 36.1703 30.8749 36.603 31.0225 36.9899C31.1353 37.2844 31.3458 37.5304 31.6181 37.6882L36.9321 40.7563Z" fill="#038181"/>
<path d="M35.1426 31.3875L37.4063 27.6169L41.8039 27.6925L43.937 31.5377L41.6732 35.3083L37.2765 35.2337L35.1426 31.3875Z" fill="#FAAF4D"/>
</svg>
