<svg width="80" height="80" viewBox="0 0 80 80" fill="none" xmlns="http://www.w3.org/2000/svg">
<rect x="4" y="4" width="72" height="72" rx="12" fill="white"/>
<path d="M38.1049 47.5192C38.6047 47.0194 39.2824 46.7385 39.9896 46.7385H48.3043L47.0951 49.2066H40.0607L39.7923 49.475V55.7543L40.0607 56.0065H45.3659L45.6344 55.7543V53.8572H41.7899L41.8379 51.3891H46.9635C47.6204 51.3891 48.1527 51.9214 48.1527 52.5783V55.7999C48.1527 56.5016 47.8757 57.1755 47.3821 57.6745L47.3573 57.7001C46.8568 58.2061 46.1744 58.4908 45.4626 58.4908H40.0066C39.2901 58.4908 38.6031 58.2022 38.1018 57.69L38.0848 57.673C37.5973 57.1747 37.3242 56.5055 37.3242 55.8084V49.4039C37.3234 48.6967 37.6043 48.019 38.1049 47.5192Z" fill="#298C43"/>
<path d="M52.6423 46.7385H54.9162C55.6071 46.7385 56.2701 47.0078 56.7653 47.4898L57.2357 47.9478L57.7061 47.4898C58.2013 47.0085 58.8643 46.7385 59.5552 46.7385H61.8376C62.5455 46.7385 63.224 47.0217 63.7223 47.5254C64.2136 48.0221 64.489 48.6921 64.489 49.3899V58.4916H62.0209V49.475L61.7525 49.2228H59.2341L58.4953 49.9617V58.4908H56.0102V49.9454C55.8872 49.8224 55.7719 49.7017 55.6659 49.5841C55.5591 49.4665 55.4392 49.3466 55.3046 49.2228H52.7189L52.4505 49.475V58.4908H49.9824V49.3977C49.9824 48.6944 50.2617 48.0205 50.7592 47.523L50.7677 47.5145C51.2652 47.0178 51.9391 46.7385 52.6423 46.7385Z" fill="#298C43"/>
<path d="M27.4989 54.9063H34.1966C34.5231 54.9063 34.8295 54.781 35.0616 54.5489C35.2914 54.3191 35.4191 54.0127 35.4191 53.6839L35.4167 50.4871C35.4167 49.8132 34.8682 49.2646 34.1943 49.2646H26.6091C25.9353 49.2646 25.3867 49.8132 25.3867 50.4871V57.2166C25.3867 57.8904 25.9353 58.439 26.6091 58.439H34.1966C34.8705 58.439 35.4191 57.8904 35.4191 57.2166V56.3106H27.4989V54.9063ZM27.4989 51.3931H33.303V52.7803H27.4989V51.3931Z" fill="#FAAF4D"/>
<path d="M23.9746 56.455V58.4852L18.4861 58.4906C17.8138 58.4906 17.1538 58.26 16.6293 57.8391C15.926 57.2728 15.5198 56.4318 15.5198 55.5297L15.5098 46.6323H17.7573L17.7705 55.5428C17.7705 55.8221 17.8943 56.0836 18.1093 56.2569C18.2726 56.3885 18.4792 56.4635 18.6912 56.4635L23.9746 56.455Z" fill="#FAAF4D"/>
<path d="M31.2543 34.9003V29.2268C31.2543 28.9359 31.3541 28.6535 31.5375 28.4276C31.7781 28.1305 32.1409 27.958 32.5231 27.958H42.0843L41.0329 26.2095H32.5417C31.693 26.2095 30.8891 26.594 30.3568 27.2555C29.9553 27.7537 29.7363 28.375 29.7363 29.0148V34.9003H31.2543Z" fill="#298C43"/>
<path d="M32.9316 24.8933L38.0287 21.9503C38.5834 21.6299 39.2302 21.5093 39.8623 21.6075C40.701 21.7383 41.436 22.2412 41.8607 22.9769L46.1067 30.3308L45.1187 32.1157L40.3381 23.8357C40.147 23.5046 39.8166 23.2771 39.4383 23.2168C39.1505 23.1711 38.8565 23.2253 38.6043 23.3707L33.6914 26.2071L32.9316 24.8933Z" fill="#298C43"/>
<path d="M43.1945 22.6567L48.2916 25.5998C48.8463 25.9201 49.2741 26.4199 49.5055 27.0172C49.8118 27.8087 49.743 28.6969 49.319 29.4319L45.073 36.7857L43.0328 36.8221L47.8134 28.5421C48.0045 28.211 48.0362 27.811 47.8993 27.4536C47.7949 27.182 47.6007 26.9538 47.3484 26.8083L42.4355 23.972L43.1945 22.6567Z" fill="#298C43"/>
<path d="M50.2632 30.4268V36.3122C50.2632 36.952 50.0443 37.5733 49.6427 38.0715C49.1104 38.733 48.3066 39.1175 47.4579 39.1175H38.9675L37.916 37.369H47.4772C47.8594 37.369 48.2223 37.1965 48.4629 36.8994C48.6462 36.6735 48.746 36.3911 48.746 36.1002V30.4268H50.2632Z" fill="#298C43"/>
<path d="M46.3096 39.119L47.0686 40.4335L41.9716 43.3766C41.4168 43.6969 40.7701 43.8176 40.138 43.7194C39.2993 43.5886 38.5643 43.0857 38.1395 42.3499L33.8936 34.9961L34.8815 33.2112L39.6621 41.4911C39.8532 41.8223 40.1836 42.0497 40.5619 42.1101C40.8497 42.1557 41.1437 42.1016 41.396 41.9561L46.3096 39.119Z" fill="#298C43"/>
<path d="M37.5646 41.3558L36.8056 42.6703L31.7086 39.7272C31.1539 39.4069 30.726 38.9071 30.4947 38.3098C30.1883 37.5183 30.2572 36.6301 30.6811 35.8951L34.9271 28.5412L36.9673 28.5049L32.1867 36.7848C31.9956 37.116 31.9639 37.516 32.1008 37.8734C32.2053 38.145 32.3995 38.3732 32.6517 38.5187L37.5646 41.3558Z" fill="#298C43"/>
<path d="M35.9111 32.6944L38.0039 29.209L42.0689 29.2786L44.041 32.8337L41.9482 36.3191L37.8833 36.2503L35.9111 32.6944Z" fill="#FAAF4D"/>
</svg>
