<svg width="159" height="60" viewBox="0 0 159 60" fill="none" xmlns="http://www.w3.org/2000/svg">
<g clip-path="url(#clip0_848_2621)">
<path d="M95.4732 58.6569C94.7024 59.4478 93.6802 59.8465 92.4131 59.8465H90.0944C89.6861 59.8465 89.4836 59.6439 89.4836 59.2353V52.1039C89.4836 51.6953 89.6861 51.4927 90.0944 51.4927H92.4131C93.6835 51.4927 94.7024 51.8881 95.4732 52.6823C96.2243 53.4537 96.5999 54.4505 96.5999 55.6729C96.5999 56.8952 96.2243 57.8921 95.4732 58.6634V58.6569ZM94.6045 53.4569C94.0623 52.8817 93.3177 52.5941 92.3772 52.5941H90.6887V58.7451H92.3772C93.321 58.7451 94.0623 58.4575 94.6045 57.8823C95.1335 57.3234 95.4013 56.5847 95.4013 55.6696C95.4013 54.7545 95.1368 54.0191 94.6045 53.4569Z" fill="white"/>
<path d="M99.5293 59.3299C99.5293 59.7384 99.3301 59.9411 98.9349 59.9411C98.5398 59.9411 98.3242 59.7384 98.3242 59.3299V52.0023C98.3242 51.5937 98.5267 51.3911 98.9349 51.3911C99.3432 51.3911 99.5293 51.5937 99.5293 52.0023V59.3299Z" fill="white"/>
<path d="M109 58.2645C109 58.4409 108.955 58.5717 108.86 58.6632C108.056 59.5522 106.936 59.9999 105.499 59.9999C104.242 59.9999 103.217 59.5881 102.42 58.7612C101.639 57.9474 101.25 56.9179 101.25 55.6694C101.25 54.4209 101.649 53.3718 102.449 52.558C103.246 51.7441 104.252 51.3389 105.473 51.3389C106.045 51.3389 106.564 51.4238 107.034 51.5905C107.54 51.7736 107.965 52.0481 108.308 52.4109C108.435 52.5318 108.497 52.6658 108.497 52.8096C108.497 53.1757 108.314 53.362 107.945 53.362C107.815 53.362 107.681 53.3129 107.54 53.2149C106.874 52.7116 106.185 52.4599 105.473 52.4599C104.585 52.4599 103.853 52.7737 103.288 53.3979C102.743 54.0026 102.469 54.7608 102.469 55.6694C102.469 56.578 102.727 57.3755 103.239 57.9801C103.795 58.6338 104.546 58.9606 105.499 58.9606C106.453 58.9606 107.253 58.709 107.818 58.2089V56.6662H105.829C105.457 56.6662 105.271 56.4832 105.271 56.1139C105.271 55.7446 105.457 55.5746 105.829 55.5746H108.393C108.798 55.5746 109 55.7773 109 56.1891V58.271V58.2645Z" fill="white"/>
<path d="M112.083 59.3299C112.083 59.7384 111.884 59.9411 111.489 59.9411C111.094 59.9411 110.878 59.7384 110.878 59.3299V52.0023C110.878 51.5937 111.081 51.3911 111.489 51.3911C111.897 51.3911 112.083 51.5937 112.083 52.0023V59.3299Z" fill="white"/>
<path d="M119.99 52.6168H117.645V59.33C117.645 59.7385 117.449 59.9412 117.057 59.9412C116.646 59.9412 116.44 59.7385 116.44 59.33V52.6168H114.072C113.69 52.6168 113.497 52.4338 113.497 52.0645C113.497 51.6952 113.69 51.4893 114.072 51.4893H119.99C120.372 51.4893 120.565 51.6821 120.565 52.0645C120.565 52.4469 120.372 52.6168 119.99 52.6168Z" fill="white"/>
<path d="M129.088 59.1307C129.127 59.2287 129.15 59.3137 129.15 59.3823C129.15 59.7582 128.961 59.9445 128.589 59.9445C128.331 59.9445 128.151 59.8268 128.05 59.5948L127.21 57.7645H123.269L122.429 59.5948C122.328 59.8268 122.148 59.9445 121.89 59.9445C121.515 59.9445 121.329 59.7582 121.329 59.3823C121.329 59.3137 121.348 59.2287 121.391 59.1307L124.702 51.7442C124.8 51.5122 124.98 51.3945 125.241 51.3945C125.502 51.3945 125.682 51.5122 125.78 51.7442L129.091 59.1307H129.088ZM125.238 53.1431L123.706 56.6958H126.766L125.235 53.1431H125.238Z" fill="white"/>
<path d="M131.338 59.8464C130.93 59.8464 130.728 59.6438 130.728 59.2353V52.0057C130.728 51.5972 130.93 51.3945 131.338 51.3945C131.747 51.3945 131.933 51.5972 131.933 52.0057V58.7189H135.93C136.306 58.7189 136.492 58.9019 136.492 59.2712C136.492 59.6405 136.303 59.8464 135.93 59.8464H131.338Z" fill="white"/>
<path d="M105.437 24.7251H101.319V45.3286H105.437V24.7251Z" fill="white"/>
<path d="M97.2073 24.7116L85.888 35.0134L97.2008 45.3086H91.0251C91.0251 45.3086 81.3158 36.4613 81.3126 36.4547C80.4635 35.6834 80.5614 34.2453 81.3126 33.5524L91.0317 24.7051H97.2073V24.7116Z" fill="white"/>
<path d="M78.6803 24.7119H74.5686V45.3089H78.6803V24.7119Z" fill="white"/>
<path d="M30.0391 45.3088H47.9162L36.3389 25.2446C35.5094 23.8098 33.4421 23.8098 32.6158 25.2446L21.0417 45.3088H25.8164L28.1972 41.1842L34.4774 30.2941L40.7608 41.1842H32.4199L30.0391 45.3088Z" fill="white"/>
<path d="M21.0385 39.1448C21.0385 39.8671 20.9144 40.56 20.6857 41.2039C19.8399 43.6061 17.5505 45.3252 14.8595 45.3252H0L2.37752 41.2039H14.8595C15.996 41.2039 16.9202 40.2822 16.9202 39.1448C16.9202 38.0074 15.996 37.0858 14.8595 37.0858H6.17568C3.57281 37.0858 1.34552 35.4745 0.437621 33.1932C0.15676 32.484 0 31.7159 0 30.9054C0 30.0948 0.15676 29.3235 0.437621 28.6175C1.34552 26.3362 3.56955 24.7217 6.17568 24.7217H21.0254L18.6609 28.843H6.17568C5.03917 28.843 4.11821 29.7647 4.11821 30.9021C4.11821 32.0395 5.03917 32.9611 6.17568 32.9611H14.8595C17.5473 32.9611 19.8366 34.6803 20.6857 37.0825C20.9144 37.7264 21.0385 38.4193 21.0385 39.1416V39.1448Z" fill="white"/>
<path d="M59.1931 22.6431C52.8346 22.6431 47.6746 27.8038 47.6746 34.1705C47.6746 40.5372 52.8313 45.6979 59.1931 45.6979C65.555 45.6979 70.7117 40.5372 70.7117 34.1705C70.7117 27.8038 65.555 22.6431 59.1931 22.6431ZM59.1931 41.5765C55.1076 41.5765 51.7928 38.2624 51.7928 34.1705C51.7928 30.0785 55.1076 26.7644 59.1931 26.7644C63.2787 26.7644 66.5935 30.0818 66.5935 34.1705C66.5935 38.2591 63.2787 41.5765 59.1931 41.5765Z" fill="white"/>
<path d="M136.325 28.8429V45.3251H132.207V28.8331L130.143 32.4086L127.792 36.4843L127.269 37.3896C126.936 37.8243 126.521 38.1936 126.045 38.4649C125.44 38.8146 124.738 39.0139 123.994 39.0139C123.249 39.0139 122.521 38.808 121.91 38.4485C121.332 38.1086 120.842 37.6314 120.489 37.0595L120.375 36.8568L117.811 32.4054L115.747 28.8266V45.3218H111.629V28.8396C111.629 27.31 112.459 25.9766 113.693 25.2673C114.297 24.9176 114.999 24.7183 115.744 24.7183C117.237 24.7183 118.543 25.5125 119.265 26.7021C119.297 26.7577 119.33 26.8165 119.363 26.8754L121.933 31.3268L123.977 34.8697L126.028 31.3105L128.585 26.8819C128.618 26.8198 128.654 26.761 128.69 26.6989C129.415 25.5125 130.718 24.7183 132.21 24.7183C132.958 24.7183 133.66 24.9176 134.265 25.2673C135.499 25.9798 136.329 27.3133 136.329 28.8396L136.325 28.8429Z" fill="white"/>
<path d="M141.214 23.5354C140.901 22.4471 140.382 21.2051 139.232 20.0612C137.782 18.6133 135.421 18.2669 133.242 18.0577C134.47 18.1688 135.819 18.1525 138.174 18.0577C141.214 17.9335 140.476 20.4174 141.214 23.5354Z" fill="url(#paint0_linear_848_2621)"/>
<path d="M142.321 19.718C142.037 21.6169 141.355 24.31 141.776 25.7121C141.58 25.1565 141.463 24.3917 141.218 23.5387C140.479 20.4207 141.218 17.9368 138.177 18.0609C135.822 18.1557 134.474 18.1721 133.246 18.0609C131.717 17.9171 130.28 17.842 129.317 17.5119C130.502 17.8518 133.386 17.44 137.798 16.7471C141.498 16.1686 142.658 17.4759 142.321 19.7213V19.718Z" fill="url(#paint1_linear_848_2621)"/>
<path d="M128.092 16.1063H139.676C141.44 16.1063 142.87 17.4202 142.87 19.0413V26.7839C142.537 26.7839 141.972 26.4081 141.779 25.725C141.779 25.7152 141.773 25.7152 141.773 25.7086C141.355 24.3065 142.034 21.6167 142.318 19.7145C142.654 17.4692 141.492 16.1619 137.795 16.7404C133.383 17.4332 130.499 17.845 129.314 17.5051C129.284 17.4986 129.258 17.4888 129.229 17.479C129.183 17.4594 129.137 17.443 129.095 17.4267C129.082 17.4202 129.072 17.4136 129.056 17.4071C128.451 17.1456 128.089 16.7469 128.089 16.103L128.092 16.1063Z" fill="url(#paint2_linear_848_2621)"/>
<path d="M128.928 17.3483C128.928 17.3483 129.95 18.1752 135.336 16.6064C139.64 15.3514 141.436 17.0738 141.436 17.0738C141.436 17.0738 140.31 16.1652 136.077 17.2307C130.937 18.5249 128.931 17.3483 128.931 17.3483H128.928Z" fill="url(#paint3_linear_848_2621)"/>
<path d="M133.246 18.0576C133.246 18.0576 135.907 18.2798 137.7 18.3583C139.823 18.4531 140.414 20.1984 141.002 22.411C140.532 19.8617 141.521 18.3681 139.572 17.7144C137.697 17.0869 135.068 18.221 133.246 18.0543V18.0576Z" fill="url(#paint4_linear_848_2621)"/>
<path d="M145.878 7.31152C146.191 8.39988 146.711 9.64184 147.86 10.7858C149.31 12.2336 151.672 12.5801 153.85 12.7892C152.622 12.6781 151.273 12.6945 148.918 12.7892C145.878 12.9134 146.616 10.4295 145.878 7.31152Z" fill="url(#paint5_linear_848_2621)"/>
<path d="M144.771 11.1318C145.055 9.23291 145.738 6.53981 145.316 5.1377C145.512 5.69331 145.63 6.4581 145.875 7.31114C146.613 10.4291 145.875 12.9131 148.915 12.7889C151.27 12.6941 152.619 12.6777 153.847 12.7889C155.375 12.9327 156.812 13.0078 157.775 13.3379C156.59 12.998 153.706 13.4098 149.294 14.1027C145.594 14.6812 144.435 13.3739 144.771 11.1285V11.1318Z" fill="url(#paint6_linear_848_2621)"/>
<path d="M159 14.7436H147.416C145.653 14.7436 144.222 13.4297 144.222 11.8086V4.06592C144.555 4.06592 145.12 4.44178 145.313 5.12486C145.313 5.13466 145.319 5.13466 145.319 5.1412C145.738 6.54331 145.058 9.23315 144.774 11.1353C144.438 13.3807 145.6 14.688 149.297 14.1095C153.709 13.4166 156.593 13.0048 157.779 13.3447C157.808 13.3512 157.834 13.361 157.864 13.3709C157.909 13.3905 157.955 13.4068 157.997 13.4231C158.01 13.4297 158.02 13.4362 158.037 13.4428C158.641 13.7042 159.003 14.103 159.003 14.7468L159 14.7436Z" fill="url(#paint7_linear_848_2621)"/>
<path d="M158.164 13.5015C158.164 13.5015 157.142 12.6746 151.756 14.2434C147.452 15.4984 145.656 13.776 145.656 13.776C145.656 13.776 146.782 14.6846 151.015 13.6191C156.155 12.3249 158.161 13.5015 158.161 13.5015H158.164Z" fill="url(#paint8_linear_848_2621)"/>
<path d="M153.847 12.7924C153.847 12.7924 151.185 12.5701 149.392 12.4917C147.269 12.3969 146.678 10.6516 146.09 8.43896C146.561 10.9883 145.571 12.4819 147.521 13.1356C149.395 13.7631 152.024 12.629 153.847 12.7956V12.7924Z" fill="url(#paint9_linear_848_2621)"/>
<path d="M151.645 17.7637C150.558 18.0774 149.317 18.5971 148.174 19.7475C146.727 21.1987 146.381 23.5617 146.172 25.7417C146.283 24.5128 146.266 23.163 146.172 20.8065C146.048 17.7637 148.53 18.5023 151.645 17.7637Z" fill="url(#paint10_linear_848_2621)"/>
<path d="M147.831 16.6555C149.728 16.9398 152.419 17.6229 153.82 17.2013C153.265 17.3974 152.501 17.515 151.649 17.7602C148.533 18.4988 146.051 17.7602 146.175 20.803C146.27 23.1594 146.286 24.5093 146.175 25.7382C146.031 27.2677 145.956 28.7058 145.626 29.67C145.966 28.4836 145.555 25.5976 144.862 21.1821C144.284 17.4791 145.59 16.3188 147.834 16.6555H147.831Z" fill="url(#paint11_linear_848_2621)"/>
<path d="M144.222 30.8956V19.3029C144.222 17.538 145.535 16.1064 147.155 16.1064H154.891C154.891 16.4398 154.516 17.0052 153.833 17.1981C153.824 17.1981 153.824 17.2046 153.817 17.2046C152.416 17.623 149.728 16.9431 147.827 16.6588C145.584 16.3222 144.278 17.4857 144.856 21.1854C145.548 25.6009 145.959 28.4869 145.62 29.6733C145.613 29.7027 145.603 29.7288 145.594 29.7583C145.574 29.804 145.558 29.8498 145.541 29.8923C145.535 29.9053 145.528 29.9151 145.522 29.9315C145.261 30.5361 144.862 30.8989 144.219 30.8989L144.222 30.8956Z" fill="url(#paint12_linear_848_2621)"/>
<path d="M145.463 30.0587C145.463 30.0587 146.289 29.0357 144.722 23.6463C143.468 19.3386 145.189 17.541 145.189 17.541C145.189 17.541 144.281 18.6686 145.346 22.9043C146.639 28.0487 145.463 30.0555 145.463 30.0555V30.0587Z" fill="url(#paint13_linear_848_2621)"/>
<path d="M146.172 25.7384C146.172 25.7384 146.394 23.0747 146.472 21.2804C146.567 19.1559 148.311 18.5644 150.522 17.9761C147.974 18.4467 146.482 17.4564 145.829 19.4076C145.202 21.2836 146.335 23.9146 146.168 25.7384H146.172Z" fill="url(#paint14_linear_848_2621)"/>
<path d="M135.453 13.093C136.541 12.7792 137.779 12.2595 138.925 11.1156C140.368 9.66775 140.718 7.31128 140.924 5.14111C140.813 6.36347 140.829 7.71329 140.924 10.0599C141.048 13.093 138.569 12.3576 135.453 13.093Z" fill="url(#paint15_linear_848_2621)"/>
<path d="M139.265 14.1944C137.367 13.91 134.68 13.2302 133.282 13.6485C133.837 13.4524 134.601 13.3348 135.454 13.0897C138.566 12.3543 141.045 13.0897 140.924 10.0567C140.829 7.70672 140.813 6.36017 140.924 5.13782C141.064 3.61477 141.139 2.17998 141.472 1.21582C141.133 2.39896 141.544 5.27509 142.237 9.67753C142.815 13.3675 141.512 14.5277 139.268 14.1911L139.265 14.1944Z" fill="url(#paint16_linear_848_2621)"/>
<path d="M142.87 0V11.5568C142.87 13.3184 141.561 14.7434 139.941 14.7434H132.21C132.21 14.4101 132.586 13.8479 133.269 13.6551C133.275 13.6551 133.278 13.6485 133.285 13.6485C134.683 13.2302 137.37 13.91 139.268 14.1944C141.512 14.531 142.815 13.3707 142.237 9.68079C141.544 5.27835 141.133 2.40222 141.472 1.21909C141.479 1.18967 141.489 1.16353 141.498 1.13738C141.518 1.09162 141.534 1.04587 141.551 1.00338C141.557 0.990304 141.564 0.980499 141.57 0.967426C141.832 0.366053 142.23 0.00326833 142.873 0.00326833L142.87 0Z" fill="url(#paint17_linear_848_2621)"/>
<path d="M141.629 0.833496C141.629 0.833496 140.803 1.85322 142.37 7.22308C143.621 11.5177 141.903 13.3087 141.903 13.3087C141.903 13.3087 142.811 12.1844 141.747 7.96172C140.453 2.83371 141.629 0.833496 141.629 0.833496Z" fill="url(#paint18_linear_848_2621)"/>
<path d="M140.92 5.14111C140.92 5.14111 140.698 7.795 140.62 9.58604C140.525 11.7039 138.784 12.2922 136.573 12.8805C139.118 12.4099 140.61 13.4002 141.263 11.4555C141.89 9.58604 140.757 6.96157 140.924 5.14438L140.92 5.14111Z" fill="url(#paint19_linear_848_2621)"/>
</g>
<defs>
<linearGradient id="paint0_linear_848_2621" x1="137.135" y1="19.2506" x2="139.375" y2="23.8838" gradientUnits="userSpaceOnUse">
<stop stop-color="#EF4123"/>
<stop offset="1" stop-color="#FAA634"/>
</linearGradient>
<linearGradient id="paint1_linear_848_2621" x1="135.858" y1="17.8354" x2="140.471" y2="24.0517" gradientUnits="userSpaceOnUse">
<stop stop-color="#EF4123"/>
<stop offset="1" stop-color="#FAA634"/>
</linearGradient>
<linearGradient id="paint2_linear_848_2621" x1="127.687" y1="12.1189" x2="142.227" y2="21.7927" gradientUnits="userSpaceOnUse">
<stop stop-color="#EF4123"/>
<stop offset="1" stop-color="#FAA634"/>
</linearGradient>
<linearGradient id="paint3_linear_848_2621" x1="131.629" y1="15.518" x2="142.105" y2="20.3523" gradientUnits="userSpaceOnUse">
<stop stop-color="#EF4123"/>
<stop offset="1" stop-color="#FAA634"/>
</linearGradient>
<linearGradient id="paint4_linear_848_2621" x1="137.034" y1="18.4531" x2="140.202" y2="24.164" gradientUnits="userSpaceOnUse">
<stop stop-color="#EF4123"/>
<stop offset="1" stop-color="#FAA634"/>
</linearGradient>
<linearGradient id="paint5_linear_848_2621" x1="149.96" y1="11.5996" x2="147.717" y2="6.96643" gradientUnits="userSpaceOnUse">
<stop stop-color="#EF4123"/>
<stop offset="1" stop-color="#FAA634"/>
</linearGradient>
<linearGradient id="paint6_linear_848_2621" x1="151.234" y1="13.0144" x2="146.621" y2="6.79812" gradientUnits="userSpaceOnUse">
<stop stop-color="#EF4123"/>
<stop offset="1" stop-color="#FAA634"/>
</linearGradient>
<linearGradient id="paint7_linear_848_2621" x1="159.408" y1="18.7309" x2="144.865" y2="9.05713" gradientUnits="userSpaceOnUse">
<stop stop-color="#EF4123"/>
<stop offset="1" stop-color="#FAA634"/>
</linearGradient>
<linearGradient id="paint8_linear_848_2621" x1="155.466" y1="15.3317" x2="144.99" y2="10.4974" gradientUnits="userSpaceOnUse">
<stop stop-color="#EF4123"/>
<stop offset="1" stop-color="#FAA634"/>
</linearGradient>
<linearGradient id="paint9_linear_848_2621" x1="150.062" y1="12.3969" x2="146.893" y2="6.68593" gradientUnits="userSpaceOnUse">
<stop stop-color="#EF4123"/>
<stop offset="1" stop-color="#FAA634"/>
</linearGradient>
<linearGradient id="paint10_linear_848_2621" x1="147.364" y1="21.8458" x2="151.996" y2="19.6098" gradientUnits="userSpaceOnUse">
<stop stop-color="#EF4123"/>
<stop offset="1" stop-color="#FAA634"/>
</linearGradient>
<linearGradient id="paint11_linear_848_2621" x1="145.95" y1="23.1235" x2="152.168" y2="18.5164" gradientUnits="userSpaceOnUse">
<stop stop-color="#EF4123"/>
<stop offset="1" stop-color="#FAA634"/>
</linearGradient>
<linearGradient id="paint12_linear_848_2621" x1="140.238" y1="31.3009" x2="149.921" y2="16.7637" gradientUnits="userSpaceOnUse">
<stop stop-color="#EF4123"/>
<stop offset="1" stop-color="#FAA634"/>
</linearGradient>
<linearGradient id="paint13_linear_848_2621" x1="143.634" y1="27.3558" x2="148.477" y2="16.8771" gradientUnits="userSpaceOnUse">
<stop stop-color="#EF4123"/>
<stop offset="1" stop-color="#FAA634"/>
</linearGradient>
<linearGradient id="paint14_linear_848_2621" x1="146.567" y1="21.9471" x2="152.274" y2="18.7838" gradientUnits="userSpaceOnUse">
<stop stop-color="#EF4123"/>
<stop offset="1" stop-color="#FAA634"/>
</linearGradient>
<linearGradient id="paint15_linear_848_2621" x1="139.732" y1="9.02062" x2="135.109" y2="11.2534" gradientUnits="userSpaceOnUse">
<stop stop-color="#EF4123"/>
<stop offset="1" stop-color="#FAA634"/>
</linearGradient>
<linearGradient id="paint16_linear_848_2621" x1="141.143" y1="7.74921" x2="134.937" y2="12.3465" gradientUnits="userSpaceOnUse">
<stop stop-color="#EF4123"/>
<stop offset="1" stop-color="#FAA634"/>
</linearGradient>
<linearGradient id="paint17_linear_848_2621" x1="146.835" y1="-0.41181" x2="137.174" y2="14.0928" gradientUnits="userSpaceOnUse">
<stop stop-color="#EF4123"/>
<stop offset="1" stop-color="#FAA634"/>
</linearGradient>
<linearGradient id="paint18_linear_848_2621" x1="143.455" y1="3.5266" x2="138.625" y2="13.9726" gradientUnits="userSpaceOnUse">
<stop stop-color="#EF4123"/>
<stop offset="1" stop-color="#FAA634"/>
</linearGradient>
<linearGradient id="paint19_linear_848_2621" x1="140.525" y1="8.9193" x2="134.827" y2="12.0761" gradientUnits="userSpaceOnUse">
<stop stop-color="#EF4123"/>
<stop offset="1" stop-color="#FAA634"/>
</linearGradient>
<clipPath id="clip0_848_2621">
<rect width="159" height="60" fill="white"/>
</clipPath>
</defs>
</svg>
