<svg width="80" height="80" viewBox="0 0 80 80" fill="none" xmlns="http://www.w3.org/2000/svg">
<rect x="4" y="4" width="72" height="72" rx="12" fill="white"/>
<path d="M47.7159 56.9992L48.0216 56.6753V54.9669L47.7515 54.6794H41.9869C41.2239 54.6794 40.4923 54.3721 39.9588 53.8269L39.914 53.7814C39.3946 53.2511 39.1038 52.5378 39.1038 51.7946V49.8949C39.1038 49.1476 39.3987 48.4301 39.9248 47.8982C40.4583 47.3589 41.1849 47.0557 41.943 47.0557H50.8982L49.5676 49.6986H42.0524L41.7823 49.986V51.73L42.0524 52.0175H47.8344C48.5875 52.0175 49.3099 52.3166 49.8418 52.8493L49.8683 52.8758C50.4011 53.4085 50.7001 54.1302 50.7001 54.8833V56.783C50.7001 57.5411 50.3969 58.2676 49.8576 58.8012L49.8393 58.8194C49.3075 59.3455 48.59 59.6405 47.8427 59.6405H38.8701L40.2007 56.9976H47.7159V56.9992Z" fill="#F78E20"/>
<path d="M64.4726 47.0566L63.1777 49.6995H55.3393V52.0193H60.3012V54.6804H55.3393V57.0002H63.1959L64.4908 59.6431H54.08C53.3161 59.6431 52.6973 59.0242 52.6973 58.2603V48.4402C52.6973 47.6764 53.3161 47.0575 54.08 47.0575H64.4726V47.0566Z" fill="#F78E20"/>
<path d="M28.3488 55.8036H35.5219C35.8715 55.8036 36.1996 55.6693 36.4482 55.4208C36.6942 55.1747 36.8309 54.8467 36.8309 54.4945L36.8285 51.0712C36.8285 50.3496 36.2411 49.7622 35.5194 49.7622H27.3969C26.6753 49.7622 26.0879 50.3496 26.0879 51.0712V58.2774C26.0879 58.9991 26.6753 59.5865 27.3969 59.5865H35.5219C36.2435 59.5865 36.8309 58.9991 36.8309 58.2774V57.3064H28.3488V55.8036ZM28.3488 52.0406H34.5642V53.526H28.3488V52.0406Z" fill="#FAAF4D"/>
<path d="M24.5753 57.4624V59.6363L18.6979 59.6421C17.978 59.6421 17.2713 59.3952 16.7096 58.9445C15.9565 58.3381 15.5215 57.4375 15.5215 56.4715L15.5107 46.9438H17.9175L17.9316 56.4856C17.9316 56.7847 18.0642 57.0647 18.2945 57.2503C18.4693 57.3911 18.6905 57.4715 18.9175 57.4715L24.5753 57.4624Z" fill="#FAAF4D"/>
<path d="M30.6343 34.5613V28.486C30.6343 28.1745 30.7412 27.8721 30.9375 27.6302C31.1952 27.312 31.5837 27.1273 31.993 27.1273H42.2315L41.1056 25.2549H32.0129C31.104 25.2549 30.2432 25.6666 29.6732 26.375C29.2432 26.9086 29.0088 27.5738 29.0088 28.259V34.5613H30.6343Z" fill="#F78E20"/>
<path d="M32.4307 23.8458L37.8888 20.6942C38.4828 20.3512 39.1754 20.2219 39.8523 20.3272C40.7504 20.4672 41.5374 21.0057 41.9923 21.7936L46.539 29.6684L45.4811 31.5797L40.3618 22.7132C40.1572 22.3586 39.8034 22.115 39.3983 22.0504C39.0901 22.0015 38.7753 22.0595 38.5052 22.2153L33.2442 25.2525L32.4307 23.8458Z" fill="#F78E20"/>
<path d="M43.4202 21.4504L48.8783 24.602C49.4723 24.945 49.9305 25.4802 50.1782 26.1198C50.5063 26.9674 50.4325 27.9185 49.9785 28.7055L45.4318 36.5803L43.247 36.6193L48.3663 27.7528C48.5709 27.3982 48.6049 26.9698 48.4582 26.5871C48.3464 26.2963 48.1384 26.0519 47.8683 25.8961L42.6074 22.8589L43.4202 21.4504Z" fill="#F78E20"/>
<path d="M50.9895 29.771V36.0733C50.9895 36.7585 50.755 37.4238 50.325 37.9573C49.755 38.6657 48.8942 39.0774 47.9854 39.0774H38.8935L37.7676 37.2051H48.0061C48.4154 37.2051 48.8039 37.0203 49.0616 36.7022C49.2579 36.4602 49.3648 36.1578 49.3648 35.8463V29.771H50.9895Z" fill="#F78E20"/>
<path d="M46.7556 39.0793L47.5683 40.4869L42.1102 43.6385C41.5162 43.9815 40.8236 44.1107 40.1467 44.0055C39.2486 43.8655 38.4616 43.327 38.0067 42.5391L33.46 34.6643L34.5179 32.7529L39.6372 41.6194C39.8418 41.974 40.1956 42.2176 40.6007 42.2822C40.9089 42.3311 41.2238 42.2731 41.4938 42.1174L46.7556 39.0793Z" fill="#F78E20"/>
<path d="M37.3913 41.4744L36.5786 42.882L31.1205 39.7304C30.5264 39.3874 30.0683 38.8522 29.8206 38.2126C29.4925 37.3651 29.5662 36.4139 30.0202 35.6269L34.567 27.7521L36.7517 27.7131L31.6325 36.5796C31.4278 36.9342 31.3939 37.3626 31.5405 37.7453C31.6524 38.0361 31.8603 38.2805 32.1304 38.4363L37.3913 41.4744Z" fill="#F78E20"/>
<path d="M35.6211 32.1994L37.8622 28.467L42.2151 28.5416L44.3269 32.3485L42.0858 36.0809L37.7329 36.0071L35.6211 32.1994Z" fill="#FAAF4D"/>
</svg>
