<svg width="80" height="80" viewBox="0 0 80 80" fill="none" xmlns="http://www.w3.org/2000/svg">
<rect x="4" y="4" width="72" height="72" rx="12" fill="white"/>
<path d="M63.1473 47.8951L63.1748 47.9226C63.7042 48.4521 64.0014 49.1696 64.0014 49.918V50.8679C64.0014 51.6162 63.7042 52.3338 63.1748 52.8633L63.1523 52.8857L63.6626 53.396C64.192 53.9255 64.4892 54.6431 64.4892 55.3915V56.8924C64.4892 57.6458 64.1879 58.3683 63.6518 58.8986C63.1232 59.4214 62.4106 59.7144 61.6672 59.7144H52.873V47.0693H61.1519C61.9003 47.0693 62.6187 47.3665 63.1473 47.8951ZM55.5286 52.0366H61.0562L61.3275 51.7653V50.0129L61.0562 49.7415H55.5286V52.0366ZM55.5286 57.0406H61.5265L61.7979 56.7692V54.9802L61.5631 54.7455H55.5294V57.0406H55.5286Z" fill="#6E6F6F"/>
<path d="M47.8688 57.0588L48.176 56.7333V55.0168L47.9046 54.7279H42.1132C41.3465 54.7279 40.6114 54.4191 40.0753 53.8713L40.0303 53.8256C39.5084 53.2928 39.2162 52.576 39.2162 51.8293V49.9205C39.2162 49.1696 39.5126 48.4487 40.0412 47.9142C40.5773 47.3723 41.3073 47.0676 42.069 47.0676H51.0671L49.7302 49.7232H42.1789L41.9075 50.012V51.766L42.1789 52.0549H47.9887C48.7454 52.0549 49.4713 52.3554 50.0057 52.8907L50.0324 52.9173C50.5677 53.4526 50.8682 54.1777 50.8682 54.9344V56.8441C50.8682 57.6058 50.5635 58.3358 50.0216 58.8719L50.0032 58.8903C49.4688 59.4189 48.7479 59.7152 47.997 59.7152H38.9814L40.3184 57.0597H47.8688V57.0588Z" fill="#6E6F6F"/>
<path d="M28.4095 55.8574H35.6169C35.9682 55.8574 36.2979 55.7226 36.5476 55.4728C36.7949 55.2256 36.9322 54.8959 36.9322 54.5421L36.9297 51.1024C36.9297 50.3773 36.3395 49.7871 35.6144 49.7871H27.453C26.7279 49.7871 26.1377 50.3773 26.1377 51.1024V58.3432C26.1377 59.0682 26.7279 59.6584 27.453 59.6584H35.6169C36.342 59.6584 36.9322 59.0682 36.9322 58.3432V57.3683H28.4095V55.8574ZM28.4095 52.0772H34.6546V53.5698H28.4095V52.0772Z" fill="#FAAF4D"/>
<path d="M24.6177 57.524V59.7084L18.7122 59.7142C17.9888 59.7142 17.2787 59.4662 16.7143 59.0133C15.9576 58.4039 15.5206 57.499 15.5206 56.5284L15.5098 46.9551H17.9281L17.9422 56.5425C17.9422 56.8431 18.0754 57.1244 18.3068 57.3109C18.4825 57.4524 18.7048 57.5332 18.9329 57.5332L24.6177 57.524Z" fill="#FAAF4D"/>
<path d="M30.313 34.5132V28.4087C30.313 28.0957 30.4204 27.7919 30.6177 27.5488C30.8766 27.2291 31.267 27.0435 31.6782 27.0435H41.9658L40.8345 25.1621H31.6982C30.785 25.1621 29.9201 25.5758 29.3473 26.2876C28.9153 26.8237 28.6797 27.4922 28.6797 28.1806V34.5132H30.313Z" fill="#6E6F6F"/>
<path d="M32.1182 23.7461L37.6024 20.5794C38.1993 20.2348 38.8952 20.1049 39.5754 20.2106C40.4777 20.3513 41.2686 20.8924 41.7256 21.6841L46.2942 29.5966L45.2311 31.5171L40.0873 22.6081C39.8817 22.2518 39.5262 22.0071 39.1192 21.9421C38.8095 21.893 38.4932 21.9513 38.2218 22.1078L32.9356 25.1596L32.1182 23.7461Z" fill="#6E6F6F"/>
<path d="M43.1604 21.3403L48.6447 24.507C49.2415 24.8517 49.7019 25.3894 49.9508 26.0321C50.2804 26.8837 50.2064 27.8394 49.7502 28.6302L45.1816 36.5428L42.9864 36.5819L48.1302 27.6729C48.3358 27.3166 48.3699 26.8862 48.2226 26.5016C48.1102 26.2094 47.9013 25.9638 47.6299 25.8073L42.3438 22.7555L43.1604 21.3403Z" fill="#6E6F6F"/>
<path d="M50.7657 29.7007V36.0332C50.7657 36.7217 50.5301 37.3901 50.0981 37.9262C49.5254 38.638 48.6604 39.0517 47.7472 39.0517H38.6118L37.4805 37.1704H47.768C48.1793 37.1704 48.5697 36.9847 48.8286 36.6651C49.0259 36.422 49.1333 36.1181 49.1333 35.8051V29.7007H50.7657Z" fill="#6E6F6F"/>
<path d="M46.5117 39.0525L47.3283 40.4668L41.8441 43.6335C41.2472 43.9782 40.5513 44.108 39.8711 44.0023C38.9688 43.8616 38.1779 43.3205 37.7209 42.5288L33.1523 34.6163L34.2154 32.6958L39.3592 41.6048C39.5648 41.9611 39.9203 42.2058 40.3273 42.2708C40.637 42.3199 40.9533 42.2616 41.2247 42.1051L46.5117 39.0525Z" fill="#6E6F6F"/>
<path d="M37.1014 41.4593L36.2848 42.8736L30.8005 39.7069C30.2036 39.3623 29.7433 38.8245 29.4944 38.1819C29.1647 37.3303 29.2388 36.3746 29.695 35.5838L34.2636 27.6712L36.4588 27.6321L31.3158 36.5419C31.1102 36.8982 31.0761 37.3286 31.2234 37.7132C31.3358 38.0054 31.5447 38.251 31.8161 38.4075L37.1014 41.4593Z" fill="#6E6F6F"/>
<path d="M35.3232 32.1407L37.5742 28.3896L41.9488 28.4646L44.0708 32.2897L41.8189 36.0408L37.4452 35.9659L35.3232 32.1407Z" fill="#FAAF4D"/>
</svg>
