<svg width="80" height="80" viewBox="0 0 80 80" fill="none" xmlns="http://www.w3.org/2000/svg">
<rect x="4" y="4" width="72" height="72" rx="12" fill="white"/>
<path d="M30.492 34.4285V28.2607C30.492 27.9445 30.6005 27.6375 30.7999 27.3919C31.0614 27.0689 31.4559 26.8813 31.8714 26.8813H42.2657L41.1226 24.9805H31.8916C30.9689 24.9805 30.095 25.3985 29.5164 26.1176C29.0798 26.6593 28.8418 27.3347 28.8418 28.0303V34.4285H30.492Z" fill="#6FCBDC"/>
<path d="M32.3154 23.5497L37.8566 20.3502C38.4596 20.002 39.1628 19.8708 39.85 19.9776C40.7617 20.1197 41.5608 20.6665 42.0225 21.4663L46.6385 29.461L45.5644 31.4014L40.3672 22.4C40.1595 22.04 39.8003 21.7927 39.389 21.7271C39.0762 21.6775 38.7565 21.7363 38.4823 21.8945L33.1414 24.9779L32.3154 23.5497Z" fill="#6FCBDC"/>
<path d="M43.4726 21.1182L49.0137 24.3177C49.6168 24.6659 50.0819 25.2093 50.3334 25.8586C50.6665 26.719 50.5916 27.6846 50.1307 28.4837L45.5148 36.4783L43.2968 36.5178L48.4939 27.5164C48.7017 27.1564 48.7362 26.7216 48.5873 26.333C48.4737 26.0377 48.2626 25.7896 47.9884 25.6315L42.6475 22.548L43.4726 21.1182Z" fill="#6FCBDC"/>
<path d="M51.1574 29.5654V35.9637C51.1574 36.6592 50.9194 37.3346 50.4829 37.8763C49.9042 38.5954 49.0303 39.0135 48.1076 39.0135H38.8774L37.7344 37.1126H48.1286C48.5441 37.1126 48.9386 36.925 49.2002 36.602C49.3995 36.3564 49.508 36.0494 49.508 35.7332V29.5654H51.1574Z" fill="#6FCBDC"/>
<path d="M46.8592 39.0149L47.6844 40.4439L42.1432 43.6435C41.5401 43.9917 40.837 44.1229 40.1498 44.0161C39.2381 43.8739 38.439 43.3272 37.9773 42.5273L33.3613 34.5327L34.4354 32.5923L39.6325 41.5937C39.8403 41.9537 40.1994 42.201 40.6107 42.2666C40.9236 42.3162 41.2432 42.2573 41.5174 42.0992L46.8592 39.0149Z" fill="#6FCBDC"/>
<path d="M37.3524 41.4467L36.5272 42.8757L30.9861 39.6762C30.383 39.328 29.9179 38.7846 29.6664 38.1353C29.3333 37.2749 29.4082 36.3093 29.8691 35.5102L34.4851 27.5156L36.703 27.4761L31.5059 36.4775C31.2981 36.8375 31.2637 37.2723 31.4125 37.6609C31.5261 37.9561 31.7372 38.2043 32.0114 38.3624L37.3524 41.4467Z" fill="#6FCBDC"/>
<path d="M35.5547 32.0304L37.8299 28.2412L42.249 28.3169L44.3929 32.1818L42.1178 35.9709L37.6986 35.896L35.5547 32.0304Z" fill="#FAAF4D"/>
<path d="M49.8411 47.8871L50.3945 48.4347C50.7806 48.8174 50.9984 49.338 50.9984 49.8822V57.5034C50.9984 58.04 50.7865 58.5547 50.4096 58.9358L49.8806 59.4707C49.4979 59.8576 48.9773 60.0746 48.4331 60.0746H39.2256V47.2983H48.4087C48.9453 47.2983 49.46 47.5095 49.8411 47.8871ZM41.9087 57.3738H47.9688L48.243 57.0996V50.2371L48.0058 49.9999H41.9087V57.3738Z" fill="#6FCBDC"/>
<path d="M28.5434 56.1777H35.8256C36.1806 56.1777 36.5136 56.0415 36.766 55.7891C37.0158 55.5393 37.1545 55.2062 37.1545 54.8488L37.152 51.3734C37.152 50.6408 36.5557 50.0444 35.8231 50.0444H27.577C26.8444 50.0444 26.248 50.6408 26.248 51.3734V58.6892C26.248 59.4218 26.8444 60.0182 27.577 60.0182H35.8256C36.5582 60.0182 37.1545 59.4218 37.1545 58.6892V57.7043H28.5434V56.1777ZM28.5434 52.3583H34.8533V53.8664H28.5434V52.3583Z" fill="#FAAF4D"/>
<path d="M24.7122 57.8617V60.0687L18.7455 60.0746C18.0146 60.0746 17.2971 59.824 16.7268 59.3664C15.9623 58.7507 15.5207 57.8364 15.5207 56.8557L15.5098 47.1831H17.9532L17.9674 56.87C17.9674 57.1737 18.102 57.4579 18.3359 57.6464C18.5133 57.7893 18.7379 57.8709 18.9684 57.8709L24.7122 57.8617Z" fill="#FAAF4D"/>
<path d="M63.1337 48.1337L63.1615 48.1614C63.6964 48.6964 63.9967 49.4214 63.9967 50.1776V51.1372C63.9967 51.8934 63.6964 52.6184 63.1615 53.1534L63.1388 53.1761L63.6544 53.6917C64.1893 54.2266 64.4896 54.9516 64.4896 55.7078V57.2243C64.4896 57.9855 64.1851 58.7155 63.6434 59.2513C63.1093 59.7795 62.3894 60.0756 61.6383 60.0756H52.7529V47.2993H61.1176C61.8738 47.2985 62.5988 47.5987 63.1337 48.1337ZM55.436 52.3173H61.0209L61.2951 52.0431V50.2726L61.0209 49.9984H55.436V52.3173ZM55.436 57.374H61.4961L61.7703 57.0998V55.2923L61.5331 55.0551H55.4369V57.374H55.436Z" fill="#6FCBDC"/>
</svg>
