<svg xmlns="http://www.w3.org/2000/svg" width="90" height="90" viewBox="0 0 90 90" fill="none"><rect width="90" height="90" rx="8" fill="white"></rect><path d="M18.7736 53.5498C18.7736 51.5148 18.7736 49.4798 18.7736 47.3433C17.7405 47.3433 16.78 47.3433 15.7407 47.3433C15.7407 46.3061 15.7407 45.3683 15.7407 44.3602C13.6415 44.3602 11.6231 44.3602 9.49493 44.3602C9.49493 45.3124 9.49493 46.273 9.49493 47.3226C8.5592 47.3226 7.72698 47.3516 6.90097 47.2978C6.74364 47.2874 6.48279 46.9562 6.47865 46.7678C6.44553 44.9812 6.46002 43.1946 6.46002 41.2735C7.46614 41.2735 8.42257 41.2735 9.54669 41.2735C9.54669 40.1225 9.54669 39.1039 9.54669 38.0833L9.51563 38.1082C11.5941 38.1082 13.6726 38.1082 15.749 38.1082L15.7262 38.0854C15.7055 38.8079 15.718 39.5324 15.6538 40.2529C15.5875 40.994 15.8049 41.2776 16.6102 41.2569C18.3347 41.2114 20.0612 41.2797 21.7857 41.3004L21.765 41.2797C21.765 42.2734 21.765 43.2671 21.765 44.2587C29.0956 44.2587 36.2357 44.2587 43.4793 44.2587C43.4793 43.2381 43.4793 42.2755 43.4793 41.2404C44.3343 41.2404 45.0858 41.2197 45.8352 41.2466C46.3486 41.2652 46.5929 41.1327 46.5888 40.551C46.5639 37.897 46.5681 35.2409 46.5867 32.5869C46.5908 32.0238 46.3735 31.8603 45.8414 31.8851C45.0713 31.9203 44.2991 31.8934 43.4255 31.8934C43.4255 30.8148 43.4255 29.8543 43.4255 28.8544C42.3469 28.8544 41.3719 28.8544 40.3968 28.8544L40.4216 28.8792C40.4216 27.8855 40.4216 26.8939 40.4216 25.8194C41.287 25.8194 42.0364 25.8008 42.7837 25.8257C43.2827 25.8443 43.4897 25.6704 43.4669 25.1528C43.4296 24.3186 43.4462 23.4801 43.44 22.6438L43.4172 22.6665C44.4151 22.6686 45.4129 22.6686 46.4087 22.6707C46.4811 23.6851 46.5536 24.6974 46.6281 25.7573C48.6445 25.7573 50.6381 25.7573 52.7455 25.7573C52.7455 23.6933 52.7455 21.6956 52.7455 19.6751C53.0788 19.6585 53.3004 19.6399 53.5219 19.6378C56.1055 19.613 56.1055 19.613 55.8405 17.0087C55.8343 16.9528 55.8571 16.8762 55.8281 16.8451C55.7121 16.7168 55.5797 16.5015 55.4534 16.4994C53.5322 16.4766 51.6111 16.4849 49.5823 16.4849C49.5823 18.58 49.5823 20.5756 49.5823 22.6872C48.4478 22.6872 47.4189 22.6872 46.39 22.6872C46.477 21.6935 46.5639 20.6998 46.655 19.6254C45.4481 19.6254 44.4316 19.6254 43.4172 19.6254L43.44 19.6482C43.44 18.5758 43.44 17.5034 43.44 16.4311L43.4193 16.4559C44.2846 16.4725 45.1521 16.4766 46.0153 16.5077C46.4687 16.5242 46.5908 16.311 46.5826 15.897C46.5639 15.1186 46.5764 14.3381 46.5764 13.4459C47.6052 13.4459 48.5658 13.4459 49.632 13.4459C49.632 11.3384 49.632 9.34065 49.632 7.25596C51.6069 7.25596 53.4743 7.2394 55.3374 7.28701C55.4927 7.29115 55.7598 7.73625 55.766 7.98053C55.8053 9.48971 55.7867 11.001 55.7867 12.5101C55.7867 12.7813 55.7867 13.0546 55.7867 13.3796C56.8466 13.3796 57.8093 13.3796 58.863 13.3796C58.863 11.3612 58.863 9.36342 58.863 7.30979C59.8877 7.30979 60.8255 7.30979 61.8441 7.30979C61.8441 10.3178 61.8441 13.3196 61.8441 16.4332C60.9187 16.4332 59.9561 16.4332 58.863 16.4332C58.863 17.4496 58.8381 18.3584 58.8899 19.2652C58.8982 19.3998 59.275 19.6047 59.4903 19.6151C60.2624 19.6585 61.0408 19.6316 61.8689 19.6316C61.8689 20.6709 61.8689 21.6045 61.8689 22.6479C61.045 22.6479 60.2687 22.6148 59.4965 22.6686C59.275 22.6831 58.8878 22.9398 58.8858 23.0909C58.8444 24.9831 58.8589 26.8773 58.8589 28.844C59.8919 28.844 60.8317 28.844 61.8875 28.844C61.8875 29.8729 61.8875 30.8335 61.8875 31.8582C62.9889 31.8582 63.9764 31.8582 65.0736 31.8582C65.0736 30.8873 65.0736 29.9267 65.0736 28.9206C66.119 28.9206 67.0527 28.9206 68.0712 28.9206C68.0712 29.8915 68.0712 30.8314 68.0712 31.8499C70.1704 31.8499 72.1889 31.8499 74.3046 31.8499C74.3046 30.8832 74.3046 29.9205 74.3046 28.9165C75.3397 28.9165 76.2775 28.9165 77.3271 28.9165C77.3271 29.8895 77.3271 30.85 77.3271 31.8686C78.4243 31.8686 79.4139 31.8686 80.4862 31.8686C80.4862 30.8997 80.4862 29.9619 80.4862 28.9475C81.5213 28.9475 82.4757 28.9475 83.4839 28.9475C83.4839 30.937 83.4839 32.9078 83.4839 34.9614C83.0802 34.9821 82.6972 35.0173 82.3142 35.0173C77.8674 35.0215 73.4206 35.036 68.9759 35.0049C68.2638 35.0008 68.0795 35.2244 68.0857 35.9117C68.1168 39.3503 68.1002 42.7909 68.1002 46.2316C68.1002 46.5608 68.1002 46.892 68.1002 47.3309C67.2742 47.3309 66.5289 47.3537 65.7837 47.3226C65.264 47.3019 65.0073 47.4385 65.0363 48.0182C65.0757 48.7966 65.0467 49.5791 65.0467 50.432C68.1395 50.432 71.1662 50.432 74.2549 50.432C74.2549 48.4115 74.2549 46.4138 74.2549 44.3125C73.2985 44.3125 72.3379 44.3125 71.3277 44.3125C71.3277 43.2733 71.3277 42.3355 71.3277 41.2921C71.6237 41.2756 71.9156 41.2424 72.2075 41.2424C75.7041 41.2362 79.1986 41.2486 82.6951 41.2197C83.3452 41.2135 83.6039 41.3915 83.548 42.0705C83.4921 42.762 83.5356 43.4617 83.5356 44.2525C81.482 44.2525 79.4822 44.2525 77.3644 44.2525C77.3644 47.3723 77.3644 50.401 77.3644 53.498C76.3044 53.498 75.3625 53.498 74.3274 53.498C74.3274 54.5269 74.3274 55.4895 74.3274 56.5702C73.2778 56.5702 72.3193 56.5702 71.2738 56.5702C71.2738 57.7129 71.2738 58.7356 71.2738 59.7604L71.2987 59.7376C70.2781 59.7376 69.2595 59.7376 68.154 59.7376C68.154 58.0048 68.1644 56.4211 68.152 54.8374C68.1395 53.3697 68.3279 53.5291 66.8747 53.5229C65.2682 53.5146 63.6617 53.5208 62.0304 53.5208C62.0014 53.2558 61.9704 53.0923 61.9704 52.9287C61.9641 49.3307 61.9579 45.7306 61.9662 42.1326C61.9662 41.878 62.0946 41.6233 62.1608 41.3666C63.1131 41.2963 64.0675 41.2279 65.0881 41.1555C65.0881 40.2653 65.1212 39.4289 65.0612 38.5988C65.0487 38.4145 64.7154 38.1289 64.5105 38.1102C63.846 38.046 63.1711 38.0667 62.5024 38.0978C62.3202 38.1061 61.9848 38.2738 61.989 38.3607C62.0242 39.3689 62.1111 40.373 62.1857 41.3791C61.1133 41.288 60.0409 41.1969 58.8526 41.0954C58.8526 38.0543 58.8526 35.0029 58.8526 31.8748C56.7659 31.8748 54.795 31.8748 52.7104 31.8748C52.7104 30.8397 52.7104 29.8791 52.7104 28.9144C51.609 28.9144 50.6236 28.9144 49.5926 28.9144C49.5926 30.4318 49.5926 31.8831 49.5926 33.3343C49.5926 35.0712 49.5926 35.0712 51.2923 35.0712C52.7621 35.0712 54.2299 35.0712 55.7887 35.0712C55.7887 35.5245 55.7887 35.8537 55.7887 36.1829C55.7887 38.5843 55.7846 40.9878 55.7929 43.3892C55.795 43.7163 55.8695 44.0434 55.9109 44.3705C54.8447 44.3684 53.7806 44.3684 52.7331 44.3684C52.7331 45.3932 52.7331 46.3496 52.7331 47.3123C53.7889 47.3123 54.7723 47.3123 55.886 47.3123C55.886 46.2792 55.886 45.3124 55.886 44.3477C56.8528 44.3477 57.8175 44.3477 58.8009 44.3477C58.8009 47.4406 58.8009 50.4445 58.8009 53.5518C57.7844 53.5518 56.8218 53.5518 55.7867 53.5518C55.7867 53.9576 55.7867 54.2598 55.7867 54.5642C55.7867 57.8641 55.7825 61.164 55.7887 64.4639C55.7929 65.973 55.8198 67.4801 55.8364 68.9893L55.8612 68.9645C54.7888 68.9645 53.7165 68.9645 52.6441 68.9645L52.669 68.9893C52.669 67.9956 52.669 66.9999 52.669 65.9461C51.6214 65.9461 50.6236 65.9461 49.6278 65.9461L49.6609 65.9772C49.6506 65.1698 49.5988 64.3603 49.6402 63.555C49.6734 62.9216 49.4394 62.7435 48.8246 62.7518C46.3735 62.7808 43.9203 62.7642 41.4671 62.7642C41.1628 62.7642 40.8605 62.7642 40.4258 62.7642C40.4258 61.7167 40.4258 60.7292 40.4258 59.7397L40.3968 59.7604C41.2083 59.7583 42.0198 59.7417 42.8293 59.7645C43.2992 59.7769 43.4814 59.5968 43.4711 59.129C43.4503 58.3278 43.4648 57.5266 43.4648 56.6219C45.4315 56.6219 47.2989 56.6075 49.1641 56.6509C49.3111 56.6551 49.5574 57.0546 49.5719 57.2823C49.6216 58.0773 49.5906 58.8785 49.5906 59.7562C50.5014 59.7562 51.2798 59.7335 52.0562 59.7645C52.5758 59.7852 52.7352 59.5699 52.7269 59.0731C52.7041 57.7585 52.7186 56.4439 52.7186 55.1314C52.7186 54.6159 52.7186 54.0984 52.7186 53.4815C51.5987 53.4815 50.6381 53.4815 49.6278 53.4815C49.6278 51.6431 49.603 49.9124 49.6402 48.1797C49.6547 47.5358 49.4788 47.306 48.7977 47.3164C46.2534 47.3557 43.7091 47.3309 41.1648 47.333C40.9226 47.333 40.6804 47.3702 40.4175 47.3909C40.4175 48.4819 40.4175 49.5087 40.4175 50.5356C39.3969 50.49 38.3784 50.4424 37.2439 50.3906C37.2439 49.3638 37.2439 48.3826 37.2439 47.3951C36.1674 47.3951 35.2089 47.3951 34.211 47.3951C34.211 48.484 34.211 49.5108 34.211 50.5356C33.1967 50.5273 32.1802 50.5169 31.1658 50.5086L31.1927 50.5335C31.1823 49.9228 31.1679 49.3121 31.1616 48.7014C31.143 47.1301 31.3355 47.3433 29.7808 47.333C28.1806 47.3226 26.5782 47.3309 24.9697 47.3309C24.9697 48.4384 24.9697 49.428 24.9697 50.4176C24.1913 50.43 23.4108 50.4859 22.6386 50.4383C21.9534 50.3969 21.7754 50.6639 21.8085 51.3036C21.8478 52.0489 21.7836 52.8004 21.765 53.5498L21.7898 53.5249C20.7755 53.5249 19.7611 53.5249 18.7467 53.5249L18.7736 53.5498Z" fill="black"></path><path d="M9.54876 38.0831C8.71033 38.0831 7.86776 38.1142 7.03347 38.0583C6.83266 38.0438 6.48694 37.7416 6.48487 37.5677C6.44967 34.717 6.46002 31.8663 6.46002 28.9432C7.47235 28.9432 8.42671 28.9432 9.48666 28.9432C9.48666 29.9245 9.48666 30.8892 9.48666 31.8808C10.5549 31.8808 11.5175 31.8808 12.5961 31.8808C12.5961 30.8788 12.5961 29.9162 12.5961 28.9163C13.6498 28.9163 14.5897 28.9163 15.6331 28.9163C15.6331 29.8872 15.6331 30.8499 15.6331 31.8705C16.6992 31.8705 17.666 31.8705 18.7322 31.8705C18.7322 30.9265 18.7322 29.9638 18.7322 28.937C19.7859 28.937 20.7444 28.937 21.7878 28.937C21.7878 29.8893 21.7878 30.8271 21.7878 31.8436C23.889 31.8436 25.9054 31.8436 28.0274 31.8436C28.0274 29.8707 28.0274 27.9019 28.0274 25.8255C28.901 25.8255 29.6752 25.8027 30.4495 25.8338C30.994 25.8545 31.1865 25.6537 31.1782 25.103C31.1637 24.2687 31.2279 23.4344 31.2589 22.598L31.2341 22.6167C32.1781 22.6167 33.1221 22.6167 34.1386 22.6167C34.1386 21.6685 34.1386 20.708 34.1386 19.6294C33.1904 19.6294 32.2319 19.6294 31.1658 19.6294C31.1658 18.7164 31.1451 17.9153 31.1741 17.1141C31.1906 16.6421 31.0126 16.4537 30.5468 16.4661C29.9319 16.4827 29.315 16.4413 28.7023 16.4765C28.1764 16.5054 28.0336 16.286 28.0356 15.7892C28.0522 13.16 28.0522 10.5309 28.0336 7.90377C28.0294 7.37587 28.2427 7.25373 28.7354 7.24338C31.1306 7.19369 31.1285 7.1792 31.1327 9.55579C31.1347 10.7586 31.143 11.9593 31.1513 13.1621C31.1513 13.2138 31.1865 13.2656 31.2258 13.3753C33.1987 13.3753 35.1923 13.3753 37.2915 13.3753C37.2915 12.3775 37.2915 11.4148 37.2915 10.3839C37.9209 10.3839 38.4467 10.3921 38.9746 10.3818C40.6059 10.3549 40.403 10.6426 40.4196 8.89125C40.4237 8.39234 40.4196 7.89135 40.4196 7.32204C42.4567 7.32204 44.4254 7.32204 46.5432 7.32204C46.5432 8.18739 46.5701 9.07136 46.5163 9.94913C46.508 10.0858 46.1354 10.2948 45.9222 10.3073C45.1438 10.3507 44.3612 10.3238 43.4317 10.3238C43.4317 12.4002 43.4317 14.427 43.4317 16.4537L43.4524 16.4289C42.6223 16.4454 41.7921 16.4806 40.9599 16.4744C40.5376 16.4723 40.3513 16.6193 40.3616 17.052C40.3782 17.7165 40.3181 18.3873 40.3927 19.0456C40.4175 19.2588 40.7467 19.588 40.9578 19.6066C41.7838 19.677 42.6181 19.6418 43.4504 19.6459L43.4276 19.6232C43.4276 20.6376 43.4276 21.652 43.4276 22.6664L43.4504 22.6436C41.6099 22.6436 39.7716 22.6312 37.9312 22.6622C37.7014 22.6664 37.2791 22.9024 37.277 23.039C37.2335 24.9519 37.248 26.8647 37.248 28.7258C37.4095 28.8004 37.4592 28.8418 37.5068 28.8438C38.4819 28.8583 39.4569 28.8687 40.432 28.879L40.4072 28.8542C40.4072 29.8479 40.4072 30.8395 40.4072 31.9346C38.2272 31.9346 36.2316 31.9346 34.1614 31.9346C34.1614 35.0731 34.1614 38.1059 34.1614 41.1305C34.002 41.1574 33.9192 41.1822 33.8384 41.1822C30.7103 41.1905 27.5802 41.1905 24.4521 41.205C23.5599 41.2091 22.6676 41.2526 21.7774 41.2775L21.7981 41.2982C21.7981 40.2548 21.7981 39.2114 21.7981 38.0852C19.7279 38.0852 17.7323 38.0852 15.7387 38.0852L15.7614 38.108C15.7511 37.2737 15.7676 36.4394 15.7138 35.6072C15.7014 35.4064 15.4592 35.0544 15.3163 35.0503C13.4076 35.013 11.4989 35.0255 9.52806 35.0255C9.52806 36.1206 9.52806 37.1143 9.52806 38.1059L9.54876 38.0831Z" fill="black"></path><path d="M31.2507 62.6896C30.2238 62.6896 29.197 62.6896 28.0336 62.6896C28.0336 61.9236 28.0646 61.1493 28.0149 60.3813C28.0004 60.1536 27.7582 59.7519 27.6133 59.7478C25.7191 59.7043 23.8249 59.7188 21.8416 59.7188C21.8416 60.7436 21.8416 61.6834 21.8416 62.6958C19.788 62.6958 17.8213 62.6958 15.7304 62.6958C15.7304 61.7248 15.7304 60.7663 15.7304 59.7623C13.6063 59.7623 11.6065 59.7623 9.51977 59.7623C9.51977 60.7229 9.51977 61.6586 9.51977 62.7558C8.56127 62.7558 7.68143 62.7744 6.80574 62.7351C6.68567 62.7289 6.48279 62.4349 6.48072 62.2714C6.46622 59.4497 6.47865 56.6259 6.48693 53.8043C6.48693 53.7546 6.53247 53.707 6.59872 53.5703C8.52607 53.5703 10.4969 53.5703 12.6023 53.5703C12.6023 52.1833 12.6023 50.8811 12.6023 49.579C12.6023 47.3556 12.6023 47.3535 14.8485 47.3846C15.0907 47.3887 15.335 47.4198 15.6434 47.4425C15.6434 49.4713 15.6434 51.4463 15.6434 53.5496C16.7303 53.5496 17.753 53.5496 18.7756 53.5496L18.7487 53.5269C18.7487 54.5433 18.7487 55.5577 18.7487 56.5742C19.8542 56.5742 20.8148 56.5742 21.7919 56.5742C21.7919 55.5205 21.7919 54.5247 21.7919 53.5269L21.7671 53.5517C22.7898 53.5517 23.8124 53.5517 24.9448 53.5517C24.9448 52.4379 24.9448 51.4153 24.9448 50.3905C25.2988 50.4298 25.6528 50.5002 26.0068 50.5044C27.7355 50.523 29.4661 50.5251 31.1948 50.5313L31.1679 50.5064C31.1865 51.5312 31.2051 52.5539 31.2237 53.5786C30.3315 53.56 29.4413 53.5206 28.5532 53.5393C28.3648 53.5434 28.0253 53.7463 28.0191 53.8705C27.9735 54.7731 27.9942 55.6778 27.9942 56.5473C29.1266 56.5473 30.112 56.5473 31.203 56.5473C31.203 55.4977 31.203 54.5268 31.203 53.5579C32.2071 53.5476 33.2111 53.5372 34.2152 53.5289C34.2152 54.5516 34.2152 55.5743 34.2152 56.5763C35.2689 56.5763 36.2336 56.5763 37.2066 56.5763C37.2066 55.5246 37.2066 54.5268 37.2066 53.5289C38.279 53.5289 39.3513 53.5289 40.4237 53.5289C40.4175 55.6074 40.4092 57.6838 40.403 59.7623L40.432 59.7416C37.3785 59.7416 34.3228 59.7416 31.0975 59.7416C31.1451 60.756 31.1906 61.7331 31.2362 62.7103L31.2507 62.6896Z" fill="black"></path><path d="M74.3253 75.1728C72.5367 75.1604 70.748 75.1273 68.9594 75.148C68.3507 75.1542 68.0816 74.9927 68.1499 74.3468C68.2017 73.85 68.1168 73.3366 68.1706 72.8397C68.2451 72.1441 67.9429 71.964 67.3053 72.0034C66.5911 72.0468 65.8706 72.0137 65.057 72.0137C65.057 75.1584 65.057 78.1891 65.057 81.3131C62.9641 81.3131 60.9684 81.3131 58.8858 81.3131C58.8858 82.3647 58.8858 83.3294 58.8858 84.348C57.8652 84.348 56.9294 84.348 55.9026 84.348C55.9026 83.4081 55.9026 82.4455 55.9026 81.369C54.8323 81.369 53.8448 81.369 52.6793 81.369C52.6793 80.2386 52.6793 79.218 52.6793 78.1953L52.6503 78.2222C53.6958 78.2222 54.7412 78.2222 55.8695 78.2222C55.8695 77.152 55.8695 76.2142 55.8695 75.2722C56.9129 75.2722 57.8652 75.2722 58.9023 75.2722C58.9023 76.2908 58.9023 77.2265 58.9023 78.1891C59.9499 78.1891 60.9125 78.1891 61.9228 78.1891C61.9228 76.1334 61.9228 74.1357 61.9228 72.0117C59.8898 72.0117 57.8983 72.0117 55.8674 72.0117C55.8674 70.9124 55.8674 69.9394 55.8674 68.9685L55.8426 68.9933C56.8363 68.9933 57.832 68.9933 58.9148 68.9933C58.9148 66.892 58.9148 64.8984 58.9148 62.8779C62.0076 62.8779 65.0074 62.8779 68.1044 62.8779C68.1044 63.6273 68.1478 64.3229 68.0919 65.0082C68.0319 65.7307 68.2534 66.0267 69.0153 65.9625C69.746 65.9004 70.4872 65.948 71.307 65.948C71.307 68.0907 71.307 70.0574 71.307 72.0117C72.3752 72.0117 73.3503 72.0117 74.3253 72.0117L74.3025 71.9868C74.3025 73.0592 74.3025 74.1295 74.3025 75.2018L74.3253 75.1728ZM65.057 65.9708C63.9888 65.9708 63.0013 65.9708 61.9869 65.9708C61.9869 66.9997 61.9869 67.9623 61.9869 68.9395C63.0386 68.9395 64.0281 68.9395 65.057 68.9395C65.057 67.9396 65.057 66.9997 65.057 65.9708Z" fill="black"></path><path d="M71.278 59.7603C73.2591 59.7603 75.2403 59.7603 77.3933 59.7603C77.3933 58.9943 77.4471 58.278 77.3788 57.5762C77.3002 56.773 77.6314 56.5991 78.3725 56.6094C80.5276 56.6426 80.5276 56.6136 80.5276 54.4212C80.5276 52.3241 80.5442 50.2291 80.5173 48.132C80.509 47.5482 80.6849 47.3308 81.2812 47.3681C81.9975 47.4136 82.7199 47.3784 83.488 47.3784C83.488 51.5292 83.488 55.5661 83.488 59.6899C82.5109 59.6899 81.5731 59.6899 80.538 59.6899C80.5131 60.0625 80.4759 60.3565 80.4759 60.6505C80.4738 67.2461 80.4862 73.8438 80.4593 80.4395C80.4552 81.1889 80.6787 81.4353 81.4095 81.3752C82.072 81.3214 82.7427 81.3628 83.4735 81.3628C83.4735 82.3979 83.4735 83.3564 83.4735 84.3605C81.4695 84.3605 79.4946 84.3605 77.4202 84.3605C77.4202 83.3957 77.4202 82.431 77.4202 81.3587C76.3644 81.3587 75.4039 81.3587 74.3253 81.3587C74.3253 79.2264 74.3253 77.1996 74.3253 75.1729L74.3004 75.1998C75.2962 75.1998 76.294 75.1998 77.3395 75.1998C77.3395 74.0964 77.3395 73.1089 77.3395 71.9848C76.292 71.9848 75.2962 71.9848 74.3004 71.9848L74.3232 72.0097C74.3232 71.018 74.3232 70.0264 74.3232 68.954C75.4142 68.954 76.3769 68.954 77.3291 68.954C77.3291 67.9044 77.3291 66.9418 77.3291 65.886C76.3085 65.886 75.348 65.886 74.2797 65.886C74.2797 64.8054 74.2797 63.8179 74.2797 62.7414C73.2322 62.7414 72.2965 62.7414 71.3028 62.7414C71.3028 61.6773 71.3028 60.7084 71.3028 59.7375L71.278 59.7603Z" fill="black"></path><path d="M31.232 62.7081C32.3416 62.7433 33.4513 62.7888 34.5609 62.8116C35.42 62.8281 36.2771 62.8157 37.2335 62.8157C37.2335 63.2587 37.2335 63.5858 37.2335 63.9129C37.2335 68.3307 37.2501 72.7506 37.2149 77.1684C37.2087 77.9696 37.3495 78.2967 38.2541 78.2677C40.3533 78.2035 40.3554 78.2553 40.3554 80.3317C40.3554 81.667 40.3554 83.0002 40.3554 84.3686C39.2954 84.3686 38.3514 84.3686 37.3143 84.3686C37.3143 83.3997 37.3143 82.4371 37.3143 81.344C36.2398 81.344 35.2544 81.344 34.1924 81.344C34.1924 80.2468 34.1924 79.278 34.1924 78.2532C33.1759 78.2532 32.2381 78.2532 31.1678 78.2532C31.1678 80.2572 31.1678 82.2756 31.1678 84.3479C30.0748 84.3479 29.1121 84.3479 28.0915 84.3479C28.0915 80.2716 28.0915 76.2078 28.0915 72.053C29.1121 72.053 30.0768 72.053 31.1016 72.053C31.1016 71.0013 31.1016 70.0407 31.1016 68.9932C30.0955 68.9932 29.1287 68.9932 28.0977 68.9932C28.0977 67.9747 28.0977 67.0389 28.0977 65.9397C28.7995 65.9397 29.5138 65.9003 30.2197 65.95C30.9298 65.9997 31.232 65.7968 31.1782 65.0246C31.1244 64.2504 31.2175 63.4678 31.2486 62.6853C31.2506 62.6894 31.232 62.7081 31.232 62.7081Z" fill="black"></path><path d="M52.6772 78.1954C51.7042 78.1954 50.7312 78.1954 49.6299 78.1954C49.6299 76.7691 49.6299 75.4089 49.6299 74.0509C49.6299 72.0035 49.6299 72.0407 47.5514 71.9952C46.744 71.9765 46.5184 72.2105 46.5287 73.022C46.5722 76.4875 46.5453 79.9551 46.5432 83.4227C46.5432 83.7229 46.5432 84.023 46.5432 84.3626C45.475 84.3626 44.5124 84.3626 43.471 84.3626C43.471 81.3131 43.471 78.3031 43.471 75.1377C42.6575 75.1377 41.9163 75.1129 41.1773 75.146C40.6183 75.1709 40.3802 75.0177 40.3947 74.4008C40.432 72.6432 40.4071 70.8856 40.4071 69.0244C41.4278 69.0244 42.3883 69.0244 43.4545 69.0244C43.4545 67.9645 43.4545 67.0019 43.4545 65.9812C45.593 65.9812 47.6259 65.9812 49.6589 65.9812L49.6257 65.9502C49.6257 66.9377 49.6257 67.9272 49.6257 68.9934C50.6836 68.9934 51.6752 68.9934 52.6669 68.9934L52.642 68.9686C52.642 72.0531 52.642 75.1377 52.6441 78.2223L52.6772 78.1954Z" fill="black"></path><path d="M31.2548 22.6002C30.2301 22.6002 29.2053 22.6002 28.106 22.6002C28.106 21.652 28.106 20.7225 28.106 19.6481C28.9983 19.6481 29.9009 19.6232 30.7994 19.677C30.9236 19.6853 31.0996 20.0807 31.1203 20.3085C31.1886 21.0765 31.1969 21.8508 31.23 22.6209C31.23 22.6188 31.2548 22.6002 31.2548 22.6002Z" fill="black"></path><path d="M37.159 10.2782C36.1757 10.2782 35.242 10.2782 34.2587 10.2782C34.2587 9.27419 34.2587 8.31983 34.2587 7.30957C35.2234 7.30957 36.1529 7.30957 37.159 7.30957C37.159 8.27428 37.159 9.22865 37.159 10.2782Z" fill="black"></path><path d="M52.5924 84.3748C51.5987 84.3748 50.6857 84.3748 49.7024 84.3748C49.7024 83.3956 49.7024 82.4433 49.7024 81.4248C50.6629 81.4248 51.6152 81.4248 52.5924 81.4248C52.5924 82.4351 52.5924 83.4081 52.5924 84.3748Z" fill="black"></path><path d="M58.9355 59.6608C58.9355 58.665 58.9355 57.7044 58.9355 56.63C60.8504 56.63 62.7405 56.6217 64.6306 56.6465C64.7713 56.6486 65.0218 56.895 65.0281 57.0357C65.0653 57.8907 65.0467 58.7499 65.0467 59.6587C62.9661 59.6608 60.9746 59.6608 58.9355 59.6608Z" fill="black"></path><path d="M40.4113 41.1492C40.4113 39.2405 40.4009 37.4042 40.4299 35.568C40.432 35.4024 40.6825 35.1063 40.8315 35.098C41.6575 35.0525 42.4856 35.0753 43.3655 35.0753C43.3655 37.1475 43.3655 39.1142 43.3655 41.1472C42.409 41.1492 41.4733 41.1492 40.4113 41.1492Z" fill="black"></path><path d="M40.3989 53.5497C40.3989 52.5353 40.3989 51.5229 40.3989 50.5085C41.3656 50.5085 42.3324 50.5085 43.3593 50.5085C43.3593 51.5229 43.3593 52.4525 43.3593 53.5497C42.3759 53.5497 41.3884 53.5497 40.3989 53.5497Z" fill="black"></path><path d="M37.2294 53.5495C36.215 53.5495 35.2027 53.5495 34.1883 53.5495C34.1883 52.5351 34.1883 51.5207 34.1883 50.5063C35.1613 50.5063 36.1343 50.5063 37.2294 50.5063C37.2294 51.5621 37.2294 52.5558 37.2294 53.5495Z" fill="black"></path><path d="M64.8645 7.30347C64.8396 7.58501 64.8065 7.77547 64.8065 7.96593C64.8024 13.7273 64.8107 19.4907 64.7858 25.2521C64.7837 25.9042 65.0156 26.0388 65.616 26.0367C71.3504 26.0181 77.0849 26.0264 82.8193 26.0243C83.0346 26.0243 83.252 25.9912 83.5108 25.9705C83.5108 19.7288 83.5108 13.5389 83.5108 7.30347C77.2815 7.30347 71.1123 7.30347 64.8645 7.30347ZM80.7139 22.8217C80.7139 22.9004 80.6829 22.9811 80.6539 23.1198C76.3458 23.1198 72.0357 23.1198 67.682 23.1198C67.6613 22.8362 67.6261 22.5919 67.6261 22.3476C67.6261 18.5467 67.6448 14.7458 67.6178 10.947C67.6137 10.2763 67.8228 10.0879 68.4749 10.092C72.3027 10.1148 76.1326 10.1065 79.9604 10.0962C80.4345 10.0941 80.7471 10.1334 80.7429 10.7524C80.7139 14.7748 80.7201 18.7993 80.7139 22.8217Z" fill="#17479C"></path><path d="M70.6818 20.2132C73.0625 20.2132 75.3728 20.2132 77.7494 20.2132C77.7494 17.7931 77.7494 15.4641 77.7494 13.1372C75.3521 13.1372 73.019 13.1372 70.6818 13.1372C70.6818 15.5262 70.6818 17.8511 70.6818 20.2132Z" fill="#17479C"></path><path d="M6.52834 65.6997C6.52834 71.96 6.52834 78.1499 6.52834 84.3708C12.7451 84.3708 18.8895 84.3708 25.1829 84.3708C25.1829 78.1478 25.1829 71.931 25.1829 65.6997C18.9413 65.6997 12.7286 65.6997 6.52834 65.6997ZM22.4047 80.9281C22.4047 81.1165 22.3529 81.3028 22.3198 81.5285C17.9848 81.5285 13.6871 81.5285 9.32518 81.5285C9.32518 77.1872 9.32518 72.8667 9.32518 68.5131C9.5943 68.4924 9.81374 68.4593 10.0332 68.4593C13.892 68.4572 17.7509 68.4655 21.6118 68.4489C22.1563 68.4469 22.4192 68.5587 22.4171 69.1818C22.3943 73.0986 22.4088 77.0133 22.4047 80.9281Z" fill="#17479C"></path><path d="M12.3042 78.5391C14.6787 78.5391 16.9891 78.5391 19.3615 78.5391C19.3615 76.1397 19.3615 73.8356 19.3615 71.5149C16.9766 71.5149 14.6497 71.5149 12.3042 71.5149C12.3042 73.8936 12.3042 76.1956 12.3042 78.5391Z" fill="#17479C"></path><path d="M6.51385 7.29932C6.49522 7.63469 6.46624 7.9328 6.46624 8.23091C6.46003 13.8784 6.47038 19.5259 6.44139 25.1714C6.43725 25.8939 6.69396 26.045 7.36056 26.0429C13.035 26.0201 18.7115 26.0305 24.3859 26.0263C24.6529 26.0263 24.9179 25.9911 25.1705 25.9725C25.1705 19.6977 25.1705 13.5099 25.1705 7.29932C18.9268 7.29932 12.7596 7.29932 6.51385 7.29932ZM22.4006 22.6498C22.4006 22.7844 22.3716 22.921 22.3447 23.1446C17.9724 23.1446 13.6788 23.1446 9.33553 23.1446C9.30862 22.9024 9.26515 22.6892 9.26515 22.4739C9.26101 18.6482 9.27757 14.8204 9.25066 10.9946C9.24652 10.328 9.39971 10.0755 10.1243 10.0837C13.9231 10.1189 17.7219 10.1065 21.5207 10.0962C22.0528 10.0941 22.4213 10.1272 22.4171 10.8352C22.3923 14.7727 22.4047 18.7123 22.4006 22.6498Z" fill="#17479C"></path><path d="M19.3926 15.1041C19.3926 14.4457 19.3926 13.7895 19.3926 13.1042C16.9621 13.1042 14.6746 13.1042 12.2483 13.1042C12.2483 15.396 12.2359 17.5966 12.2752 19.7993C12.2773 19.9545 12.6644 20.2319 12.8756 20.234C14.805 20.2671 16.7344 20.2257 18.6618 20.263C19.2953 20.2754 19.4112 20.0084 19.4029 19.4639C19.3801 18.0127 19.3946 16.5594 19.3926 15.1041Z" fill="#17479C"></path><g filter="url(#filter0_d_673_7854)"><rect x="29" y="29" width="32" height="32" rx="16" fill="white" shape-rendering="crispEdges"></rect><rect x="34" y="34" width="22" height="22" rx="11" stroke="white" stroke-width="10" shape-rendering="crispEdges"></rect><path d="M34.9568 47.5317V41.0041C34.9568 40.6693 35.0721 40.3444 35.283 40.0844C35.5601 39.7423 35.9771 39.5436 36.4173 39.5436H47.4184L46.2081 37.5325H36.4382C35.4608 37.5325 34.5374 37.9752 33.9242 38.7355C33.4619 39.3094 33.2105 40.0231 33.2105 40.7601V47.5317H34.9568Z" fill="#17479C"></path><path d="M36.8858 36.0181L42.7499 32.6323C43.3876 32.2644 44.132 32.1246 44.8604 32.2387C45.8255 32.3883 46.6704 32.9683 47.1597 33.8145L52.044 42.2747L50.9073 44.3287L45.4073 34.8016C45.1878 34.4203 44.8064 34.1591 44.3723 34.0892C44.0412 34.0364 43.7028 34.099 43.4121 34.267L37.7589 37.5301L36.8858 36.0181Z" fill="#17479C"></path><path d="M48.6938 33.4456L54.558 36.8314C55.1956 37.1993 55.6886 37.7744 55.9547 38.4623C56.3067 39.3735 56.2282 40.395 55.7401 41.2411L50.8558 49.7013L48.5086 49.743L54.0086 40.2159C54.2281 39.8346 54.2649 39.3747 54.1079 38.9639C53.9877 38.6512 53.7645 38.3888 53.4739 38.222L47.8207 34.9588L48.6938 33.4456Z" fill="#17479C"></path><path d="M56.8266 42.385V49.1566C56.8266 49.8936 56.5752 50.6073 56.1129 51.1812C55.4997 51.9415 54.5763 52.3842 53.599 52.3842H43.829L42.6187 50.3731H53.6198C54.06 50.3731 54.477 50.1744 54.7541 49.8323C54.965 49.5723 55.0803 49.2474 55.0803 48.9126V42.385H56.8266Z" fill="#17479C"></path><path d="M52.2782 52.3857L53.1513 53.8978L47.2871 57.2836C46.6495 57.6515 45.9051 57.7913 45.1767 57.6772C44.2116 57.5276 43.3667 56.9476 42.8774 56.1014L37.993 47.6412L39.1298 45.5872L44.6297 55.1142C44.8492 55.4956 45.2306 55.7568 45.6647 55.8267C45.9958 55.8795 46.3343 55.8169 46.6249 55.6489L52.2782 52.3857Z" fill="#17479C"></path><path d="M42.2165 54.9583L41.3433 56.4703L35.4792 53.0845C34.8415 52.7166 34.3485 52.1415 34.0824 51.4535C33.7305 50.5424 33.809 49.5209 34.297 48.6748L39.1814 40.2145L41.5285 40.1729L36.0286 49.6999C35.8091 50.0813 35.7723 50.5412 35.9292 50.952C36.0494 51.2647 36.2726 51.5271 36.5632 51.6939L42.2165 54.9583Z" fill="#17479C"></path><path d="M38.6361 45.0059L41.903 39.5667L48.2472 39.6748L51.3244 45.2238L48.0592 50.6631L41.715 50.555L38.6361 45.0059Z" fill="#FBB04C"></path></g><defs><filter id="filter0_d_673_7854" x="25" y="29" width="40" height="40" filterUnits="userSpaceOnUse" color-interpolation-filters="sRGB"></filter></defs></svg>